<svg width="343" height="284" viewBox="0 0 343 284" fill="none" xmlns="http://www.w3.org/2000/svg">
<path d="M287.479 249.953H37.0321C34.6182 249.953 32.6432 247.978 32.6432 245.564C32.6432 243.15 34.6182 241.175 37.0321 241.175H287.479C289.893 241.175 291.868 243.15 291.868 245.564C291.868 247.978 289.893 249.953 287.479 249.953Z" fill="white" stroke="black" stroke-width="3" stroke-miterlimit="10"/>
<path d="M210.781 139.46V147.635L217.859 143.52L210.781 139.46ZM208.861 152.902C208.532 152.902 208.203 152.792 207.929 152.627C207.325 152.298 206.996 151.64 206.996 150.981V136.169C206.996 135.51 207.38 134.852 207.929 134.523C208.532 134.194 209.245 134.194 209.849 134.523L222.687 141.929C223.29 142.258 223.619 142.917 223.619 143.575C223.619 144.233 223.235 144.892 222.687 145.221L209.849 152.627C209.575 152.792 209.245 152.902 208.861 152.902Z" fill="black"/>
<path d="M265.095 217.53H165.355C164.313 217.53 163.435 216.652 163.435 215.609C163.435 214.567 164.313 213.689 165.355 213.689H265.095C266.138 213.689 267.016 214.567 267.016 215.609C267.016 216.652 266.193 217.53 265.095 217.53Z" fill="black"/>
<path d="M265.095 87.2313H165.355C164.313 87.2313 163.435 86.3535 163.435 85.3111C163.435 84.2687 164.313 83.3909 165.355 83.3909H265.095C266.138 83.3909 267.016 84.2687 267.016 85.3111C267.016 86.3535 266.193 87.2313 265.095 87.2313Z" fill="black"/>
<path d="M219.121 75.765H203.814C202.772 75.765 201.894 74.8872 201.894 73.8448C201.894 72.8025 202.772 71.9247 203.814 71.9247H219.121C220.163 71.9247 221.041 72.8025 221.041 73.8448C221.041 74.8872 220.218 75.765 219.121 75.765Z" fill="black"/>
<path d="M222.961 228.996H207.654C206.612 228.996 205.734 228.118 205.734 227.076C205.734 226.033 206.612 225.155 207.654 225.155H222.961C224.003 225.155 224.881 226.033 224.881 227.076C224.881 228.173 224.058 228.996 222.961 228.996Z" fill="black"/>
<path d="M234.439 74.4483C234.779 72.3547 233.357 70.382 231.264 70.0422C229.17 69.7024 227.197 71.1242 226.858 73.2178C226.518 75.3114 227.94 77.2841 230.033 77.6239C232.127 77.9637 234.1 76.5419 234.439 74.4483Z" fill="black"/>
<path d="M180.827 64.2439C173.365 64.2439 167.276 70.3336 167.276 77.7949V223.126C167.276 230.587 173.365 236.677 180.827 236.677H249.679C257.14 236.677 263.23 230.587 263.23 223.126L263.34 150.927L263.23 85.366V77.7949C263.23 70.3336 257.14 64.2439 249.679 64.2439H180.827ZM249.679 240.517H180.827C171.226 240.517 163.435 232.726 163.435 223.126V77.7949C163.435 68.194 171.226 60.4035 180.827 60.4035H249.679C259.28 60.4035 267.07 68.194 267.07 77.7949V85.366L267.18 150.927L267.07 223.126C267.015 232.726 259.225 240.517 249.679 240.517Z" fill="black"/>
<path d="M186.587 172.049H244.083V118.393H186.587V172.049ZM245.948 175.889H184.667C183.625 175.889 182.747 175.011 182.747 173.969V116.528C182.747 115.485 183.625 114.608 184.667 114.608H245.948C246.991 114.608 247.869 115.485 247.869 116.528V174.024C247.869 175.011 247.046 175.889 245.948 175.889Z" fill="black"/>
<path d="M253.629 188.452H176.986C175.944 188.452 175.066 187.575 175.066 186.532C175.066 185.49 175.944 184.612 176.986 184.612H253.629C254.671 184.612 255.549 185.49 255.549 186.532C255.549 187.575 254.671 188.452 253.629 188.452Z" fill="black"/>
<path d="M192.348 192.293C191.305 192.293 190.428 191.415 190.428 190.373V182.692C190.428 181.65 191.305 180.772 192.348 180.772C193.39 180.772 194.268 181.65 194.268 182.692V190.373C194.213 191.47 193.39 192.293 192.348 192.293Z" fill="black"/>
<path d="M120.423 110.054C120.423 110.054 114.388 109.286 113.072 108.244C111.755 107.201 106.433 100.673 105.885 97.6551C105.281 94.6926 107.311 89.4258 109.341 87.5056C111.371 85.5854 109.067 82.8972 109.944 81.361C110.767 79.8249 121.849 73.8997 126.842 74.0094C131.834 74.1192 136.114 78.6727 137.321 80.2089C138.528 81.745 139.131 84.4333 138.253 87.0118C137.376 89.6452 120.423 110.054 120.423 110.054Z" fill="black" stroke="black" stroke-miterlimit="10"/>
<path d="M107.201 124.867L108.353 123.276C108.353 123.276 114.553 119.82 115.376 118.667C116.199 117.515 119.655 110.273 119.655 109.396C119.655 108.518 118.887 106.707 118.283 106.433C117.68 106.159 113.785 105.5 114.553 103.087C115.321 100.673 118.174 101.386 118.722 102.702C119.271 104.019 121.136 104.293 122.124 103.361C123.111 102.483 123.386 99.5205 122.672 98.1489C121.904 96.7225 119.874 93.9793 119.984 92.3883C120.039 90.7973 118.887 90.0841 122.014 89.1515C125.141 88.1639 133.425 87.3959 133.919 84.0492C133.919 84.0492 137.376 88.0542 138.144 89.2612C138.912 90.4682 141.38 101.825 137.65 106.104C133.919 110.383 129.914 110.493 128.817 110.438L127.061 116.638L130.408 117.79C130.408 117.79 132.767 121.685 131.725 123.934C130.682 126.184 122.782 132.109 119.929 131.56C117.076 131.011 107.201 124.867 107.201 124.867Z" fill="white" stroke="black" stroke-width="2" stroke-miterlimit="10"/>
<path d="M149.555 241.395L131.834 193.664V186.148L103.471 191.141L103.141 230.751L107.585 240.682L149.555 241.395Z" fill="black" stroke="black" stroke-miterlimit="10"/>
<path d="M170.897 199.315C170.897 199.315 164.971 199.535 163.545 206.118C162.064 212.702 156.961 233.495 156.961 233.495H141.874V240.517H207.215L217.146 206.941C217.146 206.941 219.395 199.206 212.921 199.315C206.502 199.425 170.897 199.315 170.897 199.315Z" fill="black" stroke="black" stroke-miterlimit="10"/>
<path d="M172.213 203.869C172.213 203.869 168.592 203.54 167.879 206.667C167.166 209.794 162.612 231.026 162.612 231.026L203.265 230.751L209.684 207.929C209.684 207.929 210.946 203.704 207.435 203.814C203.924 203.979 172.213 203.869 172.213 203.869Z" fill="#FBFFFF"/>
<path d="M200.467 223.4H196.188C193.994 223.4 192.348 221.151 193.061 219.066L196.353 208.806C196.737 207.545 197.889 206.722 199.206 206.777H203.485C205.679 206.777 207.325 209.026 206.612 211.111L203.32 221.37C202.881 222.577 201.784 223.4 200.467 223.4Z" fill="#2A95FF"/>
<path d="M193.884 207.874H172.049" stroke="#2A95FF" stroke-width="2" stroke-miterlimit="10" stroke-linecap="round" stroke-linejoin="round"/>
<path d="M190.044 211.166H172.049" stroke="#2A95FF" stroke-width="2" stroke-miterlimit="10" stroke-linecap="round" stroke-linejoin="round"/>
<path d="M188.727 214.841H170.677" stroke="#2A95FF" stroke-width="2" stroke-miterlimit="10" stroke-linecap="round" stroke-linejoin="round"/>
<path d="M187.794 217.749H169.799" stroke="#2A95FF" stroke-width="2" stroke-miterlimit="10" stroke-linecap="round" stroke-linejoin="round"/>
<path d="M185.819 221.919H167.824" stroke="#2A95FF" stroke-width="2" stroke-miterlimit="10" stroke-linecap="round" stroke-linejoin="round"/>
<path d="M184.612 226.088H166.617" stroke="#2A95FF" stroke-width="2" stroke-miterlimit="10" stroke-linecap="round" stroke-linejoin="round"/>
<path d="M201.51 226.088H191.196" stroke="#2A95FF" stroke-width="2" stroke-miterlimit="10" stroke-linecap="round" stroke-linejoin="round"/>
<path d="M186.423 109.505C184.722 111.865 176.054 122.727 174.298 122.727L169.854 140.393L168.373 146.318L157.291 168.592L136.278 147.58L134.084 167.111L140.996 165.52L142.917 180.881C142.917 180.881 139.899 182.527 137.101 183.734C134.303 184.886 132.218 183.186 132.218 183.186L131.889 186.203L114.059 190.318L103.525 191.196C103.525 191.196 90.6328 166.453 92.7175 145.55C92.7175 145.55 94.0891 132.987 98.8621 129.256C103.635 125.525 108.463 123.331 108.463 123.331C108.463 123.331 124.757 135.346 130.518 117.845C130.518 117.845 138.912 117.735 141.49 121.685C144.069 125.635 152.956 142.478 152.956 142.478C152.956 142.478 154.328 142.368 155.535 138.912C155.864 138.034 156.577 136.278 157.51 134.194C160.143 128.214 164.368 119.326 164.368 119.326C164.368 119.326 162.832 103.964 166.508 98.8621C166.508 98.8621 166.508 96.503 169.69 95.4606C169.69 95.4606 172.378 93.2662 174.408 94.2537V106.488L179.565 96.4482C179.839 95.9544 180.333 95.6801 180.772 95.6801C181.156 95.6801 181.595 95.8447 181.869 96.2287C182.143 96.6128 182.253 97.1065 182.034 97.5454C181.101 99.9045 178.248 107.421 177.754 108.573C177.206 109.944 178.248 112.139 180.113 110.658C181.979 109.231 185.27 106.269 186.532 105.939C187.63 105.5 188.123 107.146 186.423 109.505Z" fill="#3636D6" stroke="black" stroke-width="2" stroke-miterlimit="10" stroke-linecap="round"/>
<path d="M186.423 109.505C184.722 111.865 176.054 122.727 174.298 122.727L169.854 140.393C164.807 141.71 160.308 137.705 157.455 134.139C160.089 128.159 164.313 119.271 164.313 119.271C164.313 119.271 162.777 103.909 166.453 98.8073C166.453 98.8073 166.453 96.4482 169.635 95.4058C169.635 95.4058 172.323 93.2113 174.353 94.1988V106.433L179.51 96.3933C179.784 95.8995 180.278 95.6252 180.717 95.6252C181.101 95.6252 181.54 95.7898 181.814 96.1739C182.088 96.5579 182.198 97.0517 181.979 97.4906C181.046 99.8496 178.193 107.366 177.699 108.518C177.151 109.889 178.193 112.084 180.059 110.603C181.924 109.176 185.216 106.214 186.477 105.885C187.63 105.5 188.123 107.146 186.423 109.505Z" fill="white" stroke="black" stroke-width="2" stroke-miterlimit="10" stroke-linecap="round"/>
<path d="M132.383 157.839L137.54 166.727L130.902 170.951L132.383 157.839Z" fill="#3636D6"/>
<path d="M140.942 165.465L158.443 159.814C158.443 159.814 174.079 140.228 174.682 139.241C175.285 138.199 179.126 137.54 179.729 138.144C180.333 138.747 179.62 139.954 178.468 140.887C177.315 141.819 173.42 147.58 173.42 147.58C173.42 147.58 180.278 151.091 180.552 154.273C180.827 157.455 181.814 164.807 175.944 164.807C175.944 164.807 173.53 165.52 173.64 162.941C173.64 162.941 170.293 168.592 169.086 168.592C167.879 168.592 165.026 168.592 165.026 168.592L143.081 180.497C143.026 180.497 136.223 174.847 140.942 165.465Z" fill="white" stroke="black" stroke-width="2" stroke-miterlimit="10"/>
<path d="M159.705 205.844C158.114 207.599 153.286 210.836 153.286 210.836C153.286 210.836 151.804 219.669 148.238 221.919C146.922 222.742 144.837 224.168 142.642 225.649C138.857 228.283 134.907 231.081 134.907 231.081L127.555 219.45L138.418 216.652L140.996 215.993C140.996 215.993 148.238 197.944 149.5 196.956C150.762 195.969 157.675 196.188 158.991 198.053C160.308 199.864 159.595 200.632 158.168 200.522C156.742 200.412 152.408 199.919 152.408 199.919L150.762 205.679C150.762 205.679 156.687 203.759 157.675 203.704C158.662 203.595 161.296 204.088 159.705 205.844Z" fill="#F74747" stroke="black" stroke-width="2" stroke-miterlimit="10"/>
<path d="M159.705 205.844C158.114 207.599 153.286 210.836 153.286 210.836C153.286 210.836 151.804 219.669 148.238 221.919C146.922 222.741 144.837 224.168 142.642 225.649C142.642 225.539 142.587 225.43 142.587 225.32C142.533 221.535 139.954 218.298 138.473 216.707L141.051 216.048C141.051 216.048 148.293 197.999 149.555 197.011C150.817 196.023 157.73 196.243 159.046 198.108C160.363 199.919 159.65 200.687 158.223 200.577C156.797 200.467 152.463 199.974 152.463 199.974L150.817 205.734C150.817 205.734 156.742 203.814 157.73 203.759C158.662 203.595 161.296 204.088 159.705 205.844Z" fill="white" stroke="black" stroke-width="2" stroke-miterlimit="10"/>
<path d="M98.6427 177.48L109.012 178.687C109.012 178.687 110.383 174.737 110.822 174.188C111.206 173.64 120.807 177.261 123.221 161.57C123.221 161.57 120.039 161.405 119.82 160.198C119.6 158.991 118.393 155.37 118.393 155.37L109.505 147.909L91.9495 168.099L98.6427 177.48Z" fill="white" stroke="black" stroke-width="2" stroke-miterlimit="10"/>
<path d="M84.7625 212.373C78.8922 212.373 66.3836 211.988 67.2614 200.467C67.81 196.024 70.608 193.884 74.1192 193.28C75.1616 193.28 71.1017 186.258 73.2414 183.076C75.381 179.894 79.386 179.345 81.3061 178.358C83.2263 177.425 88.932 171.829 88.8772 169.909C88.8223 167.989 86.7924 159.65 87.2313 157.565C87.6702 155.48 89.7001 144.892 97.6003 143.465C105.5 142.039 114.224 141.38 120.368 148.074C126.513 154.767 118.777 156.852 118.777 156.852C118.777 156.852 116.308 152.463 113.346 152.518C113.346 152.518 107.53 164.532 101.88 163.984L102.099 166.069C102.099 166.069 97.71 164.807 97.2711 166.014C96.8322 167.276 97.326 169.031 98.917 169.58C100.508 170.183 102.812 169.964 102.812 169.964L84.7625 212.373Z" fill="black" stroke="black" stroke-miterlimit="10"/>
<path d="M171.5 209.245L168.318 212.263L174.079 212.208C174.079 212.208 176.218 212.482 176.712 213.909C177.206 215.335 178.303 219.505 178.248 220.712C178.248 220.712 178.029 223.839 177.041 223.4C177.041 223.4 176.602 226.856 175.45 226.746C174.298 226.637 170.512 222.303 170.512 222.303C170.512 222.303 163.984 229.928 161.076 229.819C158.114 229.709 156.961 229.49 156.961 229.49L152.518 231.794L138.692 239.036C138.692 239.036 131.78 242.437 127.884 240.627C123.989 238.871 114.278 225.265 114.278 225.265C114.278 225.265 113.73 226.911 109.615 225.485L103.196 230.751L107.201 241.175L65.7252 240.791C65.7252 240.791 74.6129 228.557 75.2713 227.624C75.9296 226.692 74.1192 222.357 75.8199 219.669C77.5206 216.981 100.453 176.657 100.453 176.657L109.012 178.522C109.012 178.522 106.323 184.228 109.341 185.764C112.358 187.3 117.131 186.861 121.356 198.053C125.58 209.245 133.151 226.033 133.151 226.033L148.238 222.138L152.792 220.931C152.792 220.931 167.221 207.599 169.744 206.447C172.323 205.35 178.413 205.844 178.742 206.557C179.071 207.27 178.906 208.697 177.919 208.861C176.986 209.026 171.5 209.245 171.5 209.245Z" fill="#F74747" stroke="black" stroke-width="2" stroke-miterlimit="10"/>
<path d="M171.5 209.245L168.318 212.263L174.079 212.208C174.079 212.208 176.218 212.482 176.712 213.909C177.206 215.335 178.303 219.505 178.248 220.712C178.248 220.712 178.029 223.839 177.041 223.4C177.041 223.4 176.602 226.856 175.45 226.746C174.298 226.637 170.512 222.303 170.512 222.303C170.512 222.303 163.984 229.928 161.076 229.819C158.114 229.709 156.961 229.49 156.961 229.49L152.518 231.794C151.695 227.35 150.049 224.223 148.348 222.138L152.902 220.931C152.902 220.931 167.33 207.599 169.854 206.447C172.433 205.35 178.522 205.844 178.852 206.557C179.181 207.27 179.016 208.697 178.029 208.861C176.986 209.026 171.5 209.245 171.5 209.245Z" fill="white" stroke="black" stroke-width="2" stroke-miterlimit="10"/>
<path d="M125.745 97.6003C125.745 97.6003 127.391 92.937 132.383 93.8148" stroke="black" stroke-width="2" stroke-miterlimit="10" stroke-linecap="round" stroke-linejoin="round"/>
<path d="M130.847 103.361C130.847 103.361 131.286 106.269 135.73 105.336" stroke="black" stroke-width="2" stroke-miterlimit="10" stroke-linecap="round" stroke-linejoin="round"/>
<path d="M138.528 90.4682C138.528 90.4682 134.194 94.4731 138.528 98.4781" stroke="black" stroke-width="2" stroke-miterlimit="10" stroke-linecap="round" stroke-linejoin="round"/>
<path d="M131.725 100.782C132.573 100.782 133.261 99.8981 133.261 98.8073C133.261 97.7165 132.573 96.8322 131.725 96.8322C130.876 96.8322 130.189 97.7165 130.189 98.8073C130.189 99.8981 130.876 100.782 131.725 100.782Z" fill="black"/>
<path d="M115.211 155.7C115.211 155.7 113.456 153.505 111.096 154.822" stroke="black" stroke-width="2" stroke-miterlimit="10" stroke-linecap="round" stroke-linejoin="round"/>
<path d="M114.169 161.625C114.744 161.625 115.211 160.716 115.211 159.595C115.211 158.474 114.744 157.565 114.169 157.565C113.593 157.565 113.126 158.474 113.126 159.595C113.126 160.716 113.593 161.625 114.169 161.625Z" fill="black"/>
<path d="M117.735 167.111C117.735 167.111 113.401 165.685 113.126 164.094C112.852 162.557 113.126 168.537 115.431 169.525" stroke="black" stroke-width="2" stroke-miterlimit="10" stroke-linecap="round" stroke-linejoin="round"/>
<path d="M98.8621 167.44C98.8621 167.44 100.727 167.769 101.88 167.44" stroke="black" stroke-width="2" stroke-miterlimit="10" stroke-linecap="round" stroke-linejoin="round"/>
<path d="M106.433 129.256C106.433 129.256 118.777 131.615 122.563 138.912C126.348 146.263 137.595 165.794 137.595 165.794" stroke="black" stroke-width="2" stroke-miterlimit="10" stroke-linecap="round" stroke-linejoin="round"/>
<path d="M123.221 109.012C123.221 109.012 126.622 110.603 128.872 110.438" stroke="black" stroke-width="2" stroke-miterlimit="10" stroke-linecap="round" stroke-linejoin="round"/>
<path d="M164.203 220.273C164.203 220.273 169.744 217.804 170.512 218.188C171.226 218.572 176.822 224.442 176.822 224.442" stroke="black" stroke-width="2" stroke-miterlimit="10" stroke-linecap="round" stroke-linejoin="round"/>
<path d="M165.355 215.939L171.39 215.061C171.39 215.061 173.31 214.238 174.353 215.939C175.395 217.639 178.029 221.973 178.029 221.973" stroke="black" stroke-width="2" stroke-miterlimit="10" stroke-linecap="round" stroke-linejoin="round"/>
<path d="M170.677 151.42C170.677 151.42 178.522 150.323 180.717 156.413" stroke="black" stroke-width="2" stroke-miterlimit="10" stroke-linecap="round" stroke-linejoin="round"/>
<path d="M172.049 156.413C172.049 156.413 179.181 156.193 179.729 161.241" stroke="black" stroke-width="2" stroke-miterlimit="10" stroke-linecap="round" stroke-linejoin="round"/>
<path d="M169.744 106.982L170.677 94.5828" stroke="black" stroke-width="2" stroke-miterlimit="10" stroke-linecap="round" stroke-linejoin="round"/>
<path d="M166.562 107.75L166.946 97.1614" stroke="black" stroke-width="2" stroke-miterlimit="10" stroke-linecap="round" stroke-linejoin="round"/>
<path d="M138.198 133.7L136.223 147.525" stroke="black" stroke-width="2" stroke-miterlimit="10" stroke-linecap="round" stroke-linejoin="round"/>
<path d="M155.37 147.909L152.902 142.368" stroke="black" stroke-width="2" stroke-miterlimit="10" stroke-linecap="round" stroke-linejoin="round"/>
<path d="M120.149 171.61C120.149 171.61 129.421 181.43 131.999 182.857" stroke="black" stroke-width="2" stroke-miterlimit="10" stroke-linecap="round" stroke-linejoin="round"/>
<path d="M100.947 188.452C100.947 188.452 104.184 185.216 109.396 185.764" stroke="black" stroke-width="2" stroke-miterlimit="10" stroke-linecap="round" stroke-linejoin="round"/>
<path d="M101.88 210.233H105.171L114.224 225.265" stroke="black" stroke-width="2" stroke-miterlimit="10" stroke-linecap="round" stroke-linejoin="round"/>
</svg>
