<svg width="343" height="204" viewBox="0 0 343 204" fill="none" xmlns="http://www.w3.org/2000/svg">
<path d="M16.4819 146.436C16.4819 148.142 17.8961 149.557 19.6028 149.557L226.163 149.947C227.87 149.947 229.284 148.533 229.284 146.826C229.284 145.119 227.87 143.705 226.163 143.705L19.6028 143.315C17.8961 143.315 16.4819 144.729 16.4819 146.436Z" fill="#BBBFCB"/>
<path d="M100.403 149.703H82.8485V193.834H100.403V149.703Z" fill="#BBBFCB"/>
<path d="M88.6514 121.42L77.5821 137.415C77.5821 137.415 75.9242 141.023 76.4606 143.9H103.817H122.493V141.706H102.646C102.646 141.706 102.939 139.56 104.597 136.878C106.255 134.196 114.203 121.371 114.203 121.371L88.6514 121.42Z" fill="#A0A0A0"/>
<path d="M48.9094 114.008L45.2034 111.229C43.4967 109.912 42.4727 107.864 42.4727 105.719V53.3956C42.4727 51.2501 43.4967 49.202 45.2034 47.8854L48.9094 45.1059V114.008Z" fill="#AFAFAF"/>
<path d="M49.8359 32.9639C49.8359 32.9639 46.8614 32.5738 46.9589 36.5236C47.0564 40.4734 46.9589 120.152 46.9589 120.152C46.9589 120.152 46.1787 122.737 50.031 122.737C53.8833 122.737 144.973 122.542 144.973 122.542C144.973 122.542 147.85 121.762 147.85 118.69C147.85 115.617 147.947 50.6649 147.947 50.6649C147.947 50.6649 148.63 47.4953 144.485 47.0077C140.292 46.4713 49.8359 32.9639 49.8359 32.9639Z" fill="#CECECE"/>
<path d="M54.0784 36.9625C54.0784 36.9625 51.3964 36.6211 51.4939 40.1808C51.5915 43.7406 51.4939 115.471 51.4939 115.471C51.4939 115.471 50.7625 117.812 54.2734 117.812C57.7356 117.812 139.755 117.617 139.755 117.617C139.755 117.617 142.34 116.885 142.34 114.155C142.34 111.424 142.437 52.908 142.437 52.908C142.437 52.908 143.071 50.031 139.316 49.5921C135.562 49.1533 54.0784 36.9625 54.0784 36.9625Z" fill="white"/>
<path d="M54.5659 37.4501C54.5659 37.4501 51.884 37.1088 51.9815 40.6685C52.079 44.2282 51.9815 115.959 51.9815 115.959C51.9815 115.959 51.25 118.299 54.761 118.299C58.2232 118.299 140.243 118.104 140.243 118.104C140.243 118.104 142.827 117.373 142.827 114.642C142.827 111.911 142.925 53.3957 142.925 53.3957C142.925 53.3957 143.559 50.5186 139.804 50.0798C136.049 49.6409 54.5659 37.4501 54.5659 37.4501Z" fill="#032A70"/>
<path d="M219.434 56.9554C219.434 56.9554 241.475 92.4549 250.447 142.779" stroke="#00662C" stroke-width="3" stroke-miterlimit="10" stroke-linecap="round"/>
<path d="M259.956 71.9744C259.956 71.9744 248.497 136.391 249.228 147.07" stroke="#00662C" stroke-width="3" stroke-miterlimit="10" stroke-linecap="round"/>
<path d="M218.605 94.8443C218.605 94.8443 243.621 109.668 250.057 143.412" stroke="#00662C" stroke-width="3" stroke-miterlimit="10" stroke-linecap="round"/>
<path d="M260.98 37.9865C252.496 34.4268 244.303 46.0812 244.303 46.0812C244.303 46.0812 255.714 41.1073 256.836 45.2034C257.957 49.2508 250.691 51.055 248.302 51.8352C245.913 52.6154 237.33 60.6614 239.72 69.585C239.72 69.585 250.691 56.614 254.69 56.7603C258.689 56.9066 241.817 71.243 241.817 71.243C241.817 71.243 240.207 73.4861 240.792 76.5094C241.378 79.5327 241.914 80.5567 241.914 80.5567C241.914 80.5567 254.836 65.4401 256.641 64.9525C258.445 64.4161 260.98 63.1483 261.322 64.7575C261.663 66.3667 249.18 76.0705 247.522 77.8748C245.864 79.679 241.183 83.6288 243.133 88.5539C245.084 93.479 246.108 93.6253 246.449 92.7963C246.79 91.9673 251.228 79.1914 257.616 75.2903C264.004 71.438 263.662 77.2408 262.151 77.826C260.639 78.4599 249.326 85.7744 249.911 90.4069C250.496 95.0394 251.423 96.5023 252.544 95.527C253.666 94.6005 255.519 89.4316 257.079 89.0903C258.64 88.7489 259.225 90.6019 258.396 92.4549C257.567 94.3079 255.616 97.185 257.567 99.7694C259.518 102.354 262.638 106.352 262.833 107.328C263.028 108.254 264.491 107.718 265.857 106.255C267.271 104.792 269.27 104.987 272.147 102.939C275.073 100.891 277.95 99.038 275.317 96.0146C272.684 92.9913 266.344 85.4818 269.855 80.8493C273.366 76.168 276.585 85.8231 276.975 88.8952C277.365 91.9185 278.877 98.7941 278.877 98.7941L288.239 91.9185C288.239 91.9185 289.751 90.0168 287.849 88.0663C285.996 86.1645 276.292 75.3878 276.828 72.7546C277.365 70.1214 282.29 73.3885 282.534 73.5836C282.778 73.7786 290.677 80.3617 291.604 84.0189C292.53 87.6761 293.067 90.8945 293.067 90.8945C293.067 90.8945 300.625 81.1906 300.674 79.679C300.722 78.1673 301.112 73.8762 298.577 71.9256C296.041 69.9751 283.753 60.7589 277.121 60.0274C270.489 59.3448 280.437 57.443 283.021 58.272C285.606 59.1497 302.039 67.732 303.112 68.8536C304.185 70.0239 304.331 67.0981 303.794 62.6607C303.258 58.2232 303.258 54.4197 299.357 53.9808C295.456 53.5419 281.461 53.3469 281.461 53.3469C281.461 53.3469 278.876 51.884 280.534 50.6649C282.192 49.4458 291.701 47.349 294.334 47.7879C296.968 48.2268 299.113 49.3971 299.113 49.3971C299.113 49.3971 296.968 44.5208 295.017 43.3017C293.115 42.1314 287.459 41.2049 283.85 44.4232C280.242 47.6416 276.097 49.9335 277.121 46.8614C278.145 43.7893 281.461 42.0826 284.192 41.5462C286.922 41.0098 283.314 39.7907 283.314 39.7907C283.314 39.7907 279.998 37.7914 279.657 37.4989C279.364 37.2551 273.854 36.1823 273.756 38.3278C273.659 40.4734 270.343 50.5674 269.612 50.86C268.88 51.1525 265.857 52.3229 266.539 48.8607C267.954 42.1801 260.98 37.9865 260.98 37.9865Z" fill="#55AE2D"/>
<path d="M165.063 38.1328C165.063 38.1328 169.891 35.1582 172.183 34.2317C174.475 33.3052 177.254 30.5745 181.984 33.7929C186.763 37.06 190.664 39.5469 189.884 36.0847C189.103 32.6226 181.106 26.966 179.887 27.0148C178.668 27.0636 175.742 26.2346 180.034 25.3568C184.325 24.5279 188.47 21.212 194.37 29.0141C200.27 36.8162 202.416 43.643 203.732 43.0579C205.049 42.5215 205.342 34.9144 202.416 30.672C199.49 26.3809 192.419 21.9922 193.248 20.9682C194.077 19.9441 203.732 19.1639 206.512 21.5046C209.291 23.8452 211.778 28.2826 212.997 34.7194C214.216 41.1561 215.241 45.2034 215.533 44.1307C215.777 43.0091 217.484 32.4275 215.874 29.0141C214.265 25.6007 209.877 20.383 210.706 19.7491C211.535 19.1152 219.727 21.9922 220.751 24.2353C221.775 26.4784 222.994 37.4013 221.921 40.1808C220.848 42.9603 223.725 44.8621 225.091 40.8635C226.505 36.8649 226.115 29.5992 225.968 28.4777C225.822 27.3561 229.236 28.5264 230.552 30.9158C231.869 33.3052 240.11 50.86 221.677 58.1744C221.677 58.1744 222.945 71.7306 214.216 74.315C205.488 76.8995 197.149 69.9751 197.978 69.2437C198.807 68.5122 204.025 65.0988 203.781 64.2698C203.537 63.4409 202.318 62.5631 200.563 63.4896C198.807 64.4161 189.055 67.4882 185.788 64.8062C182.472 62.1243 179.595 58.1257 180.619 57.9306C181.643 57.7356 191.493 57.0041 194.077 56.2239C196.662 55.4437 200.417 52.6642 198.661 52.3716C196.906 52.079 193.687 52.3229 190.956 53.3956C188.226 54.4684 181.399 57.1017 177.693 54.2246C173.987 51.3476 170.671 48.0805 171.402 47.8367C172.134 47.5928 178.083 48.5193 180.716 48.178C183.349 47.8367 189.835 48.6656 191.249 47.9829C192.663 47.349 192.029 44.1307 189.201 44.472C186.373 44.8621 169.257 45.9349 165.063 38.1328Z" fill="#5AAB2C"/>
<path d="M186.226 83.1899C186.226 83.1899 201.099 85.8231 201.879 87.4323C202.66 89.0415 201.928 90.3581 199.295 90.3581C196.613 90.3581 185.251 86.6521 184.227 87.3836C183.203 88.115 178.229 99.9645 179.058 100.306C179.887 100.647 194.175 91.3821 198.466 97.0874C198.466 97.0874 183.935 99.8182 183.398 100.452C182.862 101.037 179.205 106.109 181.058 110.4C182.911 114.691 184.178 116.641 184.178 116.641C184.178 116.641 187.055 104.938 194.077 102.646C201.099 100.355 206.024 99.5256 204.464 102.013C202.903 104.499 187.494 110.449 186.958 117.909L192.663 121.859C192.663 121.859 194.614 112.448 202.465 111.034C202.465 111.034 203.879 113.033 201.684 115.52C199.49 118.007 197.783 120.201 202.611 123.468C207.438 126.735 208.121 127.564 208.121 127.564C208.121 127.564 211.681 118.641 218.118 117.714C218.118 117.714 210.901 111.765 210.657 110.546C210.413 109.327 211.437 108.498 213.046 109.229C214.607 109.961 220.214 116.495 220.214 116.495L224.457 112.643L215.241 105.28C215.241 105.28 214.265 104.109 215.484 103.866C216.703 103.622 225.725 108.644 226.407 111.082C227.09 113.521 232.015 107.474 232.015 107.474C232.015 107.474 226.31 101.135 217.971 99.7694C217.971 99.7694 216.508 97.7214 219.385 96.5998C222.262 95.4783 230.942 96.2585 232.942 100.013L237.672 91.0896C237.672 91.0896 230.26 87.4811 222.994 90.6019C222.994 90.6019 225.383 84.3115 232.893 85.7256C232.893 85.7256 227.48 80.3617 223.14 82.2147C218.8 84.0677 216.362 91.7235 215.679 92.2111C215.045 92.6988 212.559 93.9666 211.876 90.1143C211.193 86.262 205.293 77.5334 198.027 78.8013C190.761 80.0691 186.226 83.1899 186.226 83.1899Z" fill="#5AAB2C"/>
<path d="M166.526 38.3279C166.526 38.3279 183.593 41.1074 189.201 41.8388C194.76 42.5702 217.63 51.0063 221.726 58.1745" stroke="#309A32" stroke-miterlimit="10" stroke-linecap="round"/>
<path d="M185.983 25.6494C185.983 25.6494 193.882 31.7936 196.028 43.2042" stroke="#309A32" stroke-miterlimit="10" stroke-linecap="round"/>
<path d="M178.034 51.884C178.034 51.884 195.101 51.6402 201.879 46.325" stroke="#309A32" stroke-miterlimit="10" stroke-linecap="round"/>
<path d="M200.904 21.0169C200.904 21.0169 212.071 41.4975 209.633 48.5194" stroke="#309A32" stroke-miterlimit="10" stroke-linecap="round"/>
<path d="M184.91 60.8077C184.91 60.8077 203.586 60.7101 211.778 50.3723" stroke="#309A32" stroke-miterlimit="10" stroke-linecap="round"/>
<path d="M217.386 22.8699C217.386 22.8699 220.653 42.3264 215.972 53.2493C215.972 53.2493 218.166 67.9271 207.146 70.6578" stroke="#309A32" stroke-miterlimit="10" stroke-linecap="round"/>
<path d="M218.8 54.7123C218.8 54.7123 234.551 47.0564 231.089 33.1589" stroke="#309A32" stroke-miterlimit="10" stroke-linecap="round"/>
<path d="M194.906 79.4352C194.906 79.4352 208.755 82.8973 211.632 95.8196" stroke="#309A32" stroke-miterlimit="10" stroke-linecap="round"/>
<path d="M181.643 92.6012C181.643 92.6012 206.219 87.9687 209.925 97.6238" stroke="#309A32" stroke-miterlimit="10" stroke-linecap="round"/>
<path d="M208.17 127.564C208.17 127.564 203.294 104.89 213.241 92.65" stroke="#309A32" stroke-miterlimit="10" stroke-linecap="round"/>
<path d="M235.038 95.2832C235.038 95.2832 219.775 88.7977 209.925 97.6238" stroke="#309A32" stroke-miterlimit="10" stroke-linecap="round"/>
<path d="M181.155 109.863C181.155 109.863 194.565 95.2832 208.804 100.501" stroke="#309A32" stroke-miterlimit="10" stroke-linecap="round"/>
<path d="M189.396 119.47C189.396 119.47 196.662 107.425 207.585 106.157" stroke="#309A32" stroke-miterlimit="10" stroke-linecap="round"/>
<path d="M208.657 102.208C208.657 102.208 220.068 97.5263 229.723 109.473" stroke="#309A32" stroke-miterlimit="10" stroke-linecap="round"/>
<path d="M207.877 104.89C207.877 104.89 217.337 105.133 222.067 114.203" stroke="#309A32" stroke-miterlimit="10" stroke-linecap="round"/>
<path d="M269.66 50.86L262.833 107.376" stroke="#309A32" stroke-miterlimit="10" stroke-linecap="round"/>
<path d="M269.075 53.9808C247.814 44.3257 239.768 69.5363 239.768 69.5363" stroke="#309A32" stroke-miterlimit="10" stroke-linecap="round"/>
<path d="M280.973 38.3279L269.416 53.9321" stroke="#309A32" stroke-miterlimit="10" stroke-linecap="round"/>
<path d="M295.748 44.9109C295.748 44.9109 272.049 49.3483 269.221 55.5412" stroke="#309A32" stroke-miterlimit="10" stroke-linecap="round"/>
<path d="M240.792 77.3871C240.792 77.3871 258.64 54.8098 268.636 57.4918" stroke="#309A32" stroke-miterlimit="10" stroke-linecap="round"/>
<path d="M303.794 64.4649C303.794 64.4649 279.9 48.3243 268.782 56.614" stroke="#309A32" stroke-miterlimit="10" stroke-linecap="round"/>
<path d="M268.344 62.2705C268.344 62.2705 291.896 67.537 298.625 83.3362" stroke="#309A32" stroke-miterlimit="10" stroke-linecap="round"/>
<path d="M267.124 68.6585C267.124 68.6585 245.327 76.997 243.133 88.5539" stroke="#309A32" stroke-miterlimit="10" stroke-linecap="round"/>
<path d="M250.447 93.1376C250.447 93.1376 261.078 79.679 265.905 81.1906" stroke="#309A32" stroke-miterlimit="10" stroke-linecap="round"/>
<path d="M267.222 72.6083C267.222 72.6083 276.731 76.802 283.46 94.9906" stroke="#309A32" stroke-miterlimit="10" stroke-linecap="round"/>
<path d="M264.54 91.6259C264.54 91.6259 269.465 93.8203 271.123 103.719" stroke="#309A32" stroke-miterlimit="10" stroke-linecap="round"/>
<path d="M240.792 84.8967C240.792 84.8967 242.06 67.1956 258.884 64.855C275.707 62.5144 311.304 70.8041 311.304 70.8041C311.304 70.8041 322.373 73.3398 313.84 98.0627C305.355 122.834 289.848 194.077 289.848 194.077L228.504 192.956L213.144 161.309C213.144 161.309 239.963 93.1864 240.792 84.8967Z" fill="#441C0C"/>
<path d="M173.792 168.818C173.792 168.818 177.498 153.311 189.299 151.8C201.148 150.337 222.457 151.41 222.457 151.41L221.97 158.188L203.635 158.675L173.792 168.818Z" fill="#441C0C"/>
<path d="M251.276 71.1454C251.276 71.1454 252.252 76.997 252.203 80.2642C252.154 83.58 251.813 90.4556 253.861 94.5518C255.909 98.6479 254.982 101.232 257.567 100.257C260.151 99.2818 275.999 85.433 277.657 81.8246C279.315 78.2649 278.145 75.2415 277.804 75.1928C277.462 75.144 275.707 74.12 275.268 71.7306C274.829 69.3412 273.025 59.0034 273.951 57.443C274.878 55.9313 251.276 71.1454 251.276 71.1454Z" fill="#F2B98B"/>
<path d="M230.113 134.05C227.578 136.488 211.096 144.29 211.096 144.29H201.977C190.908 141.754 197.052 117.519 197.881 111.716C198.71 105.962 202.757 83.2387 202.806 79.1426C202.903 75.0465 197.686 75.5341 193.59 75.4854C189.494 75.3878 187.153 72.1207 187.153 72.1207C187.153 72.1207 183.057 64.1723 182.374 62.0755C181.692 59.9787 182.716 58.467 182.716 58.467C182.716 58.467 182.228 56.614 183.496 55.6388C184.13 55.1024 185.495 56.2727 185.495 56.2727L191.981 63.7335C191.981 60.6614 194.906 61.7829 195.296 62.3193C195.638 62.807 195.101 67.3907 202.27 68.6098C202.806 68.7073 203.342 68.7561 203.976 68.8048C212.9 69.585 211.973 82.1172 211.973 85.7256C211.973 88.4564 212.559 103.134 212.851 110.058C212.949 112.253 212.997 113.667 212.997 113.667L214.948 112.106L224.603 115.569L232.21 118.299C232.21 118.299 232.649 131.612 230.113 134.05Z" fill="#FFC998"/>
<path d="M202.27 68.561C202.221 68.561 202.221 68.561 202.172 68.561C194.272 70.3652 192.127 64.026 192.127 64.026L192.029 63.6359C192.029 60.5638 194.955 61.6854 195.345 62.2218C195.687 62.7582 195.101 67.3419 202.27 68.561Z" fill="#E46325"/>
<path d="M224.652 115.569C220.117 121.615 214.07 132.441 214.07 132.441L212.754 110.058C212.754 110.058 212.802 110.058 212.851 110.058C212.949 112.253 212.997 113.667 212.997 113.667L214.948 112.107L224.652 115.569Z" fill="#E5A57A"/>
<path d="M328.273 135.903C328.273 135.903 321.885 134.684 316.424 135.074C314.035 135.269 311.791 135.757 310.377 136.781L295.992 139.902C295.992 139.902 295.846 140.292 295.553 141.023C292.823 148.24 277.804 187.397 270.538 193.2L211.729 162.138C211.729 162.138 229.089 140.974 229.967 132.831C229.967 132.831 231.186 124.395 230.162 121.567C230.162 121.567 228.065 118.787 224.505 116.446C221.628 114.545 217.776 112.984 213.339 113.423C213.339 113.423 219.532 102.646 221.141 98.5504C222.75 94.4542 226.066 88.5539 230.942 86.262C235.867 83.9702 251.959 76.7532 251.959 76.7532C251.959 76.7532 252.886 84.3603 253.324 86.067C253.715 87.7737 256.348 96.161 256.494 97.1362C256.64 98.1115 257.421 98.1115 260.493 95.7221C263.516 93.3327 271.367 87.5786 273.171 85.3843C274.975 83.19 277.999 79.0451 277.023 74.9002C277.023 74.9002 277.999 74.5589 282.192 75.973C286.386 77.3384 303.502 84.5066 307.647 87.6762C311.743 90.8458 317.936 98.014 322.227 111.131C326.518 124.249 328.176 133.855 328.273 134.83C328.273 135.903 328.273 135.903 328.273 135.903Z" fill="#597EF7"/>
<path d="M301.259 126.687C299.162 126.248 298.382 125.565 297.163 124.541C295.748 123.371 293.993 121.859 290.238 121.079C286.483 120.299 284.289 120.981 282.534 121.518C281.022 122.005 279.998 122.298 277.901 121.859C275.804 121.42 275.024 120.738 273.805 119.714C272.391 118.543 270.635 117.032 266.881 116.251C263.126 115.471 260.932 116.154 259.176 116.69C257.664 117.178 256.64 117.47 254.544 117.032C252.447 116.593 251.667 115.91 250.447 114.886C249.033 113.716 247.278 112.204 243.523 111.424C239.768 110.644 237.574 111.326 235.819 111.863C234.307 112.35 233.283 112.643 231.186 112.204L230.552 115.422C234.307 116.203 236.501 115.52 238.257 114.984C239.768 114.496 240.792 114.203 242.889 114.642C244.986 115.081 245.766 115.764 246.985 116.788C248.399 117.958 250.155 119.47 253.91 120.25C257.664 121.03 259.859 120.347 261.614 119.811C263.126 119.323 264.15 119.031 266.247 119.47C268.344 119.909 269.124 120.591 270.343 121.615C271.757 122.786 273.512 124.297 277.267 125.077C281.022 125.858 283.216 125.175 284.972 124.639C286.483 124.151 287.508 123.858 289.604 124.297C291.701 124.736 292.481 125.419 293.7 126.443C295.115 127.613 296.87 129.125 300.625 129.905" fill="#00C3FF"/>
<path d="M300.722 133.709C298.626 133.27 297.845 132.587 296.626 131.563C295.212 130.393 293.457 128.881 289.702 128.101C285.947 127.321 283.753 128.003 281.997 128.54C280.486 129.027 279.462 129.32 277.365 128.881C275.268 128.442 274.488 127.759 273.269 126.735C271.855 125.565 270.099 124.053 266.344 123.273C262.59 122.493 260.395 123.176 258.64 123.712C257.128 124.2 256.104 124.492 254.007 124.053C251.91 123.615 251.13 122.932 249.911 121.908C248.497 120.738 246.742 119.226 242.987 118.446C239.232 117.665 237.038 118.348 235.282 118.885C233.771 119.372 231.869 119.567 230.211 119.275V121.518C233.527 122.2 235.965 122.542 237.72 122.005C239.232 121.518 240.256 121.225 242.353 121.664C244.45 122.103 245.23 122.786 246.449 123.81C247.863 124.98 249.619 126.492 253.373 127.272C257.128 128.052 259.322 127.369 261.078 126.833C262.59 126.345 263.614 126.053 265.71 126.492C267.807 126.93 268.587 127.613 269.806 128.637C271.221 129.808 272.976 131.319 276.731 132.099C280.486 132.88 282.68 132.197 284.435 131.661C285.947 131.173 286.971 130.88 289.068 131.319C291.165 131.758 291.945 132.441 293.164 133.465C294.578 134.635 296.334 136.147 300.088 136.927" fill="white"/>
<path d="M230.162 121.567C230.162 121.567 228.065 118.787 224.505 116.446C227.041 111.765 229.967 105.914 230.113 103.573C230.357 99.4281 235.136 93.1376 235.136 93.1376C235.136 93.1376 229.674 114.691 230.162 121.567Z" fill="#4C73E0"/>
<path d="M318.326 137.268C315.156 136.829 297.016 140.73 295.553 141.023C295.846 140.292 295.992 139.901 295.992 139.901L310.377 136.781C311.792 135.757 314.035 135.269 316.424 135.074C318.57 136.927 320.179 137.512 318.326 137.268Z" fill="#4C73E0"/>
<path d="M316.424 135.074C314.035 135.269 311.791 135.757 310.377 136.781L295.992 139.901C295.992 139.901 295.846 140.292 295.553 141.023C295.505 141.023 295.456 141.023 295.456 141.023L308.037 106.791C313.011 96.2097 311.84 105.719 309.402 112.106C306.964 118.446 309.548 120.591 311.694 128.003C312.62 131.319 314.717 133.611 316.424 135.074Z" fill="#4C73E0"/>
<path d="M250.935 170.72C247.083 170.671 245.132 162.43 253.959 155.798C262.785 149.166 270.148 150.581 270.148 150.581L292.628 151.068L289.848 159.358L268.392 159.602C268.392 159.602 261.273 159.846 259.761 163.21C258.201 166.575 256.933 170.769 250.935 170.72Z" fill="#441C0C"/>
<path d="M133.66 193.297C133.66 193.297 164.722 171.451 174.913 166.429C185.056 161.406 196.711 153.165 212.315 160.967C227.919 168.769 270.538 193.2 270.538 193.2L205.585 192.956C205.585 192.956 200.953 184.715 198.32 185.3C195.687 185.885 175.352 192.956 175.352 192.956L133.66 193.297Z" fill="#4F5C93"/>
<path d="M329.346 157.798C328.956 162.966 325.104 172.329 322.519 173.694C319.935 175.06 315.888 174.523 312.133 171.939C308.378 169.354 300.088 162.381 296.968 146.289C293.847 130.198 284.923 115.374 282.631 114.301C282.631 114.301 280.242 121.03 277.755 121.225C275.268 121.42 264.491 120.591 264.589 116.154C264.686 111.765 266.442 108.986 266.442 108.986C266.442 108.986 264.15 107.718 261.858 108.791C259.566 109.912 253.568 111.277 253.568 111.277C253.568 111.277 249.082 109.815 254.105 107.474C254.105 107.474 265.857 103.232 268.587 102.744C271.318 102.256 281.461 98.3553 291.555 109.229C298.43 116.641 304.721 126.784 307.988 132.489C309.5 135.123 310.426 136.829 310.426 136.829C310.426 136.829 310.475 136.781 310.621 136.634C311.255 136.147 313.498 134.733 318.521 134.684C321.057 134.684 324.226 134.976 328.273 135.903C328.273 135.903 329.688 152.629 329.346 157.798Z" fill="#FFC998"/>
<path d="M318.521 134.635C318.033 140.877 318.033 154.53 316.473 150.191C315.351 147.118 312.621 141.023 310.621 136.586C311.206 136.098 313.45 134.684 318.521 134.635Z" fill="#E5A57A"/>
<path d="M276.048 53.3469C275.512 55.9801 274.829 58.1744 274.049 59.9787C270.977 67.0493 266.393 68.4635 264.881 69.4875C262.98 70.8041 259.274 71.7306 253.958 72.6083C248.643 73.4861 247.619 69.2437 247.619 69.2437C247.619 69.2437 247.375 68.2197 246.985 66.708C246.4 64.3674 245.522 60.9052 244.742 57.9306C243.426 53.0056 242.694 47.7391 243.279 45.7886C243.865 43.8868 243.865 42.0338 243.865 41.1073C243.865 40.1808 243.572 29.7943 243.572 29.7943C243.669 28.9653 244.255 28.2826 245.181 27.6975C251.374 23.8452 273.22 25.5031 275.366 26.4784C275.414 26.4784 275.463 26.5272 275.512 26.5759C277.901 28.0388 278.584 40.5709 276.048 53.3469Z" fill="#FFC998"/>
<path d="M262.833 27.8926C262.833 27.8926 258.347 33.159 254.397 33.9392C250.448 34.7194 247.473 34.4756 247.375 37.1088C247.278 39.742 246.059 48.8607 246.498 51.2013C246.937 53.4932 248.156 64.6112 247.912 65.2451C247.863 65.4402 247.473 66.0253 246.985 66.6593C246.4 64.3186 245.522 60.8564 244.742 57.8819C243.426 52.9568 242.694 47.6904 243.279 45.7399C243.865 43.8381 243.865 41.9851 243.865 41.0586C243.865 40.1321 243.572 29.7456 243.572 29.7456C243.669 28.9166 244.255 28.2339 245.181 27.6487L262.833 27.8926Z" fill="#F2B98B"/>
<path d="M276.048 53.3469C275.512 55.9801 274.829 58.1744 274.049 59.9787C273.805 59.7349 273.561 59.4911 273.366 59.1985C268.49 51.6889 274.634 43.5943 274.634 43.5943C276.243 37.4013 271.367 30.5745 271.367 30.5745L275.512 26.4784C277.901 28.0388 278.584 40.5709 276.048 53.3469Z" fill="#F2B98B"/>
<path d="M247.473 12.971C242.06 14.4339 236.355 21.3583 242.109 29.4042C242.109 29.4042 240.354 37.06 243.718 38.9618C243.718 38.9618 243.913 31.6961 244.498 31.1109C245.084 30.5257 250.155 35.6459 258.006 30.9646C265.857 26.2833 267.661 29.9406 267.661 29.9406C267.661 29.9406 263.76 29.9893 261.175 31.8911C258.591 33.7929 257.031 34.0367 257.031 34.0367C257.031 34.0367 260.639 34.1342 262.346 32.8176C264.053 31.501 276.195 25.0643 275.756 45.2034L275.366 55.6875C275.366 55.6875 284.631 41.6437 285.265 35.207C285.898 28.7703 287.069 11.8982 264.638 14.2389C264.638 14.2389 261.029 15.0191 260.737 15.2629C260.444 15.5067 259.42 16.8721 257.713 16.7258C255.958 16.482 252.301 11.6544 247.473 12.971Z" fill="#263367"/>
<path d="M207.78 158.675C207.78 158.675 201.587 144.388 212.705 139.073C223.823 133.757 231.089 135.513 238.208 116.251C245.327 96.9899 265.272 88.1638 266.539 86.9447C267.807 85.7256 278.194 82.0684 278.389 59.6861" stroke="black" stroke-width="2" stroke-miterlimit="10" stroke-linecap="round"/>
<path d="M244.694 59.5886C244.694 59.5886 241.768 66.9518 238.793 69.1949C235.819 71.438 231.43 76.9483 236.209 83.385C240.988 89.8218 246.547 97.185 243.036 106.157" stroke="black" stroke-width="2" stroke-miterlimit="10" stroke-linecap="round"/>
<path d="M258.981 67.1469C258.981 67.1469 269.368 66.8543 275.268 58.0769" stroke="black" stroke-width="2" stroke-miterlimit="10" stroke-linecap="round"/>
<path d="M256.251 70.3054C258.449 70.0933 260.103 68.5958 259.946 66.9605C259.788 65.3253 257.878 64.1716 255.68 64.3837C253.481 64.5958 251.827 66.0934 251.985 67.7286C252.143 69.3639 254.053 70.5175 256.251 70.3054Z" fill="#3C322D"/>
<path d="M283.476 52.8338C284.834 48.2648 283.654 43.8827 280.841 43.0461C278.027 42.2095 274.645 45.2351 273.286 49.8041C271.928 54.3731 273.107 58.7552 275.921 59.5918C278.735 60.4285 282.117 57.4028 283.476 52.8338Z" fill="#FFFFFD"/>
<path d="M260.59 15.2141C260.59 15.2141 282.192 16.0918 277.804 43.7405L281.558 44.472C281.558 44.472 284.874 14.4339 264.491 14.1901L260.59 15.2141Z" fill="#FFFFFD"/>
<path d="M282.358 52.3285C283.263 49.2825 282.596 46.3963 280.866 45.8821C279.137 45.3678 277 47.4202 276.095 50.4662C275.189 53.5122 275.857 56.3984 277.586 56.9126C279.316 57.4269 281.452 55.3745 282.358 52.3285Z" fill="#EFEEEC"/>
<path d="M256.835 42.0826C256.835 42.0826 262.346 39.7907 264.979 44.5695" stroke="black" stroke-width="2" stroke-miterlimit="10" stroke-linecap="round"/>
<path d="M244.693 40.8635C244.693 40.8635 248.448 38.7667 250.643 41.79" stroke="black" stroke-width="2" stroke-miterlimit="10" stroke-linecap="round"/>
<path d="M251.764 43.2042C251.764 43.2042 253.227 43.3017 252.154 47.7879C251.033 52.2741 248.107 53.6395 249.131 54.8586C250.155 56.0289 252.447 56.2239 252.447 56.2239" stroke="black" stroke-width="1.5" stroke-miterlimit="10" stroke-linecap="round"/>
<path d="M251.813 63.002C248.985 62.6607 248.253 58.9547 248.253 58.9547L257.128 59.2472C257.177 59.2472 255.519 63.4409 251.813 63.002Z" fill="#FAFBFF"/>
<path d="M260.251 46.8805C260.495 46.0258 260.209 45.1954 259.613 45.0259C259.017 44.8563 258.337 45.4118 258.094 46.2666C257.851 47.1214 258.136 47.9518 258.732 48.1213C259.328 48.2908 260.008 47.7353 260.251 46.8805Z" fill="#3C322D"/>
<path d="M247.465 45.3643C247.708 44.5095 247.423 43.6791 246.827 43.5096C246.231 43.3401 245.551 43.8956 245.308 44.7504C245.064 45.6051 245.35 46.4355 245.946 46.605C246.542 46.7746 247.222 46.2191 247.465 45.3643Z" fill="#3C322D"/>
<path d="M56.1264 43.0091L55.9314 75.2903L95.4295 78.4112L94.9907 47.983L56.1264 43.0091Z" fill="#3372FF"/>
<path d="M79.6302 58.8084C79.6302 58.8084 80.3129 57.7356 80.9955 57.7356C81.6782 57.6868 82.0196 58.7108 81.6782 59.9299C81.3369 61.1978 79.3864 63.002 79.3864 63.002L79.6302 58.8084Z" fill="#FB5A41"/>
<path d="M69.1461 57.248C69.1461 57.248 67.5369 55.8338 67.1468 57.2967C66.7567 58.7596 67.4881 61.8804 69.5362 62.2218L69.1461 57.248Z" fill="#FB5A41"/>
<path d="M69.6824 64.5137C69.6824 64.5137 70.999 67.7808 68.9022 71.6331L72.3644 76.8995L77.9234 76.2656L79.5813 70.1702C79.5813 70.1702 78.3623 66.8543 78.6061 65.05L69.6824 64.5137Z" fill="#E46325"/>
<path d="M57.1016 87.6762C57.1016 87.6762 57.638 81.6783 61.1001 79.1914C64.5623 76.802 68.9022 71.8769 69.2923 70.9992C69.2923 70.9992 71.1453 75.973 74.8513 75.2903C78.5573 74.6564 79.6301 70.1702 79.6301 70.1702C79.6301 70.1702 81.2393 71.1942 82.6534 71.6331C84.0676 72.0232 89.4803 74.12 90.0167 74.5589C90.5531 74.949 93.0887 77.5822 94.5516 82.8974L57.1016 87.6762Z" fill="#DEAF33"/>
<path d="M68.9511 58.3695C68.9511 58.3695 66.4154 49.7384 70.3164 47.5928C74.2175 45.5936 76.8507 47.0564 78.1673 48.2268C79.4839 49.3971 81.727 54.566 79.874 58.8571C78.0698 63.2946 68.9511 58.3695 68.9511 58.3695Z" fill="#3C322D"/>
<path d="M70.7064 50.2748C69.8287 50.86 68.8047 57.0529 69.0485 59.5886C69.2923 62.0755 70.0725 70.1702 74.6075 70.3164C76.5093 70.3164 79.1425 66.5129 79.5813 62.0755C80.069 57.6868 79.9714 51.8352 77.9722 50.4699C76.9969 50.2748 76.1192 50.9575 75.5828 51.0063C75.0464 51.1038 71.0478 50.0798 70.7064 50.2748Z" fill="#F1844F"/>
<path d="M74.1687 62.6607C73.1447 62.8069 71.633 63.0508 70.6577 64.7087C70.6577 64.7087 69.3899 63.6847 69.1461 61.2465C69.1461 61.2465 68.7072 62.7582 69.4874 65.0988C70.2676 67.3907 71.9256 70.6578 74.5588 70.5115C75.4365 70.5603 79.2888 69.6338 79.4839 62.9045C79.4839 62.9045 78.8987 64.5624 78.5086 64.8062C78.5086 64.8062 76.6556 62.3193 74.1687 62.6607Z" fill="#B55934"/>
<path d="M74.5101 63.7335C73.6324 63.6847 72.5108 63.4409 72.2182 64.4649C71.9256 65.4889 72.2182 67.7808 74.315 67.6345L74.7051 67.0981L75.0465 67.6345C75.0465 67.6345 76.2168 68.0246 76.9482 66.0741C77.6797 64.1723 76.168 63.7822 76.168 63.7822L74.5101 63.7335Z" fill="#F1844F"/>
<path d="M74.6075 65.3914C73.4372 65.4402 72.8521 64.3674 72.8521 64.3674C72.8521 64.3674 72.9496 64.1723 73.8273 64.3186C74.705 64.4161 75.9241 64.3674 75.9241 64.3674C75.9241 64.3674 76.4118 64.2698 76.363 64.4649C76.3142 64.6599 76.1192 65.2939 74.6075 65.3914Z" fill="#FAFBFF"/>
<path d="M69.9751 56.7603C69.9751 56.7603 71.3405 55.1511 72.5596 56.5653" stroke="black" stroke-width="0.593" stroke-miterlimit="10" stroke-linecap="round"/>
<path d="M76.1191 56.9554C76.1191 56.9554 77.4357 54.8098 78.7523 56.9554" stroke="black" stroke-width="0.593" stroke-miterlimit="10" stroke-linecap="round"/>
<path d="M71.9257 58.3207C71.9257 58.7109 71.7306 58.9547 71.5356 58.9547C71.3405 58.9547 71.1942 58.6133 71.1942 58.272C71.1942 57.8819 71.3893 57.6381 71.5843 57.6381C71.7794 57.6381 71.9744 57.9794 71.9257 58.3207Z" fill="#3C322D"/>
<path d="M77.3383 58.5158C77.3383 58.8571 77.1432 59.1497 76.9482 59.1497C76.7531 59.1497 76.6068 58.8571 76.6068 58.467C76.6068 58.1257 76.8019 57.8331 76.9969 57.8331C77.192 57.8819 77.3383 58.1744 77.3383 58.5158Z" fill="#3C322D"/>
<path d="M73.6323 57.443C73.6323 57.443 73.9736 59.8812 73.6323 60.9539C73.3397 62.0267 73.1447 62.9045 74.9977 62.5144" stroke="#B55934" stroke-miterlimit="10" stroke-linecap="round"/>
<path d="M59.3934 81.4832C59.3934 81.4832 61.6365 85.3355 61.4902 86.9935" stroke="#A87731" stroke-width="0.4447" stroke-miterlimit="10" stroke-linecap="round"/>
<path d="M89.8704 74.8027C89.8704 74.8027 88.8952 78.5575 89.5291 80.9956C90.163 83.4338 90.163 83.4338 90.163 83.4338" stroke="#A87731" stroke-width="0.4447" stroke-miterlimit="10" stroke-linecap="round"/>
<path d="M67.6832 73.1447C68.4634 76.3143 77.826 82.0684 81.0931 71.1454" stroke="#A87731" stroke-width="0.4447" stroke-miterlimit="10" stroke-linecap="round"/>
<path d="M56.2726 78.9963L56.2239 114.398L95.7708 114.593L95.6245 81.532L56.2726 78.9963Z" fill="#0235A8"/>
<path d="M72.8107 102.384C74.461 101.53 75.1366 99.5581 74.3197 97.9795C73.5028 96.401 71.5027 95.8136 69.8524 96.6677C68.2021 97.5217 67.5265 99.4938 68.3434 101.072C69.1603 102.651 71.1604 103.238 72.8107 102.384Z" fill="#213155"/>
<path d="M69.8776 90.5532C69.8776 90.5532 67.8296 90.5532 67.9271 92.65C68.0246 94.698 68.7073 96.551 71.7306 96.1122C71.7794 96.1122 70.8529 89.8217 69.8776 90.5532Z" fill="#EF5233"/>
<path d="M77.6796 117.178L71.8767 116.983L70.0725 104.938L70.6089 104.256L71.828 93.9179L79.24 98.7942C79.24 98.7942 79.1912 99.4281 79.1425 100.306C79.0449 102.695 78.8499 107.133 79.24 107.718C79.7764 108.547 77.6796 117.178 77.6796 117.178Z" fill="#F2844F"/>
<path d="M79.1912 98.7454C79.1912 98.7454 79.1425 99.3793 79.0937 100.257C78.3623 100.647 77.2407 101.086 75.9729 101.037C73.681 100.94 70.3163 104.646 70.0725 104.89L70.6089 104.207L71.828 93.8691L79.1912 98.7454Z" fill="#E16328"/>
<path d="M79.0938 104.499C79.0938 104.499 78.6061 107.815 77.8259 109.425C77.0457 111.034 75.4365 114.691 75.5828 115.617C75.5828 115.617 70.0238 107.718 70.804 104.402C70.804 104.402 69.9263 104.499 69.4387 105.231C68.951 105.914 60.1249 109.132 59.0521 111.863C57.9793 114.593 57.4917 117.909 57.4917 117.909H90.5531C90.5531 117.909 89.9679 112.106 86.5058 109.815C83.0923 107.523 79.874 105.816 79.6302 105.085C79.3864 104.304 79.0938 104.499 79.0938 104.499Z" fill="#DB9DB4"/>
<path d="M70.9503 90.6995C70.9503 90.6995 70.7553 100.793 76.8507 100.501C77.8747 100.452 82.2146 99.3793 82.4097 92.2599C82.4097 92.2599 81.8733 83.9214 81.1418 83.6288C80.4104 83.3362 74.8026 83.3362 73.8761 84.3603C73.0471 85.3843 70.7553 86.9447 70.9503 90.6995Z" fill="#F28451"/>
<path d="M73.1935 90.5532C73.1935 90.5532 75.0465 89.0903 76.6557 91.0896" stroke="#14364F" stroke-width="0.8121" stroke-miterlimit="10"/>
<path d="M79.1426 91.0408C79.1426 91.0408 79.9228 89.4316 81.6783 90.3094" stroke="#14364F" stroke-width="0.8121" stroke-miterlimit="10"/>
<path d="M78.6549 91.4309C78.6549 91.4309 77.6796 93.2352 78.216 94.2592C78.8012 95.3807 78.1673 95.9171 77.0945 95.7221" stroke="#EF5233" stroke-width="0.8121" stroke-miterlimit="10"/>
<path d="M77.5333 97.9164C76.2655 97.9164 75.7778 96.7949 75.7778 96.7949L79.2888 96.8436C79.2888 96.8436 78.8987 97.9164 77.5333 97.9164Z" fill="#F64F3C"/>
<path d="M76.411 92.4392C76.5214 92.0506 76.3169 91.6521 75.9542 91.5491C75.5915 91.446 75.208 91.6775 75.0976 92.0661C74.9872 92.4546 75.1917 92.8532 75.5544 92.9562C75.9171 93.0593 76.3006 92.8278 76.411 92.4392Z" fill="#14364F"/>
<path d="M80.5667 92.4738C80.6771 92.0852 80.4726 91.6867 80.11 91.5836C79.7473 91.4806 79.3638 91.7121 79.2534 92.1006C79.143 92.4892 79.3475 92.8878 79.7101 92.9908C80.0728 93.0938 80.4563 92.8624 80.5667 92.4738Z" fill="#14364F"/>
<path d="M78.4599 81.9709C78.4599 81.9709 69.7313 80.3617 69.5363 90.6507C69.5363 90.6507 70.5603 90.9433 70.9504 92.3087C71.3405 93.7228 71.0967 88.115 73.0472 86.8959C73.0472 86.8959 70.9016 93.0889 72.4133 96.6486C72.4133 96.6486 71.6331 84.8967 78.1186 84.1652C78.1186 84.1652 79.5815 83.7751 80.4104 84.7016C81.1906 85.6281 83.4825 91.7723 80.6055 97.2337C80.6055 97.2337 82.2634 94.7956 82.6535 92.0648C82.6535 92.0648 83.2875 91.5772 83.58 90.3581C83.8726 89.1391 83.4825 80.2642 78.4599 81.9709Z" fill="#14364F"/>
<path d="M100.354 81.9221L100.55 114.252L138.39 114.935L138.731 84.9454L100.354 81.9221Z" fill="#0235A8"/>
<path d="M125.565 110.205L121.323 113.131L118.397 111.716L115.471 110.302C115.471 110.302 117.032 105.036 116.154 100.891H125.321C125.321 100.891 125.321 100.989 125.321 101.086C125.273 101.427 125.224 102.11 125.175 102.939C125.029 105.182 124.931 108.693 125.565 110.205Z" fill="#ED8048"/>
<path d="M125.272 101.086C125.224 101.427 125.175 102.11 125.126 102.939C123.663 105.914 120.64 110.156 118.348 111.716L115.422 110.302C115.422 110.302 116.983 105.036 116.105 100.891L125.272 101.086Z" fill="#E86223"/>
<path d="M116.203 108.4C116.203 108.4 106.401 113.618 106.109 115.032C105.816 116.446 106.109 118.982 106.109 118.982H134.928V115.032C134.928 115.032 134.635 113.082 131.709 111.57C128.783 110.058 125.077 107.279 125.077 107.279C125.077 107.279 124.005 110.644 121.566 110.644C119.177 110.644 117.129 110.351 116.203 108.4Z" fill="#753F73"/>
<path d="M126.297 95.527C126.297 95.527 127.467 95.1857 127.564 95.6245C127.613 96.0634 128.442 101.037 125.224 100.94L126.297 95.527Z" fill="#FF573D"/>
<path d="M115.276 95.1857C115.276 95.1857 113.569 94.8931 113.618 97.0387C113.667 99.1843 114.886 101.135 116.398 100.842L115.276 95.1857Z" fill="#FF573D"/>
<path d="M114.642 90.7482C114.642 90.7482 113.569 92.3087 114.203 94.1617C114.837 96.0147 115.471 97.8189 115.471 97.8189H126.54C126.54 97.8189 129.466 89.0415 125.809 88.5051C125.809 88.5051 125.906 85.433 123.614 85.1892C121.371 84.9454 120.884 86.2133 120.884 86.2133C120.884 86.2133 114.74 85.8719 114.642 90.7482Z" fill="#C63E48"/>
<path d="M116.105 92.2111C116.105 92.2111 123.029 92.9426 125.175 90.6995C125.175 90.6995 125.76 96.9412 126.199 97.8677C126.199 97.8677 125.175 104.792 122.639 105.28C120.104 105.767 116.739 106.06 115.471 97.8677C115.471 97.8677 116.837 93.5765 116.105 92.2111Z" fill="#ED8048"/>
<path d="M116.641 96.0147C116.641 96.0147 118.104 94.3079 119.372 96.0147" stroke="black" stroke-width="0.6825" stroke-miterlimit="10" stroke-linecap="round"/>
<path d="M121.567 95.8196C121.567 95.8196 123.029 94.1129 124.297 95.8196" stroke="black" stroke-width="0.6825" stroke-miterlimit="10" stroke-linecap="round"/>
<path d="M119.908 96.356C119.908 96.356 120.884 99.1355 120.201 100.111C119.518 101.086 120.64 101.086 121.274 100.989" stroke="#B54D24" stroke-width="0.6825" stroke-miterlimit="10" stroke-linecap="round"/>
<path d="M118.251 97.6239C118.466 97.6239 118.641 97.4055 118.641 97.1362C118.641 96.8669 118.466 96.6486 118.251 96.6486C118.035 96.6486 117.86 96.8669 117.86 97.1362C117.86 97.4055 118.035 97.6239 118.251 97.6239Z" fill="black"/>
<path d="M122.981 97.4288C123.196 97.4288 123.371 97.2105 123.371 96.9412C123.371 96.6718 123.196 96.4535 122.981 96.4535C122.765 96.4535 122.59 96.6718 122.59 96.9412C122.59 97.2105 122.765 97.4288 122.981 97.4288Z" fill="black"/>
<path d="M120.932 103.427C119.762 103.378 119.079 102.354 119.079 102.354H122.542C122.542 102.354 122.103 103.475 120.932 103.427Z" fill="#F8F1EB"/>
<path d="M99.7207 48.3731L99.9158 78.9963L138.585 82.2147V53.3469L99.7207 48.3731Z" fill="#0235A8"/>
<path d="M120.494 52.0303C118.494 52.3716 114.35 52.4692 113.374 57.1017C112.399 61.6854 112.838 65.3914 113.131 67.732C113.423 70.0727 112.155 73.0472 111.668 73.2423C111.229 73.4373 111.814 75.6804 112.935 75.3391L126.345 75.7779C126.345 75.7779 126.15 69.6825 127.808 67.0493C129.466 64.4161 129.661 53.7858 124.541 53.6395C124.492 53.6395 122.981 51.5914 120.494 52.0303Z" fill="#E4D5B6"/>
<path d="M127.223 87.4811H112.594L112.692 78.2161L112.74 75.7292C119.08 74.8515 117.032 65.6352 117.032 65.6352C117.032 65.5377 124.102 65.4402 124.102 65.4402C124.005 66.2691 123.956 67.0006 123.956 67.6833C123.663 75.2416 126.93 76.5094 126.93 76.5094L127.223 87.4811Z" fill="#F2844F"/>
<path d="M123.907 67.6345C123.176 70.9016 120.396 71.438 119.275 72.2182C117.909 73.1447 118.299 72.9497 117.275 74.8514C116.544 76.2168 114.106 77.5334 112.74 78.1673L112.692 75.3878C119.031 74.5101 117.08 65.5865 117.08 65.5865C117.08 65.4889 124.151 65.3914 124.151 65.3914C124.151 66.2691 124.053 67.0006 123.907 67.6345Z" fill="#F0632E"/>
<path d="M126.833 76.5581C126.833 76.5581 130.685 78.5087 131.027 80.0691C131.319 81.6295 132.636 87.8712 132.636 87.8712L102.159 87.9687C102.159 87.9687 107.279 74.4126 108.157 74.0225C109.034 73.6324 109.961 72.8034 111.911 72.9984C111.911 72.9984 110.887 74.7539 112.935 75.3391C112.935 75.3391 112.497 86.1645 116.788 87.1885C116.837 87.2373 125.516 76.4119 126.833 76.5581Z" fill="#372F2C"/>
<path d="M128.247 61.344C128.198 62.2705 127.955 65.1476 125.224 65.3914C125.224 65.3914 124.297 67.6345 123.663 68.1221C123.078 68.6097 119.372 71.3892 116.934 66.4642C116.934 66.4642 116.349 64.3186 115.374 64.026H115.325C115.325 64.026 113.862 63.2946 114.691 61.149C114.691 61.149 115.13 60.9052 115.325 61.1002C115.325 61.1002 115.227 57.2479 117.909 55.9801C117.909 55.9801 121.859 56.419 123.225 55.5412C123.322 55.4925 123.42 55.3949 123.468 55.3462C123.468 55.3462 124.005 57.638 124.931 58.0281C125.858 58.4183 125.516 60.8564 125.516 60.8564C125.516 60.8564 126.297 61.0515 126.54 60.2712C126.882 59.5398 128.247 60.3688 128.247 61.344Z" fill="#F18348"/>
<path d="M123.273 55.5412C122.347 56.9554 120.299 57.248 118.251 58.2232C116.446 59.0522 115.715 62.3193 115.422 64.0748H115.374C115.374 64.0748 113.716 63.3433 114.593 61.2465C114.593 61.2465 115.13 60.954 115.374 61.1978C115.374 61.1978 115.276 57.3455 117.958 56.0776C117.958 55.9801 121.908 56.419 123.273 55.5412Z" fill="#E66023"/>
<path d="M116.641 59.9299C116.641 59.9299 118.104 58.467 119.372 59.8812" stroke="#8E451C" stroke-width="0.7255" stroke-miterlimit="10" stroke-linecap="round"/>
<path d="M121.372 59.8812C121.372 59.8812 122.834 58.4182 124.102 59.8324" stroke="#8E451C" stroke-width="0.7255" stroke-miterlimit="10" stroke-linecap="round"/>
<path d="M118.397 61.8317C118.639 61.8317 118.836 61.5697 118.836 61.2465C118.836 60.9234 118.639 60.6614 118.397 60.6614C118.155 60.6614 117.958 60.9234 117.958 61.2465C117.958 61.5697 118.155 61.8317 118.397 61.8317Z" fill="#372F2C"/>
<path d="M122.688 61.7829C122.931 61.7829 123.127 61.5209 123.127 61.1978C123.127 60.8746 122.931 60.6126 122.688 60.6126C122.446 60.6126 122.249 60.8746 122.249 61.1978C122.249 61.5209 122.446 61.7829 122.688 61.7829Z" fill="#372F2C"/>
<path d="M119.372 65.5864H122.103C122.103 65.5864 121.859 66.6592 120.64 66.6592C119.421 66.6592 119.372 65.5864 119.372 65.5864Z" fill="#E64E37"/>
<path d="M120.006 60.4176C120.006 60.4176 120.152 63.002 119.86 63.831C119.567 64.66 121.03 64.6112 121.03 64.6112" stroke="#8E451C" stroke-width="0.7255" stroke-miterlimit="10" stroke-linecap="round"/>
</svg>
