<svg width="343" height="343" viewBox="0 0 343 343" fill="none" xmlns="http://www.w3.org/2000/svg">
<path d="M61.2255 314.359H98.9898C98.9898 314.359 99.127 284.518 95.8685 280.917H63.455C63.455 280.917 59.3047 297.621 61.2255 314.359Z" fill="#FF9398"/>
<path d="M81.5311 168.207L84.1722 277.315" stroke="black" stroke-width="2" stroke-miterlimit="10" stroke-linecap="round" stroke-linejoin="round"/>
<path d="M74.9455 154.487L81.2567 277.315" stroke="black" stroke-width="2" stroke-miterlimit="10" stroke-linecap="round" stroke-linejoin="round"/>
<path d="M69.5261 276.355L68.6686 230.633" stroke="black" stroke-width="2" stroke-miterlimit="10" stroke-linecap="round" stroke-linejoin="round"/>
<path d="M74.9455 198.117L75.6315 277.315" stroke="black" stroke-width="2" stroke-miterlimit="10" stroke-linecap="round" stroke-linejoin="round"/>
<path d="M78.7871 179.183C74.9455 176.851 63.7637 177.262 57.967 191.703C52.1703 206.143 49.0147 216.913 54.5027 214.135C59.9907 211.357 79.0958 198.151 81.291 195.887C83.4519 193.624 88.5283 185.083 78.7871 179.183Z" fill="#303D73"/>
<path d="M78.1012 245.931C67.674 238.488 53.4395 242.638 54.5028 270.456C55.5661 298.273 105.061 265.242 78.1012 245.931Z" fill="#303D73"/>
<path d="M81.2567 277.315C64.5526 277.453 58.8931 277.315 58.8931 277.315C58.8931 277.315 59.3047 282.358 61.2255 282.803C63.1463 283.249 95.8685 283.181 95.8685 283.181C95.8685 283.181 98.6468 282.838 98.9898 277.315H81.2567Z" fill="#FFB1B2"/>
<path d="M70.761 262.807C63.2493 259.96 53.5081 261.709 47.5399 275.944C41.606 290.178 32.7566 312.404 49.3235 302.046C65.8904 291.687 73.9166 288.497 76.9693 281.74C80.022 274.983 81.2568 266.82 70.761 262.807Z" fill="#00CA9C"/>
<path d="M80.8451 228.164C67.6053 230.427 66.199 246.96 80.8451 258.691C95.4912 270.421 105.438 280.505 110 282.049C114.562 283.592 124.783 284.964 120.221 265.894C115.66 246.788 113.327 222.607 80.8451 228.164Z" fill="#00CA9C"/>
<path d="M70.3836 208.132C61.6714 200.758 48.8089 210.774 44.3842 224.151C39.9595 237.562 32.928 260.749 48.9461 248.058C64.9642 235.332 88.5283 223.464 70.3836 208.132Z" fill="#00CA9C"/>
<path d="M83.8979 185.597C71.2755 191.874 75.8717 205.08 86.9506 209.779C97.9952 214.478 125.161 228.987 121.388 217.668C117.615 206.349 104.203 175.513 83.8979 185.597Z" fill="#00CA9C"/>
<path d="M79.8847 166.801C79.5074 157.54 88.9399 156.031 95.8685 157.403C102.797 158.775 115.934 162.376 113.705 165.703C111.509 169.03 99.2642 172.598 95.8685 173.867C92.4728 175.136 80.2963 177.434 79.8847 166.801Z" fill="#00CA9C"/>
<path d="M55.4288 145.26C63.798 139.841 78.9243 142.345 78.7871 149.96C78.6499 157.574 75.9402 158.123 70.3836 155.345C64.827 152.566 50.7297 148.313 55.4288 145.26Z" fill="#303D73"/>
<path d="M259.411 295.289C259.034 296.455 258.794 297.107 258.794 297.107C258.794 297.107 260.886 300.194 262.875 303.349C264.487 305.956 266.031 308.563 266.237 309.592C266.683 311.821 266.237 314.291 266.237 314.291H229.536V209.71L230.873 145.055L268.672 153.115C268.672 153.115 272.205 177.605 274.263 193.349C276.355 209.093 276.184 234.681 276.184 240.031C276.184 244.456 264.247 280.711 260.166 293.025C259.994 293.574 259.823 294.088 259.651 294.534C259.582 294.809 259.514 295.049 259.411 295.289Z" fill="#191919"/>
<path d="M260.166 293.025C259.994 293.574 259.823 294.088 259.651 294.534C259.548 294.809 259.48 295.049 259.411 295.289L246.446 295.7L229.536 300.468V296.626L246.789 292.442L260.166 293.025Z" fill="white"/>
<path d="M233.823 310.861C233.651 307.637 231.525 305.785 230.05 304.893V300.605L246.514 295.563L258.965 295.083C258.553 296.283 258.347 296.935 258.347 296.935C258.279 297.072 258.313 297.244 258.416 297.381C258.45 297.415 260.2 300.022 261.983 302.835C261.091 302.835 259.96 302.835 258.69 302.835C256.221 302.835 253.614 302.835 250.904 302.8H250.767C242.569 302.8 239.62 309.215 239.002 310.827H233.823V310.861Z" fill="white"/>
<path d="M258.245 295.632C258.005 296.386 257.867 296.798 257.867 296.798C257.764 297.107 257.799 297.45 258.005 297.724C258.039 297.758 259.479 299.885 261.092 302.389C260.303 302.389 259.514 302.389 258.725 302.389C256.255 302.389 253.648 302.389 250.973 302.355H250.836C245.759 302.355 242.638 304.721 240.957 306.745C239.757 308.151 239.071 309.558 238.728 310.415H234.406C234.132 308.083 232.828 306.093 230.667 304.653V301.051L246.686 296.146L258.245 295.632ZM259.685 294.534L246.445 295.049L229.57 300.228V305.167C231.216 306.093 233.411 307.98 233.343 311.375H239.38C239.38 311.375 241.712 303.349 250.767 303.349C250.802 303.349 250.87 303.349 250.904 303.349C253.991 303.384 256.564 303.384 258.691 303.384C260.474 303.384 261.88 303.384 262.944 303.384C260.954 300.228 258.862 297.141 258.862 297.141C258.862 297.141 259.136 296.181 259.685 294.534Z" fill="black"/>
<path d="M252.86 200.929L252.242 208.132L256.324 234.063L247.474 279.751V286.988L259.034 234.475L252.86 200.929Z" fill="white"/>
<path d="M211.597 90.1061C211.597 90.1061 214.581 86.4017 218.354 85.1669C222.127 83.8978 230.427 81.634 230.599 81.3253C230.77 81.0166 249.67 86.1959 249.67 86.1959C249.67 86.1959 266.545 88.3911 267.334 95.9371C268.123 103.483 268.672 155.928 268.672 155.928C268.672 155.928 263.733 158.74 260.508 158.432C257.284 158.123 233.274 149.102 233.274 149.102L238.385 155.448C238.385 155.448 236.327 164.949 232.657 165.429L211.288 147.936C211.288 147.936 206.349 144.026 208.304 131.54C210.259 119.055 211.597 90.1061 211.597 90.1061Z" fill="#FF8103"/>
<path d="M232.657 165.875C232.554 165.875 232.417 165.84 232.314 165.772L210.945 148.279C210.739 148.107 205.8 144.026 207.789 131.403C209.71 119.09 211.082 90.3805 211.082 90.0718C211.082 89.9689 211.117 89.866 211.185 89.7631C211.322 89.5916 214.306 85.9558 218.182 84.6524C219.76 84.1379 222.127 83.4176 224.391 82.7659C226.86 82.0456 229.639 81.2224 230.222 80.948C230.496 80.605 231.388 80.7765 240.34 83.1432C244.833 84.3437 249.361 85.5785 249.807 85.6814C250.905 85.8186 267.06 88.1167 267.883 95.8685C268.672 103.346 269.187 153.767 269.221 155.894C269.221 156.065 269.118 156.236 268.946 156.339C268.741 156.442 263.836 159.255 260.474 158.912C257.696 158.637 240.477 152.292 234.852 150.2L238.797 155.105C238.9 155.242 238.934 155.379 238.9 155.55C238.694 156.545 236.67 165.429 232.726 165.909C232.691 165.875 232.657 165.875 232.657 165.875ZM212.111 90.2776C212.008 92.7129 210.671 119.673 208.818 131.541C206.932 143.511 211.562 147.421 211.631 147.456L232.794 164.812C235.332 164.194 237.219 158.157 237.836 155.516L232.897 149.342C232.76 149.171 232.76 148.896 232.897 148.725C233.034 148.553 233.274 148.45 233.48 148.553C241.781 151.675 258.108 157.609 260.577 157.849C263.184 158.089 267.128 156.099 268.157 155.55C268.123 151.229 267.574 103.072 266.82 95.9371C266.1 88.8713 249.773 86.6761 249.601 86.6761C249.567 86.6761 249.567 86.6761 249.533 86.6761C242.913 84.8582 232.177 82.0113 230.77 81.8055C230.29 82.0456 228.987 82.4572 224.699 83.7263C222.436 84.4123 220.103 85.0983 218.525 85.6128C215.335 86.7104 212.66 89.6602 212.111 90.2776Z" fill="black"/>
<path d="M233.274 149.034L229.913 144.06" stroke="black" stroke-width="3" stroke-miterlimit="10"/>
<path d="M226.14 125.881C226.14 125.881 230.976 132.089 230.873 134.044C230.77 135.999 230.873 145.055 230.873 145.055L225.523 139.43L226.929 108.594" fill="white"/>
<path d="M230.873 145.569C230.736 145.569 230.599 145.501 230.496 145.398L225.145 139.773C225.042 139.67 225.008 139.532 225.008 139.395L225.625 125.881V125.847L226.414 108.56C226.414 108.285 226.689 108.045 226.963 108.079C227.238 108.079 227.478 108.319 227.443 108.628L226.654 125.744C227.512 126.876 231.456 132.124 231.388 134.079C231.285 135.999 231.388 144.952 231.388 145.055C231.388 145.26 231.251 145.466 231.079 145.535C231.011 145.569 230.942 145.569 230.873 145.569ZM226.037 139.224L230.325 143.751C230.29 141.179 230.256 135.554 230.325 134.01C230.393 132.913 228.301 129.688 226.552 127.322L226.037 139.224Z" fill="black"/>
<path d="M268.569 147.661C268.295 147.661 268.089 147.456 268.055 147.181L264.659 102.488C264.625 102.214 264.865 101.974 265.139 101.94C265.414 101.905 265.654 102.145 265.688 102.42L269.084 147.113C269.118 147.387 268.878 147.627 268.603 147.661H268.569Z" fill="black"/>
<path d="M257.181 313.982C257.147 313.982 257.079 313.982 257.044 313.948C256.77 313.879 256.598 313.605 256.667 313.33C257.079 311.753 255.021 307.808 254.163 306.368C250.562 302.663 246.274 298.067 246.274 297.141C246.274 296.215 246.274 292.442 246.274 292.442H247.303C247.303 292.442 247.303 296.078 247.303 297.072C247.577 297.827 251.385 302.011 254.952 305.647C254.986 305.682 254.986 305.716 255.021 305.75C255.364 306.299 258.279 311.238 257.662 313.571C257.593 313.811 257.387 313.982 257.181 313.982Z" fill="black"/>
<path d="M235.229 71.001C235.229 71.001 233.994 81.5997 226.963 82.8688C226.963 82.8688 234.955 90.9979 235.812 91.7868C237.459 93.296 249.944 99.5043 250.184 94.1535C250.39 88.7684 248.778 85.407 248.778 85.407L245.691 80.262L246.514 72.3044L235.229 71.001Z" fill="white"/>
<path d="M247.406 96.7946C245.554 96.7946 243.29 96.0743 241.472 95.354C238.728 94.2564 236.19 92.8501 235.469 92.1641C234.612 91.3752 226.894 83.5548 226.586 83.2461L225.9 82.5601L226.86 82.3886C233.446 81.2224 234.715 71.0696 234.715 70.9667L234.783 70.4522L247.063 71.8242L246.205 80.1248L249.224 85.1669C249.292 85.3041 250.904 88.7341 250.664 94.1878C250.63 95.3197 250.081 96.1429 249.121 96.5202C248.641 96.6917 248.057 96.7946 247.406 96.7946ZM227.958 83.1432C229.878 85.0983 235.469 90.7235 236.155 91.3752C237.459 92.5757 245.828 96.726 248.743 95.5255C249.327 95.2854 249.635 94.8052 249.67 94.0849C249.875 89.1114 248.469 85.8529 248.332 85.5785L245.176 80.2963L245.931 72.716L235.675 71.5841C235.332 73.6764 233.72 81.3939 227.958 83.1432Z" fill="black"/>
<path d="M243.118 92.4385C240.409 90.5177 232.211 84.6524 230.53 81.7026C231.491 80.7422 233.068 79.0958 233.686 77.8953L242.501 83.8635L243.118 92.4385Z" fill="white"/>
<path d="M233.857 78.6499L242.021 84.1722L242.535 91.4095C241.369 90.552 239.723 89.3858 238.008 88.0481C233.617 84.6524 231.868 82.7659 231.182 81.7712C232.451 80.5364 233.343 79.4731 233.857 78.6499ZM233.446 77.1064C233.514 78.1354 229.947 81.5997 229.947 81.5997C231.491 85.1326 243.736 93.4675 243.736 93.4675L243.016 83.5891L233.446 77.1064Z" fill="black"/>
<path d="M245.656 80.1934L243.015 83.5891L248.332 92.1298L249.67 86.1616L245.656 80.1934Z" fill="white"/>
<path d="M248.538 93.4675L242.398 83.5548L245.691 79.3359L250.218 86.0587L248.538 93.4675ZM243.633 83.6234L248.092 90.7921L249.121 86.2645L245.622 81.0852L243.633 83.6234Z" fill="black"/>
<path d="M232.28 69.0116C232.28 69.0116 232.417 70.5208 231.079 70.5208C229.741 70.5208 225.934 68.943 227.169 64.827C228.438 60.711 230.222 59.7849 230.222 59.7849L228.781 52.0674L246.857 48.02L251.042 51.7244L251.522 61.2598C251.522 61.2598 253.511 59.2018 254.575 59.7506C255.638 60.2651 256.564 66.199 252.002 66.8164C252.002 66.8164 249.224 74.431 245.657 75.3571C242.089 76.2832 234.852 75.5629 232.28 69.0116Z" fill="white"/>
<path d="M242.81 76.1803C241.438 76.1803 239.929 75.9745 238.419 75.46C236.499 74.8083 233.995 73.402 232.417 70.4522C232.383 70.4865 232.383 70.5208 232.348 70.5551C232.143 70.7952 231.765 71.0696 231.114 71.0696C230.153 71.0696 228.335 70.4179 227.272 69.0116C226.655 68.1884 226.071 66.7821 226.723 64.7241C227.718 61.4656 229.09 60.0936 229.707 59.6134L228.232 51.7244L247.029 47.5055L251.556 51.5186L251.968 60.1622C252.757 59.5448 253.889 58.8588 254.781 59.3047C255.638 59.7506 256.153 61.7743 255.844 63.5922C255.638 64.7927 254.918 66.8164 252.345 67.2966C251.796 68.7372 249.155 74.9798 245.76 75.8716C244.936 76.0431 243.907 76.1803 242.81 76.1803ZM231.525 65.6502L232.76 68.8058C235.264 75.2199 242.398 75.6315 245.451 74.8426C248.161 74.1223 250.699 68.6686 251.453 66.6106L251.556 66.3019L251.865 66.2676C253.82 65.9932 254.506 64.6555 254.746 63.5922C255.124 61.9115 254.54 60.3337 254.266 60.1622C253.854 59.9564 252.654 60.7453 251.831 61.5685L251.008 62.426L250.493 51.9302L246.686 48.5345L229.364 52.479L230.805 60.0936L230.462 60.2651C230.462 60.2651 228.85 61.1912 227.684 64.9985C227.272 66.3362 227.409 67.4681 228.095 68.3599C228.953 69.5261 230.462 70.0063 231.114 70.0063C231.388 70.0063 231.525 69.9034 231.594 69.8348C231.8 69.5947 231.834 69.1831 231.8 69.0459L231.525 65.6502Z" fill="black"/>
<path d="M233.068 59.339C233.068 59.339 235.504 57.0752 239.414 57.8984" stroke="black" stroke-width="3" stroke-miterlimit="10" stroke-linecap="round" stroke-linejoin="round"/>
<path d="M247.955 55.4288C247.955 55.4288 241.986 55.1544 242.261 59.6477C242.535 64.141 245.897 64.9985 245.897 64.9985L244.559 66.7821" stroke="black" stroke-width="3" stroke-miterlimit="10" stroke-linecap="round" stroke-linejoin="round"/>
<path d="M239.037 69.3203C239.037 69.3203 241.472 71.4469 244.182 70.0406" stroke="black" stroke-width="3" stroke-miterlimit="10" stroke-linecap="round" stroke-linejoin="round"/>
<path d="M252.482 59.339C252.482 59.339 251.796 62.7004 251.385 63.0434C250.973 63.3864 250.184 53.9882 249.67 52.8563C249.155 51.7244 248.606 48.8775 245.245 50.7983C241.884 52.7191 241.746 53.9882 238.282 53.9196C234.852 53.851 231.216 53.2679 231.216 53.2679C231.216 53.2679 229.879 55.4631 230.702 57.4868C231.491 59.5448 231.834 65.3758 231.834 65.3758L231.113 65.9589L230.256 63.5579C230.256 63.5579 227.821 61.7743 227.203 64.827C227.203 64.827 224.665 60.4023 224.151 55.566C223.705 51.6558 224.562 47.5055 229.124 45.2417C239.311 40.131 240.1 39.8909 240.1 39.8909L240.443 42.1547C240.443 42.1547 251.762 38.7247 252.414 40.5769C253.065 42.4291 249.91 44.0755 249.91 44.0755C249.91 44.0755 253.271 45.4475 251.35 49.4263C251.35 49.4263 252.963 55.7032 252.482 59.339Z" fill="#191919"/>
<path d="M251.007 41.3315C248.126 41.7088 239.002 45.8934 239.002 45.8934C239.002 45.8934 238.762 43.9383 237.939 43.8697C237.116 43.8011 230.873 47.5398 228.266 49.8379C226.346 51.5529 225.762 53.5423 224.871 56.6636C224.459 52.7534 225.282 48.6031 229.707 46.3393C239.62 41.2286 239.208 41.4687 239.208 41.4687L239.791 43.6639C239.826 43.6982 250.356 39.4793 251.007 41.3315Z" fill="white"/>
<path d="M119.707 314.462C119.604 313.605 119.604 311.341 121.628 308.803C122.211 308.083 122.828 307.156 123.48 306.059C126.224 301.531 129.071 294.637 129.242 289.561C129.448 283.524 130.203 236.327 130.271 230.736L148.965 231.937L141.042 279.991C140.973 280.3 139.292 288.189 139.772 292.613C139.944 294.26 140.253 295.837 140.527 297.415C140.664 298.067 140.767 298.719 140.87 299.336C141.144 301.051 141.419 303.04 141.282 304.893C140.973 308.117 138.057 313.365 137.337 314.565L119.707 314.462Z" fill="white"/>
<path d="M130.786 231.285L148.382 232.417L140.561 279.888C140.424 280.471 138.812 288.223 139.292 292.648C139.464 294.294 139.772 295.906 140.047 297.484C140.184 298.136 140.287 298.787 140.39 299.405C140.664 301.085 140.939 303.04 140.767 304.824C140.493 307.74 137.92 312.473 137.028 314.016L120.187 313.914C120.187 312.919 120.427 311.135 122.039 309.112C122.622 308.391 123.274 307.431 123.926 306.333C128.042 299.508 129.62 293.059 129.757 289.561C129.963 283.695 130.683 238.865 130.786 231.285ZM129.791 230.187C129.791 230.187 128.968 283.078 128.762 289.561C128.591 294.74 125.641 301.531 123.068 305.819C122.417 306.882 121.799 307.808 121.25 308.494C118.472 311.958 119.295 314.977 119.295 314.977L137.646 315.08C137.646 315.08 141.453 308.734 141.796 304.927C141.968 303.109 141.728 301.223 141.385 299.233C141.007 297.072 140.527 294.843 140.287 292.545C139.841 288.154 141.556 280.059 141.556 280.059L149.582 231.456L129.791 230.187Z" fill="black"/>
<path d="M138.572 298.719C138.572 298.65 138.572 298.581 138.538 298.513C138.4 298.204 124.955 266.339 122.279 259.822C119.878 253.957 113.704 233.274 112.47 229.124L129.345 230.667L139.018 279.785C139.052 279.888 139.086 279.991 139.189 280.059C139.224 280.094 141.796 282.323 144.403 284.69C147.524 287.503 149.376 289.252 149.857 289.904C150.851 291.138 150.474 294.088 150.234 295.083C150.2 295.151 150.234 295.254 150.234 295.357L152.429 302.595L150.92 303.246L148.69 299.988C148.588 299.851 148.416 299.748 148.279 299.748C148.21 299.748 148.142 299.748 148.073 299.782C147.833 299.885 147.73 300.091 147.764 300.331C148.347 304.035 144.54 309.866 143.751 311.032L138.263 311.307L138.572 298.719Z" fill="white"/>
<path d="M113.19 229.707L128.934 231.148L138.538 279.888C138.572 280.128 138.709 280.3 138.881 280.471C138.915 280.505 141.487 282.735 144.094 285.067C147.97 288.566 149.171 289.801 149.514 290.212C150.268 291.173 150.097 293.642 149.822 294.98C149.788 295.151 149.788 295.323 149.857 295.494L151.915 302.286L151.229 302.595L149.239 299.679C149.033 299.405 148.725 299.233 148.382 299.233C148.245 299.233 148.142 299.267 148.004 299.302C147.559 299.473 147.284 299.954 147.387 300.434C147.867 303.452 145.055 308.426 143.614 310.552L138.915 310.758L139.155 300.228L139.189 298.719C139.189 298.582 139.155 298.444 139.121 298.307C138.984 297.998 125.538 266.134 122.863 259.617C120.496 254.06 114.802 235.127 113.19 229.707ZM111.749 228.541C111.749 228.541 119.09 253.408 121.799 259.994C124.475 266.58 138.057 298.684 138.057 298.684L138.023 300.194L137.749 311.821L144.06 311.513C144.06 311.513 148.999 304.584 148.279 300.228L150.748 303.864L153.081 302.869L150.748 295.186C150.748 295.186 151.606 291.276 150.268 289.561C149.617 288.737 147.147 286.474 144.746 284.278C142.105 281.912 139.532 279.648 139.532 279.648L129.791 230.153L111.749 228.541Z" fill="black"/>
<path d="M151.366 305.339L148.279 300.262C148.965 304.618 141.831 315.08 141.831 315.08H136.411L137.989 300.228C138.435 298.719 138.846 297.175 139.121 295.735C139.91 291.481 142.928 286.817 144.712 284.313C147.113 286.474 149.582 288.772 150.234 289.595C151.572 291.31 150.714 295.22 150.714 295.22L153.39 304.104L151.366 305.339Z" fill="#191919"/>
<path d="M141.796 304.927C141.453 308.7 137.646 315.08 137.646 315.08L119.295 314.977C119.295 314.977 118.472 311.958 121.25 308.494C121.799 307.808 122.417 306.882 123.068 305.819C124.406 305.75 125.95 305.784 127.15 306.059C129.791 306.642 134.079 307.842 135.691 305.784C136.788 304.412 139.635 301.188 141.419 299.233C141.728 301.223 141.968 303.109 141.796 304.927Z" fill="#191919"/>
<path d="M112.332 232.28L149.033 233.96C149.033 233.96 153.835 211.425 155.105 202.404C156.374 193.383 158.637 171.054 158.294 166.389C157.986 161.69 154.933 145.741 150.543 143.511L120.187 137.577C120.187 137.577 103.071 152.909 105.953 181.721C108.834 210.533 112.332 232.28 112.332 232.28Z" fill="#105AFF"/>
<path d="M149.034 234.475L112.298 232.794C112.058 232.794 111.852 232.588 111.818 232.348C111.784 232.142 108.285 210.225 105.438 181.756C103.929 166.767 107.908 155.448 111.544 148.588C115.454 141.145 119.673 137.337 119.844 137.166C119.981 137.063 120.119 137.029 120.29 137.029L150.646 142.962C150.68 142.962 150.749 142.997 150.783 142.997C155.448 145.363 158.5 161.484 158.843 166.286C159.186 171.054 156.888 193.452 155.653 202.404C154.419 211.322 149.617 233.754 149.582 233.995C149.514 234.303 149.274 234.475 149.034 234.475ZM112.778 231.799L148.622 233.446C149.274 230.29 153.458 210.568 154.59 202.37C155.825 193.658 158.089 171.088 157.78 166.458C157.437 161.519 154.384 146.221 150.337 144.06L120.29 138.195C119.433 139.018 115.728 142.757 112.367 149.205C108.834 155.928 104.924 167.007 106.399 181.721C109.108 207.961 112.298 228.644 112.778 231.799Z" fill="black"/>
<path d="M156.442 124.475H105.232C105.232 124.475 90.8607 119.33 94.7023 111.269C94.9424 110.755 95.2168 110.275 95.4569 109.829C99.1956 103.346 103.689 104.272 103.792 101.014C103.895 97.5492 103.312 95.9714 108.834 92.8844C114.356 89.7631 114.356 90.7235 114.356 85.4756C114.356 80.2277 113.876 75.1513 124.166 69.286C131.609 65.0671 138.743 62.5632 144.574 65.4787C146.804 66.5763 148.828 68.4628 150.611 71.344C157.094 81.7712 154.59 90.7235 154.59 90.7235L156.442 124.475Z" fill="#191919"/>
<path d="M144.986 66.2676C141.83 66.3362 138.709 66.4734 135.313 67.4338C126.052 70.0063 118.095 74.5682 118.301 81.9084C118.472 88.5626 115.865 92.7472 114.768 93.8448C113.67 94.9424 106.604 95.9714 107.599 99.1956C108.525 102.145 102.351 106.261 100.122 107.599C98.9554 108.285 98.1322 109.554 96.3143 110.446C100.053 103.963 104.546 104.889 104.649 101.631C104.752 98.1666 104.169 96.5888 109.691 93.5018C115.214 90.3805 115.214 91.3409 115.214 86.093C115.214 80.8451 114.733 75.7687 125.023 69.9034C132.467 65.6502 139.155 63.3521 144.986 66.2676Z" fill="white"/>
<path d="M127.116 75.8716C127.116 75.8716 139.978 79.6446 141.316 82.2171C141.316 82.2171 140.904 85.9901 141.316 86.3331C141.728 86.6761 141.899 86.1273 142.791 85.407C143.717 84.6867 145.26 83.4176 146.77 84.1379C148.245 84.8582 147.421 87.122 146.289 87.6708C145.158 88.1853 140.733 90.1061 140.733 92.0955C140.733 94.0849 141.659 102.385 141.728 102.831C141.796 103.277 145.466 104.958 147.559 104.546C149.685 104.135 153.287 104.615 153.287 104.615L159.907 135.451C159.907 135.451 161.244 147.456 150.954 145.604C140.664 143.751 124.337 139.841 124.337 139.841L110.412 142.482C110.412 142.482 100.739 144.266 104.169 131.815C107.565 119.398 112.538 109.245 112.538 109.245C112.538 109.245 115.865 104.203 119.295 104.203C122.691 104.203 131.232 104.203 131.232 104.203C131.232 104.203 134.525 103.38 133.976 100.19C133.427 97.0004 132.775 95.2854 132.775 95.2854C132.775 95.2854 124.886 93.7076 125.229 85.5099C125.572 77.3122 127.116 75.8716 127.116 75.8716Z" fill="white"/>
<path d="M153.012 146.255C152.361 146.255 151.64 146.187 150.886 146.049C141.11 144.3 125.778 140.664 124.338 140.321L110.515 142.928C110.343 142.962 106.673 143.614 104.478 141.179C102.729 139.258 102.454 136.068 103.689 131.609C107.085 119.261 112.058 109.04 112.092 108.937L112.127 108.868C112.264 108.662 115.66 103.586 119.295 103.586H131.163C131.575 103.483 133.907 102.694 133.461 100.19C133.05 97.755 132.57 96.2115 132.364 95.6284C130.889 95.2168 124.372 93.0216 124.715 85.407C125.092 77.2093 126.601 75.6315 126.773 75.46L126.979 75.2542L127.253 75.3228C128.591 75.7001 140.356 79.233 141.762 81.9084L141.831 82.0456L141.796 82.2171C141.659 83.5205 141.556 85.064 141.625 85.7157L141.659 85.6814C141.831 85.5099 142.105 85.2355 142.448 84.9611L142.551 84.8925C143.546 84.1036 145.226 82.8345 146.976 83.6234C147.662 83.9664 148.073 84.6181 148.073 85.407C148.073 86.4703 147.353 87.6365 146.495 88.0481L146.29 88.151C142.139 90.0718 141.247 91.3066 141.247 92.0269C141.247 93.8791 142.071 101.425 142.208 102.557C142.722 103.003 145.741 104.306 147.456 103.963C149.617 103.517 153.218 103.998 153.355 104.032L153.698 104.066L160.387 135.314C160.421 135.554 161.039 141.453 157.78 144.506C156.58 145.672 154.967 146.255 153.012 146.255ZM124.338 139.258L124.44 139.292C124.612 139.327 140.87 143.202 151.057 145.055C153.664 145.535 155.722 145.089 157.128 143.786C159.907 141.179 159.461 135.897 159.426 135.485L152.909 105.027C151.949 104.924 149.342 104.684 147.696 104.992C145.638 105.404 142.619 104.101 141.762 103.483C141.556 103.346 141.316 103.14 141.247 102.866C141.179 102.523 140.253 94.1192 140.253 92.0612C140.253 90.1061 143.271 88.4597 145.878 87.2592L146.084 87.1563C146.598 86.9162 147.078 86.093 147.078 85.4413C147.078 85.0297 146.907 84.7553 146.564 84.5838C145.398 84.035 144.094 85.064 143.237 85.7157L143.134 85.7843C142.825 86.0244 142.619 86.2302 142.448 86.4017C142.139 86.7104 141.625 87.2249 140.973 86.7104C140.802 86.5389 140.356 86.1959 140.767 82.32C139.601 80.6393 132.089 77.8953 127.287 76.4547C126.91 77.1064 125.984 79.3359 125.71 85.4413C125.367 93.0902 132.535 94.6337 132.844 94.7023L133.118 94.7709L133.221 95.0453C133.256 95.1139 133.873 96.8289 134.456 100.053C134.971 102.969 132.638 104.341 131.335 104.649H131.198H119.261C116.277 104.649 113.224 109.04 112.95 109.451C112.641 110.069 107.874 120.016 104.615 131.918C103.483 136 103.689 138.881 105.198 140.493C107.016 142.482 110.275 141.933 110.309 141.899L124.338 139.258Z" fill="black"/>
<path d="M119.776 130.203C119.776 130.203 114.665 117.237 108.525 118.678C102.386 120.119 99.5729 123.617 99.7787 124.372C99.9845 125.126 100.533 125.744 101.94 125.504C101.94 125.504 98.7497 127.287 101.734 128.625C101.734 128.625 100.773 131.438 104.032 130.786C104.032 130.786 102.763 132.878 104.684 132.878C106.604 132.878 111.681 130.786 111.681 130.786C111.681 130.786 111.132 132.055 111.818 132.055C112.47 132.055 119.776 130.203 119.776 130.203Z" fill="white" stroke="black" stroke-width="3" stroke-miterlimit="10" stroke-linecap="round" stroke-linejoin="round"/>
<path d="M147.593 127.356C147.593 127.356 145.912 125.641 140.801 126.704C135.691 127.733 111.818 132.055 111.818 132.055" stroke="black" stroke-width="3" stroke-miterlimit="10" stroke-linecap="round" stroke-linejoin="round"/>
<path d="M124.338 139.807L147.902 133.839" stroke="black" stroke-width="3" stroke-miterlimit="10" stroke-linecap="round" stroke-linejoin="round"/>
<path d="M147.902 116.826L148.416 135.382" stroke="black" stroke-width="3" stroke-miterlimit="10" stroke-linecap="round" stroke-linejoin="round"/>
<path d="M138.675 127.116C138.675 127.116 144.197 132.261 140.801 135.382" stroke="black" stroke-width="3" stroke-miterlimit="10" stroke-linecap="round" stroke-linejoin="round"/>
<path d="M127.39 104.135C127.39 104.135 126.43 108.354 127.39 110.275C128.351 112.195 133.907 115.282 139.087 111.852C144.266 108.422 147.593 104.478 147.593 104.478" stroke="black" stroke-width="3" stroke-miterlimit="10" stroke-linecap="round" stroke-linejoin="round"/>
<path d="M120.016 114.15C120.016 114.15 112.984 121.799 121.937 126.807L123 129.894" stroke="black" stroke-width="3" stroke-miterlimit="10" stroke-linecap="round" stroke-linejoin="round"/>
<path d="M127.287 81.7712C127.287 81.7712 131.438 80.8794 131.712 83.4519C131.986 86.0244 129.14 88.9056 129.14 88.9056L130.614 89.7974" stroke="black" stroke-width="3" stroke-miterlimit="10" stroke-linecap="round" stroke-linejoin="round"/>
<path d="M133.701 81.5997C133.701 81.5997 135.039 79.4731 137.612 79.8504" stroke="black" stroke-width="3" stroke-miterlimit="10" stroke-linecap="round" stroke-linejoin="round"/>
<path d="M132.501 91.6153C132.501 91.6153 134.353 92.6443 136.308 90.209" stroke="black" stroke-width="3" stroke-miterlimit="10" stroke-linecap="round" stroke-linejoin="round"/>
<path d="M132.775 95.2168C132.775 95.2168 134.285 96.1087 136.343 94.7023" stroke="black" stroke-width="3" stroke-miterlimit="10" stroke-linecap="round" stroke-linejoin="round"/>
<path d="M176.405 295.049L176.268 298.719L175.993 305.339L175.65 314.291H148.348C147.764 310.038 152.601 306.676 155.928 304.893C157.643 303.967 158.946 303.486 158.946 303.486L159.221 298.719L159.495 294.534L176.405 295.049Z" fill="white" stroke="black" stroke-width="3" stroke-miterlimit="10" stroke-linecap="round" stroke-linejoin="round"/>
<path d="M220.446 314.291H192.594L192.389 306.402L192.217 300.262L192.08 295.494L209.504 294.5L209.779 300.262L209.95 303.349C211.391 303.692 212.969 304.893 214.444 306.402C217.668 309.66 220.446 314.291 220.446 314.291Z" fill="white" stroke="black" stroke-width="3" stroke-miterlimit="10" stroke-linecap="round" stroke-linejoin="round"/>
<path d="M176.268 298.719L175.993 305.339C174.072 306.779 171.74 311.17 171.74 311.17H168.001C168.001 311.17 166.87 309.146 165.326 306.711C164.297 305.064 159.186 304.858 155.893 304.927C157.608 304.001 158.912 303.521 158.912 303.521L159.186 298.753H176.268V298.719Z" fill="black"/>
<path d="M214.444 306.402C212.626 307.122 209.333 308.803 207.961 311.821H195.956C195.956 311.821 194.001 308.117 192.354 306.368L192.183 300.228H209.779L209.95 303.315C211.391 303.692 212.969 304.927 214.444 306.402Z" fill="black"/>
<path d="M205.697 155.551L209.504 294.5L190.605 295.7L186.969 196.196L177.743 295.151L158.5 294.5L166.698 158.397L168.55 153.15H205.491L205.697 155.551Z" fill="white"/>
<path d="M190.125 296.249L186.729 204.119L178.189 295.7L157.952 295.014L157.986 294.5L166.184 158.294L168.173 152.635H205.937L206.212 155.55L210.053 294.98L190.125 296.249ZM186.455 196.127L187.484 196.162L191.12 295.152L208.99 294.02L205.183 155.55L205.011 153.63H168.928L167.213 158.466L159.049 293.985L177.262 294.603L186.455 196.127Z" fill="black"/>
<path d="M178.429 81.3939C178.429 81.3939 182.579 90.1061 184.088 103.757C185.632 117.409 187.038 152.566 187.038 152.566H196.916L196.299 105.129C196.299 105.129 194.138 84.2065 193.589 82.4915C193.04 80.7765 192.697 78.2726 192.697 78.2726L186.318 75.0484L178.429 81.3939Z" fill="#105AFF"/>
<path d="M196.951 153.081H187.072C186.798 153.081 186.558 152.875 186.558 152.601C186.558 152.258 185.117 117.34 183.608 103.86C182.099 90.4491 178.051 81.7369 177.983 81.634C177.88 81.4282 177.948 81.1538 178.12 81.0166L186.043 74.6368C186.215 74.4996 186.42 74.4996 186.592 74.5682L192.972 77.7924C193.109 77.861 193.212 77.9982 193.246 78.1697C193.246 78.204 193.589 80.6736 194.138 82.32C194.687 84.0693 196.779 104.203 196.848 105.061V105.095L197.465 152.532C197.465 152.669 197.396 152.807 197.328 152.909C197.191 153.012 197.088 153.081 196.951 153.081ZM187.552 152.052H196.436L195.819 105.164C195.201 99.3328 193.589 84.0007 193.143 82.6287C192.697 81.2224 192.389 79.3016 192.251 78.5813L186.42 75.6315L179.046 81.5311C179.835 83.349 183.231 91.6839 184.603 103.689C186.009 116.346 187.347 147.73 187.552 152.052Z" fill="black"/>
<path d="M165.635 160.044L187.381 158.535L186.043 129.448L193.521 126.601L196.745 128.11V158.706L206.109 159.392C206.109 159.392 207.241 152.223 206.829 146.632C206.452 141.076 205.491 129.757 205.491 129.757C205.491 129.757 221.304 133.324 222.641 126.601C223.979 119.878 223.807 114.493 219.005 103.277C214.203 92.0612 212.969 89.18 212.969 89.18C212.969 89.18 207 75.117 190.605 76.832L175.582 75.117C175.582 75.117 174.004 73.5735 170.197 77.2093C170.197 77.2093 155.928 77.9639 153.904 84.7896C151.88 91.6153 149.685 110 150.92 119.227C152.155 128.419 154.556 137.646 169.03 135.348L165.635 160.044Z" fill="#191919"/>
<path d="M179.046 83.4519C179.046 83.4519 182.956 94.5308 184.054 102.283C185.117 110.034 185.735 112.778 185.735 112.778C185.735 112.778 195.99 111.338 197.534 111.235C197.534 111.235 196.505 97.9608 195.922 95.9028C195.339 93.8448 193.452 83.8292 193.178 81.8741C192.869 79.919 191.874 77.6552 191.874 77.6552L186.18 75.803L179.046 83.4519Z" fill="#105AFF"/>
<path d="M185.735 113.293C185.494 113.293 185.289 113.121 185.22 112.881C185.186 112.778 184.603 110.034 183.539 102.351C182.476 94.7366 178.6 83.7263 178.566 83.6234C178.497 83.4519 178.532 83.2461 178.669 83.1089L185.837 75.46C185.975 75.3228 186.18 75.2542 186.386 75.3228L192.08 77.175C192.217 77.2093 192.32 77.3122 192.389 77.4494C192.423 77.5523 193.418 79.7818 193.726 81.8055C194.001 83.7263 195.887 93.7762 196.47 95.7656C197.053 97.8579 198.048 110.686 198.083 111.201C198.083 111.338 198.048 111.475 197.945 111.578C197.842 111.681 197.739 111.749 197.602 111.749C196.059 111.852 185.94 113.259 185.837 113.293C185.769 113.293 185.735 113.293 185.735 113.293ZM179.629 83.5548C180.247 85.3727 183.574 95.1825 184.568 102.214C185.391 108.114 185.94 111.132 186.146 112.195C188.033 111.921 194.755 110.995 196.985 110.789C196.608 106.09 195.887 97.5835 195.441 96.04C194.858 93.982 193.006 84.035 192.663 81.9427C192.423 80.3992 191.737 78.6499 191.497 78.0668L186.352 76.3861L179.629 83.5548Z" fill="black"/>
<path d="M188.513 135.794L193.486 140.596L195.716 136.48L188.513 76.5919H184.019L188.513 135.794Z" fill="#FFDD6F"/>
<path d="M185.734 112.778L197.534 111.235L196.71 128.11L193.486 126.601L186.009 129.448L185.734 112.778Z" fill="#191919"/>
<path d="M186.969 196.711C186.935 196.711 186.935 196.711 186.969 196.711C186.661 196.676 186.455 196.436 186.455 196.162L187.93 171.466C187.93 171.363 187.964 171.26 188.033 171.157L191.497 166.904C191.668 166.698 192.011 166.664 192.217 166.835C192.423 167.007 192.457 167.35 192.286 167.556L188.924 171.706L187.484 196.23C187.449 196.505 187.244 196.711 186.969 196.711Z" fill="black"/>
<path d="M158.329 108.594C158.157 107.496 161.896 103.86 163.199 103.037C164.503 102.214 168.962 101.082 171.534 103.826C174.107 106.536 179.766 114.391 179.766 114.391C179.766 114.391 175.444 117.169 171.603 116.071C171.603 116.071 168.893 119.947 166.801 120.359C164.709 120.77 164.469 120.05 164.469 120.05C164.469 120.05 168.55 113.705 174.553 112.161C174.553 112.161 173.524 110.48 172.152 111.338C170.78 112.161 164.4 116.654 163.748 118.781C163.748 118.781 162.136 118.404 162.788 117.032C163.44 115.66 167.315 110.549 172.117 109.211C172.117 109.211 172.769 107.976 172.117 107.976C171.466 107.976 162.651 113.293 162.205 114.974C162.205 114.974 161.244 113.602 162.582 111.852C163.954 110.103 166.972 106.81 170.162 106.399C170.162 106.399 170.3 105.164 169.03 105.37C167.761 105.575 164.709 105.438 164.4 105.37C164.091 105.301 160.661 108.937 160.25 109.108C159.872 109.246 158.535 109.76 158.329 108.594Z" fill="white"/>
<path d="M175.582 75.117L178.463 83.2804L182.956 87.6365L186.009 75.8716L178.326 72.4759L175.582 75.117Z" fill="white"/>
<path d="M183.231 88.6312L178.017 83.5548L174.964 74.9798L178.188 71.8585L186.592 75.5972L183.231 88.6312ZM178.909 82.9717L182.682 86.6418L185.426 76.146L178.463 73.059L176.199 75.2542L178.909 82.9717Z" fill="black"/>
<path d="M191.566 86.8133L193.486 83.349C193.486 83.349 192.286 76.6262 192.08 76.6262C191.874 76.6262 188.444 75.1513 188.444 73.6078C188.444 72.0643 188.444 73.6078 188.444 73.6078L186.009 75.9059L191.566 86.8133Z" fill="white"/>
<path d="M191.531 87.9109L185.357 75.7344L187.93 73.3334V72.8532H188.959V73.5392C188.959 74.5682 191.497 75.8716 192.114 76.0431C192.594 76.0431 192.766 76.2832 193.966 83.2118L194.001 83.3833L191.531 87.9109ZM186.661 75.9745L191.6 85.7157L192.972 83.2461C192.492 80.605 191.943 77.7581 191.737 77.0035C190.879 76.6948 188.959 75.7001 188.238 74.4653L186.661 75.9745ZM191.874 77.0721C191.943 77.1064 191.977 77.1064 192.08 77.1064C192.046 77.1064 191.977 77.1064 191.874 77.0721Z" fill="black"/>
<path d="M194.961 50.4896C194.961 50.4896 198.974 63.6608 188.444 69.0802V73.6078L186.009 75.9059L178.326 72.5102L177.846 66.6449L173.215 61.5685L170.197 54.9829L176.336 44.0412L195.716 46.3393L194.961 50.4896Z" fill="white"/>
<path d="M186.112 76.489L177.811 72.8189L177.331 66.8507L172.769 61.9115L169.579 55.0172L176.028 43.5267L196.299 45.9277L195.476 50.4896C195.853 51.8616 198.837 64.0724 188.959 69.3889V73.8136L186.112 76.489ZM178.806 72.1329L185.906 75.2885L187.93 73.3677V68.7715L188.204 68.6343C192.389 66.4734 194.721 62.8376 195.133 57.7612C195.441 53.9196 194.481 50.6954 194.481 50.6611L194.447 50.5582L195.133 46.8195L176.611 44.6243L170.78 55.0515L173.661 61.3284L178.36 66.4391L178.806 72.1329Z" fill="black"/>
<path d="M178.394 51.6558C178.394 51.6558 181.378 48.9461 184.02 51.6558" stroke="black" stroke-width="3" stroke-miterlimit="10" stroke-linecap="round" stroke-linejoin="round"/>
<path d="M190.434 49.8379C190.434 49.8379 184.946 52.1703 186.935 56.4921C188.547 59.9564 188.547 59.9564 188.547 59.9564L187.278 61.5342" stroke="black" stroke-width="3" stroke-miterlimit="10" stroke-linecap="round" stroke-linejoin="round"/>
<path d="M180.452 62.083C180.452 62.083 181.859 65.513 186.009 64.3811" stroke="black" stroke-width="3" stroke-miterlimit="10" stroke-linecap="round" stroke-linejoin="round"/>
<path d="M182.956 68.5314C182.956 68.5314 185.803 69.7662 188.479 69.0802" stroke="black" stroke-width="3" stroke-miterlimit="10" stroke-linecap="round" stroke-linejoin="round"/>
<path d="M177.845 66.6106C177.845 66.6106 179.663 67.8111 180.452 67.9826" stroke="black" stroke-width="3" stroke-miterlimit="10" stroke-linecap="round" stroke-linejoin="round"/>
<path d="M181.344 57.0409C181.837 57.0409 182.236 56.3345 182.236 55.4631C182.236 54.5917 181.837 53.8853 181.344 53.8853C180.852 53.8853 180.452 54.5917 180.452 55.4631C180.452 56.3345 180.852 57.0409 181.344 57.0409Z" fill="black"/>
<path d="M128.625 85.6814C128.966 85.6814 129.242 85.19 129.242 84.5838C129.242 83.9776 128.966 83.4862 128.625 83.4862C128.284 83.4862 128.008 83.9776 128.008 84.5838C128.008 85.19 128.284 85.6814 128.625 85.6814Z" fill="black"/>
<path d="M135.313 84.9268C135.692 84.9268 135.999 84.3586 135.999 83.6577C135.999 82.9568 135.692 82.3886 135.313 82.3886C134.935 82.3886 134.628 82.9568 134.628 83.6577C134.628 84.3586 134.935 84.9268 135.313 84.9268Z" fill="black"/>
<path d="M238.27 63.0811C238.752 62.977 238.993 62.2022 238.809 61.3505C238.625 60.4988 238.085 59.8927 237.604 59.9968C237.122 60.1009 236.881 60.8757 237.065 61.7274C237.249 62.5791 237.789 63.1851 238.27 63.0811Z" fill="black"/>
<path d="M246.361 61.6423C246.843 61.5383 247.084 60.7634 246.899 59.9117C246.715 59.06 246.176 58.454 245.694 58.558C245.213 58.6621 244.972 59.4369 245.156 60.2886C245.34 61.1403 245.88 61.7464 246.361 61.6423Z" fill="black"/>
<path d="M190.639 57.0409C191.132 57.0409 191.531 56.3345 191.531 55.4631C191.531 54.5917 191.132 53.8853 190.639 53.8853C190.147 53.8853 189.748 54.5917 189.748 55.4631C189.748 56.3345 190.147 57.0409 190.639 57.0409Z" fill="black"/>
<path d="M202.542 48.9461C202.542 48.9461 199.695 53.6452 197.054 52.9592C194.412 52.2732 188.033 48.0543 185.186 47.9171C182.373 47.8142 177.743 47.1625 177.743 47.1625C177.743 47.1625 176.474 48.1915 176.542 51.5529C176.611 54.9143 176.954 58.996 176.954 58.996L175.822 59.339L174.518 57.1781C174.518 57.1781 172.529 57.4525 172.872 58.7902C173.215 60.1279 173.798 61.2598 174.518 61.5342C175.273 61.8086 175.993 61.9458 175.993 61.9458C175.993 61.9458 176.919 65.5473 177.88 66.6449C178.84 67.7425 175.033 64.0038 174.038 63.6608C173.078 63.3178 165.703 52.6162 168.482 47.9514C171.294 43.2523 172.941 43.3895 172.941 43.3895C172.941 43.3895 173.112 42.8064 173.592 42.0518C174.69 40.1653 177.434 37.0097 183.299 37.4556C191.6 38.073 196.951 43.7325 198.083 43.8011C198.769 43.8354 199.763 43.8011 200.209 43.9383C200.484 44.0412 200.586 44.247 200.243 44.59C199.386 45.5161 198.46 46.991 198.46 46.991L202.542 48.9461Z" fill="#191919"/>
<path d="M198.666 45.2074C198.323 45.619 198.083 46.1335 197.74 46.2364C196.23 46.6823 196.025 45.7562 194.515 44.6929C193.006 43.6296 185.803 40.3711 182.064 40.1653C179.423 40.0281 175.925 42.0861 174.073 43.3209C175.102 41.4344 177.64 38.2788 183.025 38.7247C190.674 39.3421 196.093 44.2127 196.676 45.0702C197.294 45.8934 198.254 45.0359 198.666 45.2074Z" fill="white"/>
<path d="M101.94 125.504C101.94 125.504 105.747 123.583 106.982 123.206C108.217 122.828 109.211 122.76 109.211 122.76" stroke="black" stroke-width="3" stroke-miterlimit="10" stroke-linecap="round" stroke-linejoin="round"/>
<path d="M101.94 128.625C101.94 128.625 109.108 125.881 110.446 125.709" stroke="black" stroke-width="3" stroke-miterlimit="10" stroke-linecap="round" stroke-linejoin="round"/>
<path d="M103.998 130.786C103.998 130.786 109.932 128.488 110.823 128.419" stroke="black" stroke-width="3" stroke-miterlimit="10" stroke-linecap="round" stroke-linejoin="round"/>
</svg>
