<svg width="300" height="229" viewBox="0 0 300 229" fill="none" xmlns="http://www.w3.org/2000/svg">
<path d="M260.533 208.248C272.805 208.248 282.753 198.3 282.753 186.029C282.753 173.757 272.805 163.809 260.533 163.809C248.262 163.809 238.314 173.757 238.314 186.029C238.314 198.3 248.262 208.248 260.533 208.248Z" fill="#A6D2FF"/>
<path d="M247.559 154.836C249.619 154.836 251.288 153.167 251.288 151.107C251.288 149.048 249.619 147.378 247.559 147.378C245.5 147.378 243.83 149.048 243.83 151.107C243.83 153.167 245.5 154.836 247.559 154.836Z" fill="#D3BEFF"/>
<path d="M67.0853 200.363C87.3803 200.363 103.833 184.084 103.833 164.004C103.833 143.923 87.3803 127.645 67.0853 127.645C46.7902 127.645 30.3379 143.923 30.3379 164.004C30.3379 184.084 46.7902 200.363 67.0853 200.363Z" fill="#FECE26"/>
<path d="M198.42 200.44V214.619H127.334C123.411 214.619 120.225 211.395 120.225 207.393C120.225 203.392 123.411 200.168 127.373 200.168C146.718 200.246 198.77 200.44 198.42 200.44Z" fill="#E8F4FF"/>
<path d="M199.353 215.784H127.606C123.1 215.784 119.41 212.133 119.41 207.588C119.41 203.043 123.061 199.391 127.606 199.391H199.508C199.935 199.391 200.285 199.741 200.285 200.168C200.285 200.596 199.935 200.945 199.508 200.945H127.606C123.954 200.945 120.963 203.936 120.963 207.588C120.963 211.239 123.954 214.23 127.606 214.23H199.353C199.78 214.23 200.129 214.58 200.129 215.007C200.129 215.434 199.78 215.784 199.353 215.784Z" fill="#ADD3FF"/>
<path d="M285.045 200.44V214.619H213.958C210.035 214.619 206.85 211.395 206.85 207.393C206.85 203.392 210.035 200.168 213.997 200.168C233.342 200.246 285.394 200.44 285.045 200.44Z" fill="#E8F4FF"/>
<path d="M253.464 204.169L284.812 203.587V204.48L253.464 204.169Z" fill="#D1DAE1"/>
<path d="M266.826 207.588L284.889 207.083V208.248L266.826 207.588Z" fill="#D1DAE1"/>
<path d="M166.839 204.169L198.187 203.587V204.48L166.839 204.169Z" fill="#D1DAE1"/>
<path d="M180.202 207.588L198.265 207.083V208.248L180.202 207.588Z" fill="#D1DAE1"/>
<path d="M285.977 215.784H214.23C209.724 215.784 206.034 212.133 206.034 207.588C206.034 203.043 209.685 199.391 214.23 199.391H286.132C286.56 199.391 286.909 199.741 286.909 200.168C286.909 200.596 286.56 200.945 286.132 200.945H214.23C210.579 200.945 207.588 203.936 207.588 207.588C207.588 211.239 210.579 214.23 214.23 214.23H285.977C286.404 214.23 286.754 214.58 286.754 215.007C286.754 215.434 286.404 215.784 285.977 215.784Z" fill="#FFD66D"/>
<path d="M42.0691 133.782C41.836 133.782 41.6807 133.627 41.6807 133.394V108.416H65.8811V97.3456H78.4669C78.7 97.3456 78.8553 97.501 78.8553 97.7341C78.8553 97.9671 78.7 98.1225 78.4669 98.1225H66.6968V109.193H42.4964V133.394C42.4576 133.588 42.2633 133.782 42.0691 133.782Z" fill="#A5D5FF"/>
<path d="M77.8454 95.6364V99.9094L82.1183 98.2002L77.8454 95.6364Z" fill="#A5D5FF"/>
<path d="M118.438 163.848V181.95H33.7563C28.823 181.95 24.8608 177.91 24.8608 172.899C24.8608 167.888 28.8618 163.848 33.7563 163.848H118.438Z" stroke="black" stroke-width="0.9924" stroke-miterlimit="10" stroke-linecap="round"/>
<path d="M34.2613 182.067H115.836C120.808 182.067 124.848 178.027 124.848 173.054C124.848 168.082 120.808 164.042 115.836 164.042H34.2613C29.2891 164.042 25.2493 168.082 25.2493 173.054C25.2493 178.027 29.2891 182.067 34.2613 182.067Z" fill="#E8F4FF"/>
<path d="M119.643 182.494H33.9894C28.5123 182.494 24.0839 178.027 24.0839 172.588C24.0839 167.15 28.5511 162.683 33.9894 162.683H119.876V164.625H33.9894C29.5999 164.625 26.0262 168.199 26.0262 172.588C26.0262 176.978 29.5999 180.552 33.9894 180.552H119.643V182.494Z" fill="#FC3935"/>
<path d="M101.968 182.61H46.614V195.157H101.968V182.61Z" fill="#E8F4FF"/>
<path d="M16.043 195.157V213.686H101.774C106.785 213.686 110.864 209.608 110.864 204.597C110.864 199.624 106.824 195.546 101.852 195.507C78.1562 195.429 15.9653 195.08 16.043 195.157Z" fill="#E8F4FF"/>
<path d="M101.735 214.735H14.7611C14.3338 214.735 13.9842 214.386 13.9842 213.958C13.9842 213.531 14.3338 213.181 14.7611 213.181H101.735C106.474 213.181 110.32 209.336 110.32 204.597C110.32 199.858 106.474 196.012 101.735 196.012H14.7611C14.3338 196.012 13.9842 195.662 13.9842 195.235C13.9842 194.808 14.3338 194.458 14.7611 194.458H101.735C107.329 194.458 111.874 199.003 111.874 204.597C111.874 210.19 107.329 214.735 101.735 214.735Z" fill="#FFD66D"/>
<path d="M15.9652 198.692L51.0423 199.197L16.0429 200.44L15.9652 198.692Z" fill="#D1DAE1"/>
<path d="M16.0429 208.287L62.5016 208.947L16.0429 209.647V208.287Z" fill="#D1DAE1"/>
<path d="M116.224 198.032V173.404H237.382C244.374 173.404 250.084 178.998 250.084 185.873C250.084 192.788 244.413 198.381 237.382 198.343C203.975 198.381 116.224 198.343 116.224 198.032Z" fill="#E8F4FF"/>
<path d="M182.416 178.415L116.185 177.677V179.969L182.416 178.415Z" fill="#D1DAE1"/>
<path d="M175.308 191.428L116.185 190.224V192.632L175.308 191.428Z" fill="#D1DAE1"/>
<path d="M54.0334 136.929C50.887 140.269 53.4896 143.727 53.4896 143.727C53.4896 143.727 50.8481 146.174 49.9935 146.174C49.1778 146.174 48.1678 148.893 50.1877 149.981C52.2077 151.107 47.3909 150.952 48.2455 153.127C49.1001 155.302 52.2077 156.118 54.9268 155.419C57.646 154.72 65.8423 153.049 66.7357 153.205C67.6292 153.36 71.5914 153.554 72.0963 150.835C72.6013 148.116 71.5525 148.621 71.9798 147.883C72.4071 147.145 72.174 143.843 70.3095 143.649C68.4449 143.455 70.7756 140.23 69.6879 139.609C68.6003 138.987 67.0853 138.133 67.0853 137.006C67.0853 135.919 66.658 130.092 63.0455 132.228C59.4329 134.404 58.384 135.025 57.2575 135.258C56.1699 135.53 54.0334 136.929 54.0334 136.929Z" fill="#16153D"/>
<path d="M58.384 136.501C58.384 136.501 59.3163 137.278 59.3163 137.783C59.3163 138.288 57.374 138.871 57.6848 139.803C57.9567 140.735 60.0932 142.017 58.5394 144.698C58.5394 144.698 56.3252 142.755 55.3153 144.348C54.3053 145.941 56.1698 148.388 58.1509 146.562C58.1509 146.562 59.8213 148.582 59.394 150.136C58.9667 151.69 52.9457 156.662 52.1688 157.361C51.3919 158.021 53.4507 161.401 56.7525 161.867C60.0155 162.333 69.4548 162.644 70.5425 158.255C70.5425 158.255 63.9 152.855 63.6669 151.962C63.4339 151.029 63.5115 149.709 63.9 149.476C64.2885 149.243 67.5514 149.281 67.5514 147.184C67.5514 145.086 66.7745 141.473 66.8134 140.735C66.8522 139.997 65.9976 136.618 64.405 136.734C62.8123 136.851 62.2297 137.55 61.6081 137.55C60.9866 137.55 59.899 138.327 59.394 137.123C59.4328 137.162 58.6948 136.424 58.384 136.501Z" fill="#FC7E56"/>
<path d="M59.7825 142.6C59.6271 142.561 59.5883 142.484 59.5883 142.367C59.5883 142.328 59.7825 141.357 60.5594 140.852C61.0256 140.541 61.5694 140.502 62.2297 140.658C62.3463 140.697 62.3851 140.774 62.3851 140.891C62.3463 141.007 62.2686 141.046 62.1521 141.046C61.6082 140.891 61.1421 140.969 60.7925 141.202C60.171 141.629 60.0156 142.445 60.0156 142.484C59.9767 142.522 59.899 142.6 59.7825 142.6Z" fill="black"/>
<path d="M66.1919 140.386C66.1142 140.386 66.0754 140.347 66.0366 140.308C65.8035 139.997 65.5316 139.803 65.2597 139.764C64.6381 139.687 64.0943 140.192 64.0943 140.231C64.0166 140.308 63.9001 140.308 63.8224 140.231C63.7447 140.153 63.7447 140.036 63.8224 139.959C63.8612 139.92 64.5216 139.337 65.2985 139.415C65.7258 139.454 66.0754 139.687 66.3473 140.114C66.425 140.192 66.3862 140.308 66.3085 140.386C66.2308 140.386 66.2308 140.386 66.1919 140.386Z" fill="black"/>
<path d="M65.0654 145.436C64.9877 145.436 64.9489 145.397 64.91 145.358C64.8712 145.28 64.8712 145.164 64.9489 145.086C65.9588 144.426 65.92 144.193 65.92 144.193C65.92 144.193 65.8811 144.115 65.5704 144.076C64.2885 143.921 63.7447 141.279 63.7058 140.969C63.7058 140.852 63.7447 140.774 63.8612 140.735C63.9777 140.735 64.0554 140.774 64.0943 140.891C64.2108 141.629 64.7546 143.571 65.6092 143.649C65.7646 143.649 66.2307 143.727 66.3084 144.037C66.3861 144.387 66.0365 144.775 65.1431 145.319C65.1431 145.436 65.1042 145.436 65.0654 145.436Z" fill="#BC5333"/>
<path d="M64.3662 147.184C63.7058 147.184 63.2397 146.951 63.2397 146.951C63.162 146.912 63.1231 146.795 63.162 146.679C63.2008 146.601 63.3173 146.562 63.4339 146.601C63.5116 146.64 64.91 147.3 66.2307 145.98C66.3084 145.902 66.4249 145.902 66.5026 145.98C66.5803 146.057 66.5803 146.174 66.5026 146.252C65.7257 146.99 64.9488 147.184 64.3662 147.184Z" fill="#BC5333"/>
<path d="M62.3851 143.688C62.6855 143.688 62.9289 143.427 62.9289 143.105C62.9289 142.783 62.6855 142.522 62.3851 142.522C62.0848 142.522 61.8413 142.783 61.8413 143.105C61.8413 143.427 62.0848 143.688 62.3851 143.688Z" fill="#15173D"/>
<path d="M65.5704 142.561C65.8708 142.561 66.1142 142.3 66.1142 141.978C66.1142 141.657 65.8708 141.396 65.5704 141.396C65.2701 141.396 65.0266 141.657 65.0266 141.978C65.0266 142.3 65.2701 142.561 65.5704 142.561Z" fill="#15173D"/>
<path d="M52.3631 157.05C52.3631 157.05 37.9127 178.493 41.9526 186.184L82.3514 185.912C82.3514 185.912 76.2527 162.916 70.426 158.06C70.426 158.021 61.6082 165.13 52.3631 157.05Z" fill="#A6D2FF"/>
<path d="M67.0465 166.49L58.5005 186.029L84.9152 186.068L92.9949 167.694C93.4222 166.684 92.6842 165.557 91.5965 165.557H68.406C67.8622 165.557 67.3184 165.907 67.0465 166.49Z" fill="#15173D"/>
<path d="M84.5267 175.696C84.5267 175.696 82.8176 176.201 83.8664 177.405L87.7509 177.483C87.7509 177.483 83.1283 177.716 83.1283 178.143C83.1283 178.571 83.206 179.425 84.0606 179.425C84.9152 179.425 87.1682 179.309 87.1682 179.309L83.9052 180.085C83.9052 180.085 83.2837 180.862 84.2937 180.94C85.3425 181.018 86.6632 180.94 86.6632 180.94L84.2937 181.6C84.2937 181.6 84.2937 182.688 85.1094 182.649C85.9252 182.61 88.3335 182.261 88.3335 182.261C88.3335 182.261 89.4212 181.872 89.227 180.746C89.227 180.746 89.8873 179.969 89.732 179.386C89.732 179.386 90.4312 178.609 90.1981 177.832C90.1981 177.832 90.8973 176.007 89.732 175.774C88.5666 175.502 84.5267 175.696 84.5267 175.696Z" fill="#FC7E56"/>
<path d="M80.3314 186.068C80.3314 186.068 89.4989 189.913 89.3823 196.284C89.2658 202.654 83.4002 202.033 77.2627 202.538C71.1252 203.043 60.1709 203.742 60.1709 203.742L50.2266 186.029L80.3314 186.068Z" fill="#FF454A"/>
<path d="M58.889 194.73C58.889 194.73 71.7078 190.03 77.7288 190.379" stroke="black" stroke-miterlimit="10" stroke-linecap="round"/>
<path d="M74.3105 188.476C74.3105 188.476 72.3682 189.874 72.5625 190.884" stroke="black" stroke-miterlimit="10" stroke-linecap="round"/>
<path d="M70.1541 217.221C68.678 218.309 66.6192 218.037 65.4538 216.639L59.8213 208.87L63.2008 205.568L70.6591 212.055C72.0575 213.609 71.8244 215.978 70.1541 217.221Z" fill="#252A6C"/>
<path d="M33.7952 176.201C27.7354 179.58 34.1837 189.136 38.1847 193.099C42.1469 197.061 60.2487 212.21 60.2487 212.21L66.93 206.034L47.4298 180.785C47.4298 180.785 40.9427 172.239 33.7952 176.201Z" fill="#FC4349"/>
<path d="M51.5862 186.262L64.6381 203.315" stroke="black" stroke-miterlimit="10" stroke-linecap="round"/>
<path d="M54.0722 166.995L52.2853 177.094L61.3362 179.153" stroke="black" stroke-miterlimit="10" stroke-linecap="round"/>
<path d="M55.3541 169.053L53.3342 171.268" stroke="black" stroke-miterlimit="10" stroke-linecap="round"/>
<path d="M237.615 199.314H117.195V197.371H237.615C244.063 197.371 249.307 192.127 249.307 185.679V185.485C249.307 179.037 244.063 173.793 237.615 173.793H116.574V171.85H237.615C245.112 171.85 251.25 177.949 251.25 185.485V185.679C251.25 193.215 245.112 199.314 237.615 199.314Z" fill="#FC3935"/>
<path d="M145.98 155.225H143.26V196.828H145.98V155.225Z" fill="#14163C"/>
<path d="M139.959 188.942C139.959 188.942 137.822 194.031 139.259 197.449L158.216 197.372C158.216 197.372 158.216 194.38 156.584 194.38C154.914 194.38 146.951 189.059 146.951 189.059L139.959 188.942Z" fill="#292C71"/>
<path d="M115.603 188.864C115.603 188.864 113.311 193.642 114.865 196.206L116.108 197.333L134.248 197.294C134.248 197.294 133.433 194.536 132.073 194.419C130.713 194.342 123.605 191.856 122.983 189.292C122.323 186.767 115.603 188.864 115.603 188.864Z" fill="#2B2B71"/>
<path d="M139.337 194.847C139.337 194.847 141.901 194.264 142.367 195.973H155.497C155.497 195.973 156.157 194.769 156.545 194.769" stroke="white" stroke-miterlimit="10" stroke-linecap="round"/>
<path d="M114.865 194.963C114.865 194.963 116.924 194.652 117.467 196.012H131.102C131.102 196.012 131.413 195.002 132.112 194.963" stroke="white" stroke-miterlimit="10" stroke-linecap="round"/>
<path d="M148.038 192.749C148.038 192.749 149.786 191.234 150.641 191.506" stroke="white" stroke-miterlimit="10" stroke-linecap="round"/>
<path d="M149.32 193.992C149.32 193.992 150.758 192.166 152.078 192.399" stroke="white" stroke-miterlimit="10" stroke-linecap="round"/>
<path d="M151.34 194.303C151.34 194.303 152.272 192.71 153.71 193.37" stroke="white" stroke-miterlimit="10" stroke-linecap="round"/>
<path d="M122.478 192.827C122.478 192.827 124.149 191.312 125.625 192.05" stroke="white" stroke-miterlimit="10" stroke-linecap="round"/>
<path d="M123.605 193.759C123.605 193.759 125.431 192.166 127.14 192.827" stroke="white" stroke-miterlimit="10" stroke-linecap="round"/>
<path d="M125.469 194.38C125.469 194.38 127.334 193.06 128.771 193.642" stroke="white" stroke-miterlimit="10" stroke-linecap="round"/>
<path d="M164.353 155.38H124.498V152.544H164.353C165.13 152.544 165.79 153.166 165.79 153.982C165.79 154.72 165.13 155.38 164.353 155.38Z" fill="#14163C"/>
<path d="M119.992 161.712C119.992 161.712 115.253 171.423 115.253 177.25C115.253 183.077 114.709 189.836 114.709 189.836L123.605 190.263C123.605 190.263 126.13 171.967 128.266 169.325C130.364 166.684 131.879 159.07 130.48 158.449C129.082 157.827 120.73 158.099 119.992 161.712Z" fill="#1155C0"/>
<path d="M89.9262 155.225C89.9262 155.225 92.8396 163.421 101.735 163.304L123.333 163.188L137.939 189.719H147.961L133.588 154.176C133.588 154.176 131.918 151.69 130.558 151.573C129.199 151.457 103.017 149.981 103.017 149.981L89.9262 155.225Z" fill="#1470FF"/>
<path d="M161.945 150.952H145.941V152.583H161.945V150.952Z" fill="#3641C1"/>
<path d="M90.975 106.785C90.975 106.785 87.984 109.154 90.7808 112.884C93.5388 116.613 94.238 116.768 94.238 116.768L98.2002 112.417C98.2002 112.417 98.744 110.203 97.8506 109.038L102.629 106.125C102.629 106.125 104.144 101.813 101.191 101.347C98.2002 100.88 98.4721 103.017 97.1126 103.134C95.753 103.25 90.4312 103.755 90.975 106.785Z" fill="#15173D"/>
<path d="M99.3267 104.415C99.3267 104.415 100.22 108.222 97.6175 108.96C97.6175 108.96 98.2779 110.631 98.2779 111.174C98.2779 111.679 98.0836 112.34 98.0836 112.34C98.0836 112.34 96.6464 111.213 95.7141 112.068C94.976 112.767 94.743 113.777 95.5199 114.632C96.2968 115.447 93.7718 116.535 93.7718 116.535L93.3445 121.158L99.8317 123.838C99.8317 123.838 98.8994 117.778 99.7928 117.623C99.7928 117.623 107.251 119.293 105.115 112.534C105.115 112.534 106.63 111.174 106.319 110.864C106.008 110.553 104.105 110.397 103.833 109.931C103.561 109.465 102.823 104.765 99.3267 104.415Z" fill="#EC6F53"/>
<path d="M132.539 152.583C132.539 152.583 131.918 151.224 133.743 150.447C135.569 149.67 139.298 150.486 139.298 150.486C139.298 150.486 140.036 151.418 139.997 152.583C139.997 152.544 132.5 152.583 132.539 152.583Z" fill="#322F7E"/>
<path d="M86.3525 90.1204C88.1005 88.6443 89.1105 86.8574 89.1105 84.9152C89.1105 80.0595 82.7788 76.0974 74.9321 76.0974C67.0854 76.0974 60.7536 80.0595 60.7536 84.9152C60.7536 89.7708 67.0854 93.733 74.9321 93.733C77.6901 93.733 80.2538 93.228 82.4291 92.4123L88.6443 94.7818L86.3525 90.1204Z" fill="#D2BDFE"/>
<path d="M64.6381 85.6144L69.8434 83.5168L72.9898 86.2359L79.2438 83.3225L81.5357 86.0028L85.4979 84.3325" stroke="white" stroke-width="2" stroke-miterlimit="10" stroke-linecap="round"/>
<path d="M127.373 148.582C127.373 148.582 131.335 147.378 131.918 147.067C132.5 146.756 138.327 146.407 139.492 149.709C139.492 149.709 139.104 150.291 136.851 150.563C134.598 150.835 133.005 151.224 132.578 151.612C132.112 152.001 129.975 152.505 128.422 152.428C126.829 152.35 127.373 148.582 127.373 148.582Z" fill="#EC6F53"/>
<path d="M136.89 150.757C136.812 150.757 136.773 150.719 136.734 150.641C135.958 149.281 133.238 150.058 133.2 150.058C133.083 150.097 133.005 150.019 132.966 149.942C132.928 149.825 133.005 149.747 133.083 149.709C133.2 149.67 136.152 148.815 137.084 150.447C137.123 150.524 137.123 150.641 137.006 150.719C136.929 150.757 136.89 150.757 136.89 150.757Z" fill="#BC5333"/>
<path d="M138.405 150.214C138.327 150.214 138.288 150.175 138.249 150.136C136.657 147.844 133.976 148.66 133.86 148.699C133.743 148.738 133.666 148.66 133.627 148.582C133.588 148.466 133.666 148.388 133.743 148.349C133.782 148.349 136.812 147.417 138.599 149.942C138.677 150.019 138.638 150.136 138.56 150.214C138.482 150.214 138.444 150.214 138.405 150.214Z" fill="#BC5333"/>
<path d="M94.0049 120.07C94.0049 120.07 92.723 120.031 92.3346 121.663C91.9461 123.294 87.9451 136.152 88.0228 143.571C88.1393 150.991 88.9551 157.128 90.0427 157.128C91.1304 157.128 102.745 151.262 102.745 151.262C102.745 151.262 103.056 152.311 104.92 152.311C106.785 152.311 128.383 152.428 128.383 152.428V147.339L108.183 143.649L99.8317 122.672L94.0049 120.07Z" fill="#F74747"/>
<path d="M94.0049 139.143L102.784 151.301" stroke="black" stroke-width="1.0081" stroke-miterlimit="10" stroke-linecap="round"/>
<path d="M93.4222 140.58L95.5587 141.318" stroke="black" stroke-width="1.0081" stroke-miterlimit="10" stroke-linecap="round"/>
<path d="M92.2569 128.965C92.2569 128.965 93.3057 123.372 99.987 124.692" stroke="black" stroke-width="1.0081" stroke-miterlimit="10" stroke-linecap="round"/>
<path d="M108.144 146.057L108.222 143.688L106.163 144.931" stroke="black" stroke-width="1.0081" stroke-miterlimit="10" stroke-linecap="round"/>
<path d="M99.8706 110.009C99.754 110.009 99.6763 109.893 99.6763 109.815C99.6763 109.776 99.7152 108.96 100.337 108.416C100.686 108.106 101.191 107.989 101.735 108.067C101.852 108.067 101.929 108.183 101.89 108.3C101.89 108.416 101.774 108.494 101.657 108.455C101.191 108.416 100.803 108.494 100.531 108.727C100.065 109.116 99.9871 109.815 99.9871 109.815C100.065 109.931 99.9482 110.009 99.8706 110.009Z" fill="black"/>
<path d="M101.657 110.825C101.893 110.825 102.085 110.634 102.085 110.398C102.085 110.162 101.893 109.97 101.657 109.97C101.421 109.97 101.23 110.162 101.23 110.398C101.23 110.634 101.421 110.825 101.657 110.825Z" fill="#15173D"/>
<path d="M104.493 114.942C103.134 114.942 102.434 114.399 102.395 114.36L102.629 114.049C102.629 114.049 103.522 114.748 105.309 114.476L105.387 114.865C105.037 114.904 104.765 114.942 104.493 114.942Z" fill="#BC5333"/>
<path d="M212.094 139.454H178.337V172.394H212.094V139.454Z" fill="#15173D"/>
<path d="M229.962 165.79H160.702V172.433H229.962V165.79Z" fill="#282A74"/>
<path d="M108.883 24.7831C109.612 24.7831 110.203 24.1918 110.203 23.4624C110.203 22.733 109.612 22.1417 108.883 22.1417C108.153 22.1417 107.562 22.733 107.562 23.4624C107.562 24.1918 108.153 24.7831 108.883 24.7831Z" fill="#AACBF8"/>
<path d="M108.883 31.1925C109.612 31.1925 110.203 30.6012 110.203 29.8718C110.203 29.1424 109.612 28.5511 108.883 28.5511C108.153 28.5511 107.562 29.1424 107.562 29.8718C107.562 30.6012 108.153 31.1925 108.883 31.1925Z" fill="#AACBF8"/>
<path d="M108.96 37.4855C109.69 37.4855 110.281 36.8941 110.281 36.1647C110.281 35.4353 109.69 34.844 108.96 34.844C108.231 34.844 107.64 35.4353 107.64 36.1647C107.64 36.8941 108.231 37.4855 108.96 37.4855Z" fill="#AACBF8"/>
<path d="M108.96 43.856C109.69 43.856 110.281 43.2647 110.281 42.5353C110.281 41.8059 109.69 41.2146 108.96 41.2146C108.231 41.2146 107.64 41.8059 107.64 42.5353C107.64 43.2647 108.231 43.856 108.96 43.856Z" fill="#AACBF8"/>
<path d="M108.96 50.0712C109.69 50.0712 110.281 49.4799 110.281 48.7505C110.281 48.0211 109.69 47.4298 108.96 47.4298C108.231 47.4298 107.64 48.0211 107.64 48.7505C107.64 49.4799 108.231 50.0712 108.96 50.0712Z" fill="#AACBF8"/>
<path d="M108.96 56.4807C109.69 56.4807 110.281 55.8894 110.281 55.1599C110.281 54.4305 109.69 53.8392 108.96 53.8392C108.231 53.8392 107.64 54.4305 107.64 55.1599C107.64 55.8894 108.231 56.4807 108.96 56.4807Z" fill="#AACBF8"/>
<path d="M115.098 24.7831C115.827 24.7831 116.419 24.1918 116.419 23.4624C116.419 22.733 115.827 22.1417 115.098 22.1417C114.368 22.1417 113.777 22.733 113.777 23.4624C113.777 24.1918 114.368 24.7831 115.098 24.7831Z" fill="#AACBF8"/>
<path d="M115.098 31.1925C115.827 31.1925 116.419 30.6012 116.419 29.8718C116.419 29.1424 115.827 28.5511 115.098 28.5511C114.368 28.5511 113.777 29.1424 113.777 29.8718C113.777 30.6012 114.368 31.1925 115.098 31.1925Z" fill="#AACBF8"/>
<path d="M115.175 37.4855C115.905 37.4855 116.496 36.8941 116.496 36.1647C116.496 35.4353 115.905 34.844 115.175 34.844C114.446 34.844 113.855 35.4353 113.855 36.1647C113.855 36.8941 114.446 37.4855 115.175 37.4855Z" fill="#AACBF8"/>
<path d="M115.175 43.856C115.905 43.856 116.496 43.2647 116.496 42.5353C116.496 41.8059 115.905 41.2146 115.175 41.2146C114.446 41.2146 113.855 41.8059 113.855 42.5353C113.855 43.2647 114.446 43.856 115.175 43.856Z" fill="#AACBF8"/>
<path d="M115.175 50.0712C115.905 50.0712 116.496 49.4799 116.496 48.7505C116.496 48.0211 115.905 47.4298 115.175 47.4298C114.446 47.4298 113.855 48.0211 113.855 48.7505C113.855 49.4799 114.446 50.0712 115.175 50.0712Z" fill="#AACBF8"/>
<path d="M115.175 56.4807C115.905 56.4807 116.496 55.8894 116.496 55.1599C116.496 54.4305 115.905 53.8392 115.175 53.8392C114.446 53.8392 113.855 54.4305 113.855 55.1599C113.855 55.8894 114.446 56.4807 115.175 56.4807Z" fill="#AACBF8"/>
<path d="M121.701 24.7831C122.431 24.7831 123.022 24.1918 123.022 23.4624C123.022 22.733 122.431 22.1417 121.701 22.1417C120.972 22.1417 120.381 22.733 120.381 23.4624C120.381 24.1918 120.972 24.7831 121.701 24.7831Z" fill="#AACBF8"/>
<path d="M121.701 31.1925C122.431 31.1925 123.022 30.6012 123.022 29.8718C123.022 29.1424 122.431 28.5511 121.701 28.5511C120.972 28.5511 120.381 29.1424 120.381 29.8718C120.381 30.6012 120.972 31.1925 121.701 31.1925Z" fill="#AACBF8"/>
<path d="M121.779 37.4855C122.509 37.4855 123.1 36.8941 123.1 36.1647C123.1 35.4353 122.509 34.844 121.779 34.844C121.05 34.844 120.458 35.4353 120.458 36.1647C120.458 36.8941 121.05 37.4855 121.779 37.4855Z" fill="#AACBF8"/>
<path d="M121.779 43.856C122.509 43.856 123.1 43.2647 123.1 42.5353C123.1 41.8059 122.509 41.2146 121.779 41.2146C121.05 41.2146 120.458 41.8059 120.458 42.5353C120.458 43.2647 121.05 43.856 121.779 43.856Z" fill="#AACBF8"/>
<path d="M121.779 50.0712C122.509 50.0712 123.1 49.4799 123.1 48.7505C123.1 48.0211 122.509 47.4298 121.779 47.4298C121.05 47.4298 120.458 48.0211 120.458 48.7505C120.458 49.4799 121.05 50.0712 121.779 50.0712Z" fill="#AACBF8"/>
<path d="M121.779 56.4807C122.509 56.4807 123.1 55.8894 123.1 55.1599C123.1 54.4305 122.509 53.8392 121.779 53.8392C121.05 53.8392 120.458 54.4305 120.458 55.1599C120.458 55.8894 121.05 56.4807 121.779 56.4807Z" fill="#AACBF8"/>
<path d="M127.528 24.7831C128.258 24.7831 128.849 24.1918 128.849 23.4624C128.849 22.733 128.258 22.1417 127.528 22.1417C126.799 22.1417 126.207 22.733 126.207 23.4624C126.207 24.1918 126.799 24.7831 127.528 24.7831Z" fill="#AACBF8"/>
<path d="M127.528 31.1925C128.258 31.1925 128.849 30.6012 128.849 29.8718C128.849 29.1424 128.258 28.5511 127.528 28.5511C126.799 28.5511 126.207 29.1424 126.207 29.8718C126.207 30.6012 126.799 31.1925 127.528 31.1925Z" fill="#AACBF8"/>
<path d="M127.606 38.0681C126.557 38.0681 125.702 37.2135 125.702 36.1647C125.702 35.1159 126.557 34.2613 127.606 34.2613C128.655 34.2613 129.509 35.1159 129.509 36.1647C129.509 37.2135 128.655 38.0681 127.606 38.0681ZM127.606 35.4267C127.217 35.4267 126.868 35.7763 126.868 36.1647C126.868 36.5532 127.217 36.9028 127.606 36.9028C127.994 36.9028 128.344 36.5532 128.344 36.1647C128.344 35.7763 127.994 35.4267 127.606 35.4267Z" fill="black"/>
<path d="M127.606 44.4387C126.557 44.4387 125.702 43.5841 125.702 42.5353C125.702 41.4865 126.557 40.6319 127.606 40.6319C128.655 40.6319 129.509 41.4865 129.509 42.5353C129.509 43.5841 128.655 44.4387 127.606 44.4387ZM127.606 41.7972C127.217 41.7972 126.868 42.1468 126.868 42.5353C126.868 42.9237 127.217 43.2734 127.606 43.2734C127.994 43.2734 128.344 42.9237 128.344 42.5353C128.344 42.1468 127.994 41.7972 127.606 41.7972Z" fill="black"/>
<path d="M127.606 50.6539C126.557 50.6539 125.702 49.7993 125.702 48.7505C125.702 47.7017 126.557 46.8471 127.606 46.8471C128.655 46.8471 129.509 47.7017 129.509 48.7505C129.509 49.7993 128.655 50.6539 127.606 50.6539ZM127.606 48.0124C127.217 48.0124 126.868 48.362 126.868 48.7505C126.868 49.1389 127.217 49.4886 127.606 49.4886C127.994 49.4886 128.344 49.1389 128.344 48.7505C128.344 48.362 127.994 48.0124 127.606 48.0124Z" fill="black"/>
<path d="M127.606 57.0633C126.557 57.0633 125.702 56.2087 125.702 55.1599C125.702 54.1111 126.557 53.2565 127.606 53.2565C128.655 53.2565 129.509 54.1111 129.509 55.1599C129.509 56.2087 128.655 57.0633 127.606 57.0633ZM127.606 54.4219C127.217 54.4219 126.868 54.7715 126.868 55.1599C126.868 55.5484 127.217 55.898 127.606 55.898C127.994 55.898 128.344 55.5484 128.344 55.1599C128.344 54.7715 127.994 54.4219 127.606 54.4219Z" fill="black"/>
<path d="M133.743 24.7831C134.473 24.7831 135.064 24.1918 135.064 23.4624C135.064 22.733 134.473 22.1417 133.743 22.1417C133.014 22.1417 132.423 22.733 132.423 23.4624C132.423 24.1918 133.014 24.7831 133.743 24.7831Z" fill="#AACBF8"/>
<path d="M133.743 31.1925C134.473 31.1925 135.064 30.6012 135.064 29.8718C135.064 29.1424 134.473 28.5511 133.743 28.5511C133.014 28.5511 132.423 29.1424 132.423 29.8718C132.423 30.6012 133.014 31.1925 133.743 31.1925Z" fill="#AACBF8"/>
<path d="M133.821 38.0681C132.772 38.0681 131.918 37.2135 131.918 36.1647C131.918 35.1159 132.772 34.2613 133.821 34.2613C134.87 34.2613 135.724 35.1159 135.724 36.1647C135.724 37.2135 134.87 38.0681 133.821 38.0681ZM133.821 35.4267C133.433 35.4267 133.083 35.7763 133.083 36.1647C133.083 36.5532 133.433 36.9028 133.821 36.9028C134.209 36.9028 134.559 36.5532 134.559 36.1647C134.559 35.7763 134.209 35.4267 133.821 35.4267Z" fill="black"/>
<path d="M133.821 44.4387C132.772 44.4387 131.918 43.5841 131.918 42.5353C131.918 41.4865 132.772 40.6319 133.821 40.6319C134.87 40.6319 135.724 41.4865 135.724 42.5353C135.724 43.5841 134.87 44.4387 133.821 44.4387ZM133.821 41.7972C133.433 41.7972 133.083 42.1468 133.083 42.5353C133.083 42.9237 133.433 43.2734 133.821 43.2734C134.209 43.2734 134.559 42.9237 134.559 42.5353C134.559 42.1468 134.209 41.7972 133.821 41.7972Z" fill="black"/>
<path d="M133.821 50.6539C132.772 50.6539 131.918 49.7993 131.918 48.7505C131.918 47.7017 132.772 46.8471 133.821 46.8471C134.87 46.8471 135.724 47.7017 135.724 48.7505C135.724 49.7993 134.87 50.6539 133.821 50.6539ZM133.821 48.0124C133.433 48.0124 133.083 48.362 133.083 48.7505C133.083 49.1389 133.433 49.4886 133.821 49.4886C134.209 49.4886 134.559 49.1389 134.559 48.7505C134.559 48.362 134.209 48.0124 133.821 48.0124Z" fill="black"/>
<path d="M133.821 57.0633C132.772 57.0633 131.918 56.2087 131.918 55.1599C131.918 54.1111 132.772 53.2565 133.821 53.2565C134.87 53.2565 135.724 54.1111 135.724 55.1599C135.724 56.2087 134.87 57.0633 133.821 57.0633ZM133.821 54.4219C133.433 54.4219 133.083 54.7715 133.083 55.1599C133.083 55.5484 133.433 55.898 133.821 55.898C134.209 55.898 134.559 55.5484 134.559 55.1599C134.559 54.7715 134.209 54.4219 133.821 54.4219Z" fill="black"/>
<path d="M139.959 24.7831C140.688 24.7831 141.279 24.1918 141.279 23.4624C141.279 22.733 140.688 22.1417 139.959 22.1417C139.229 22.1417 138.638 22.733 138.638 23.4624C138.638 24.1918 139.229 24.7831 139.959 24.7831Z" fill="#AACBF8"/>
<path d="M139.959 31.1925C140.688 31.1925 141.279 30.6012 141.279 29.8718C141.279 29.1424 140.688 28.5511 139.959 28.5511C139.229 28.5511 138.638 29.1424 138.638 29.8718C138.638 30.6012 139.229 31.1925 139.959 31.1925Z" fill="#AACBF8"/>
<path d="M140.036 38.0681C138.987 38.0681 138.133 37.2135 138.133 36.1647C138.133 35.1159 138.987 34.2613 140.036 34.2613C141.085 34.2613 141.94 35.1159 141.94 36.1647C141.94 37.2135 141.085 38.0681 140.036 38.0681ZM140.036 35.4267C139.648 35.4267 139.298 35.7763 139.298 36.1647C139.298 36.5532 139.648 36.9028 140.036 36.9028C140.425 36.9028 140.774 36.5532 140.774 36.1647C140.774 35.7763 140.425 35.4267 140.036 35.4267Z" fill="black"/>
<path d="M140.036 44.4387C138.987 44.4387 138.133 43.5841 138.133 42.5353C138.133 41.4865 138.987 40.6319 140.036 40.6319C141.085 40.6319 141.94 41.4865 141.94 42.5353C141.94 43.5841 141.085 44.4387 140.036 44.4387ZM140.036 41.7972C139.648 41.7972 139.298 42.1468 139.298 42.5353C139.298 42.9237 139.648 43.2734 140.036 43.2734C140.425 43.2734 140.774 42.9237 140.774 42.5353C140.774 42.1468 140.425 41.7972 140.036 41.7972Z" fill="black"/>
<path d="M140.036 50.6539C138.987 50.6539 138.133 49.7993 138.133 48.7505C138.133 47.7017 138.987 46.8471 140.036 46.8471C141.085 46.8471 141.94 47.7017 141.94 48.7505C141.94 49.7993 141.085 50.6539 140.036 50.6539ZM140.036 48.0124C139.648 48.0124 139.298 48.362 139.298 48.7505C139.298 49.1389 139.648 49.4886 140.036 49.4886C140.425 49.4886 140.774 49.1389 140.774 48.7505C140.774 48.362 140.425 48.0124 140.036 48.0124Z" fill="black"/>
<path d="M140.036 57.0633C138.987 57.0633 138.133 56.2087 138.133 55.1599C138.133 54.1111 138.987 53.2565 140.036 53.2565C141.085 53.2565 141.94 54.1111 141.94 55.1599C141.94 56.2087 141.085 57.0633 140.036 57.0633ZM140.036 54.4219C139.648 54.4219 139.298 54.7715 139.298 55.1599C139.298 55.5484 139.648 55.898 140.036 55.898C140.425 55.898 140.774 55.5484 140.774 55.1599C140.774 54.7715 140.425 54.4219 140.036 54.4219Z" fill="black"/>
<path d="M261.31 139.492H129.199C127.217 139.492 125.625 137.9 125.625 135.919V35.5432C125.625 33.5621 127.217 31.9694 129.199 31.9694H261.31C263.291 31.9694 264.884 33.5621 264.884 35.5432V135.958C264.884 137.9 263.291 139.492 261.31 139.492Z" fill="#1F215E"/>
<path d="M161.051 151.224L170.258 137.472H171.501L161.945 152.583L161.051 151.224Z" fill="#3641C1"/>
<path d="M258.047 129.315H132.5C130.713 129.315 129.276 127.878 129.276 126.091V38.7673C129.276 36.9804 130.713 35.5432 132.5 35.5432H258.047C259.834 35.5432 261.271 36.9804 261.271 38.7673V126.091C261.31 127.878 259.834 129.315 258.047 129.315Z" fill="white"/>
<path d="M206.034 36.6697C206.034 36.6697 198.614 29.328 204.635 24.4335C204.635 24.4335 202.033 16.3537 206.578 14.2173C211.123 12.0808 214.463 17.1695 216.211 17.8299C217.959 18.4902 227.243 20.8986 227.981 20.9763C228.719 21.054 231.4 23.9285 231.05 28.9395C231.05 28.9395 232.992 28.9395 231.594 34.2224C230.196 39.5054 230.001 42.5741 230.001 44.2445C230.001 45.9148 226 49.5274 222.388 48.5951C218.775 47.6628 206.034 36.6697 206.034 36.6697Z" fill="#15173D"/>
<path d="M109.31 92.4899L121.546 129.587H169.364L158.021 92.3734L109.31 92.4899Z" fill="#15173D"/>
<path d="M209.18 24.5501C209.18 24.5501 208.248 28.5511 205.296 28.5511C205.296 28.5511 205.218 35.8928 204.83 38.3012C204.441 40.7096 203.159 51.8581 209.452 52.6739L207.316 61.2975C207.316 61.2975 218.27 66.0365 225.767 60.2875C225.767 60.2875 222.038 51.5862 223.281 44.0503C223.281 44.0503 227.554 46.6529 228.37 41.6419C229.186 36.6309 223.009 37.9128 222.621 40.0492C222.621 40.0492 220.018 37.4466 222.427 32.3579C222.427 32.3579 216.872 29.8718 217.804 24.9385C217.804 24.9385 216.134 28.0073 213.531 28.0073C210.928 28.0073 209.18 24.5501 209.18 24.5501Z" fill="#F88254"/>
<path d="M219.94 34.3778C219.785 34.3778 219.63 34.2613 219.552 34.1059C218.697 31.1537 214.23 31.8529 214.191 31.8529C213.958 31.8917 213.764 31.7364 213.764 31.5421C213.725 31.3479 213.881 31.1148 214.075 31.1148C215.862 30.8041 219.513 31.0372 220.329 33.9505C220.407 34.1447 220.251 34.3778 220.057 34.4167C220.018 34.3778 219.979 34.3778 219.94 34.3778Z" fill="black"/>
<path d="M206.073 32.9405C205.995 32.9405 205.917 32.9017 205.84 32.8629C205.645 32.7463 205.607 32.5133 205.723 32.319C205.723 32.2802 207.471 29.7941 210.501 31.2314C210.695 31.3091 210.773 31.5421 210.695 31.7364C210.618 31.9306 210.385 32.0083 210.19 31.9306C207.782 30.7652 206.461 32.6686 206.384 32.7463C206.345 32.8629 206.189 32.9405 206.073 32.9405Z" fill="black"/>
<path d="M211.084 41.9526C211.006 41.8749 210.851 41.7972 210.695 41.7195C209.996 41.3311 208.908 40.7484 208.87 39.9327C208.831 39.4665 209.142 39.0004 209.724 38.5731C211.589 37.2523 211.045 33.8728 211.045 33.834L211.628 33.7563C211.666 33.9117 212.21 37.5243 210.074 39.0392C209.646 39.35 209.452 39.6219 209.452 39.8938C209.491 40.4376 210.423 40.9038 210.967 41.2145C211.161 41.3311 211.317 41.4088 211.433 41.4865L211.084 41.9526Z" fill="#BC5333"/>
<path d="M211.861 48.0124C209.841 47.4298 207.898 43.623 207.898 43.623C207.898 43.623 213.181 45.0991 216.6 43.4676C220.057 41.8749 213.764 48.5563 211.861 48.0124Z" fill="#FFFDFF"/>
<path d="M211.9 53.1788C211.123 53.1788 210.307 53.1011 209.413 52.9457L209.53 52.3631C219.552 54.1888 222.232 44.4775 222.349 44.0891L222.932 44.2445C222.893 44.3222 220.445 53.1788 211.9 53.1788Z" fill="#BC5333"/>
<path d="M215.59 37.2135C216.105 37.2135 216.522 36.6918 216.522 36.0481C216.522 35.4045 216.105 34.8828 215.59 34.8828C215.075 34.8828 214.658 35.4045 214.658 36.0481C214.658 36.6918 215.075 37.2135 215.59 37.2135Z" fill="#15173D"/>
<path d="M208.598 37.0969C209.07 37.0969 209.452 36.5926 209.452 35.9704C209.452 35.3483 209.07 34.8439 208.598 34.8439C208.126 34.8439 207.743 35.3483 207.743 35.9704C207.743 36.5926 208.126 37.0969 208.598 37.0969Z" fill="#15173D"/>
<path d="M226.623 39.9351L223.279 41.7537L223.557 42.2655L226.901 40.447L226.623 39.9351Z" fill="#BC5333"/>
<path d="M224.962 41.0424L224.527 41.4295L225.688 42.736L226.124 42.3489L224.962 41.0424Z" fill="#BC5333"/>
<path d="M212.055 50.6539C210.695 50.6539 210.152 49.9158 210.113 49.877L210.579 49.5274C210.618 49.5662 211.433 50.615 213.803 49.6828L214.036 50.2266C213.259 50.5374 212.599 50.6539 212.055 50.6539Z" fill="#BC5333"/>
<path d="M204.558 32.6687L195.041 44.4775C194.147 45.5652 194.924 47.2355 196.362 47.2355H202.538" stroke="black" stroke-width="2" stroke-miterlimit="10" stroke-linecap="round"/>
<path d="M206.112 49.7216H202.188C201.101 49.7216 200.207 48.8282 200.207 47.7405C200.207 46.6528 201.101 45.7594 202.188 45.7594H206.112C207.199 45.7594 208.093 46.6528 208.093 47.7405C208.132 48.8282 207.238 49.7216 206.112 49.7216Z" fill="#1D1441"/>
<path d="M202.693 61.6471L208.248 57.5683C208.248 57.5683 212.521 64.5993 224.951 57.9568C224.951 57.9568 225.884 61.2198 228.564 62.0355L229.768 65.182L213.065 73.6113L202.383 63.3951L202.693 61.6471Z" fill="white"/>
<path d="M241.422 43.7395H244.685" stroke="black" stroke-width="0.9924" stroke-miterlimit="10" stroke-linecap="round"/>
<path d="M247.326 40.6319L250.706 44.0114" stroke="black" stroke-width="0.9924" stroke-miterlimit="10" stroke-linecap="round"/>
<path d="M250.861 40.5154L247.21 44.128" stroke="black" stroke-width="0.9924" stroke-miterlimit="10" stroke-linecap="round"/>
<path d="M256.96 40.2823H253.075V44.2833H256.96V40.2823Z" stroke="black" stroke-width="0.9924" stroke-miterlimit="10" stroke-linecap="round" stroke-linejoin="bevel"/>
<path d="M284.889 22.0251H268.846V39.1946H284.889V22.0251Z" fill="#FECE26"/>
<path d="M277.82 32.9017L281.665 42.0691L283.413 39.6607L288.075 44.1279L290.483 41.5641L285.511 37.0969L287.764 34.8439L277.82 32.9017Z" fill="#A3D2FE"/>
<path d="M288.113 44.7106L283.491 40.2434L281.588 42.846L277.198 32.3967L288.58 34.6109L286.094 37.097L291.066 41.5641L288.113 44.7106ZM283.374 39.0781L288.075 43.6229L289.939 41.6418L284.967 37.1358L286.987 35.1159L278.48 33.4844L281.782 41.3311L283.374 39.0781Z" fill="white"/>
<path d="M203.82 61.2586C203.82 61.2586 196.828 63.1232 195.662 63.7447C194.847 64.2108 186.961 70.1153 186.301 80.1761C185.563 90.9362 184.087 97.8118 184.087 97.8118L174.259 76.0197L161.828 78.7L176.628 129.354H253.347C253.347 129.354 249.463 72.4848 236.916 67.0077C236.916 67.0077 229.963 61.8024 228.486 61.7247C228.486 61.7247 224.951 68.678 217.26 68.6003C209.569 68.5226 204.558 67.0077 203.82 61.2586Z" fill="#1470FF"/>
<path d="M189.369 117.39L229.807 110.048C229.807 110.048 233.342 110.048 234.585 111.951" stroke="black" stroke-width="2" stroke-miterlimit="10" stroke-linecap="round"/>
<path d="M235.75 67.2019C235.75 67.2019 227.437 72.7955 228.059 85.5756C228.681 98.3556 230.118 109.931 230.118 109.931" stroke="black" stroke-width="2" stroke-miterlimit="10" stroke-linecap="round"/>
<path d="M192.244 80.953L188.903 116.263" stroke="black" stroke-width="2" stroke-miterlimit="10" stroke-linecap="round"/>
<path d="M135.724 56.5195C135.802 57.2964 136.385 57.879 137.162 57.9956L146.29 58.9667C146.29 58.9667 145.708 59.3163 145.63 60.2097C145.552 61.1032 145.436 62.5404 146.329 63.0066C146.329 63.0066 144.542 65.0654 146.368 66.2696C146.368 66.2696 145.98 69.5325 148.155 70.1929C150.33 70.8533 157.788 70.426 157.788 70.426C157.788 70.426 159.148 70.3871 159.692 71.7467C160.197 73.1063 162.955 79.0107 162.955 79.0107L173.793 76.6023L167.888 62.0743C167.888 62.0743 164.936 53.6838 160.779 53.5672C157.322 53.4896 142.212 54.4607 137.201 54.7714C136.346 54.888 135.647 55.6649 135.724 56.5195Z" fill="#FF7D59"/>
<path d="M153.749 129.237C153.749 129.237 161.362 118.089 175.385 118.283L189.292 117.739L191.35 129.043C191.35 129.043 177.91 129.703 175.657 127.761C175.657 127.761 168.471 127.217 167.461 129.354C167.5 129.315 153.749 128.81 153.749 129.237Z" fill="#FF7D59"/>
<path d="M158.216 129.198L157.788 128.81C158.06 128.538 164.547 121.857 169.986 121.585L170.025 122.168C164.819 122.401 158.293 129.121 158.216 129.198Z" fill="#BC5333"/>
<path d="M163.304 128.965L162.916 128.499C163.11 128.344 168.16 124.226 171.423 124.343V124.926C171.384 124.926 171.345 124.926 171.345 124.926C168.277 124.926 163.382 128.927 163.304 128.965Z" fill="#BC5333"/>
<path d="M153.787 63.5504C151.301 63.5504 147.339 63.162 147.145 63.162L147.184 62.5793C147.223 62.5793 152.467 63.0843 154.681 62.9677C155.069 62.9289 155.341 62.8124 155.458 62.5793C155.846 61.9189 155.419 60.5594 155.147 59.9378L147.766 59.1998L147.844 58.6171L155.574 59.394L155.652 59.5494C155.769 59.7825 156.662 61.7635 156.002 62.89C155.769 63.3173 155.341 63.5504 154.759 63.5893C154.448 63.5504 154.137 63.5504 153.787 63.5504Z" fill="#BC5333"/>
<path d="M151.69 66.8134C149.786 66.8134 147.689 66.7357 147.028 66.6968L147.067 66.1142C149.709 66.2307 154.098 66.3472 154.642 66.0365C155.03 65.8422 154.797 64.3661 154.448 63.3562L154.992 63.1619C155.147 63.6281 155.924 66.0365 154.875 66.5415C154.525 66.7357 153.166 66.8134 151.69 66.8134Z" fill="#BC5333"/>
<path d="M150.33 70.0763C149.942 70.0763 149.709 70.0375 149.67 70.0375L149.709 69.4548C149.747 69.4548 152.661 69.6879 153.865 68.4449C154.292 68.0176 154.448 67.4737 154.37 66.7357L154.953 66.658C155.069 67.5514 154.836 68.2506 154.292 68.8333C153.282 69.921 151.34 70.0763 150.33 70.0763Z" fill="#BC5333"/>
<path d="M156.235 54.1888C156.235 54.1888 153.399 56.9856 152.428 57.6848C151.495 58.3841 149.709 60.2875 151.418 61.9578C153.127 63.6281 155.963 59.8602 156.778 59.5494C157.594 59.1998 160.119 58.9279 160.779 59.899" fill="#FF7D59"/>
<path d="M152.467 62.6958C152.039 62.6958 151.651 62.5405 151.262 62.1908C150.68 61.647 150.408 60.9866 150.447 60.2874C150.524 58.8502 152.001 57.6848 152.272 57.4518C153.205 56.7525 156.002 53.9945 156.04 53.9557L156.468 54.383C156.351 54.4995 153.593 57.2187 152.622 57.9179C151.923 58.4229 151.068 59.394 151.029 60.3263C150.991 60.8313 151.224 61.3363 151.651 61.7635C152.622 62.7347 154.137 61.4916 155.613 60.1321C156.079 59.7048 156.429 59.394 156.701 59.2775C157.516 58.9279 160.236 58.5783 161.051 59.7048L160.585 60.0544C160.041 59.2775 157.711 59.5105 156.934 59.8213C156.778 59.899 156.39 60.2486 156.04 60.5594C155.108 61.4139 153.71 62.6958 152.467 62.6958Z" fill="#BC5333"/>
<path d="M248.414 144.659L247.559 151.107L254.59 148.31L248.414 144.659Z" fill="#FDCD25"/>
<path d="M170.18 137.395L156.623 117.739L132.889 141.551L161.051 151.224L170.18 137.395Z" fill="url(#paint0_linear)"/>
<defs>
<linearGradient id="paint0_linear" x1="136.264" y1="125.096" x2="169.138" y2="142.671" gradientUnits="userSpaceOnUse">
<stop offset="0.5367" stop-color="white" stop-opacity="0"/>
<stop offset="1" stop-color="white" stop-opacity="0.3"/>
</linearGradient>
</defs>
</svg>
