<svg width="343" height="257" viewBox="0 0 343 257" fill="none" xmlns="http://www.w3.org/2000/svg">
<path d="M257.081 186.618C257.081 186.618 244.343 188.887 239.684 176.41L221.789 204.141C221.789 204.141 248.262 209.433 257.081 186.618Z" fill="#395FFE"/>
<path d="M228.344 205.645C224.445 205.645 221.774 205.123 221.6 205.089L220.207 204.808L239.916 174.262L240.589 176.067C244.904 187.62 256.423 185.747 256.911 185.66L258.6 185.365L257.985 186.962C253.269 199.158 243.598 203.434 236.317 204.876C233.405 205.461 230.657 205.645 228.344 205.645ZM223.414 203.405C225.741 203.691 230.623 204.049 235.998 202.975C245.33 201.112 251.909 195.979 255.576 187.721C252.011 187.852 243.68 187.15 239.505 178.471L223.414 203.405Z" fill="black"/>
<path d="M178.138 130.219C178.138 130.219 177.247 112.053 175.956 105.595C174.664 99.1362 166.28 72.6541 209.574 71.5607C214.537 72.059 226.651 73.8442 229.433 87.9464C232.215 102.049 230.724 111.579 229.931 117.738C229.138 123.896 227.149 148.022 232.016 151.002C236.883 153.977 178.138 130.219 178.138 130.219Z" fill="#ADBCFF"/>
<path d="M232.287 152.212C231.721 152.212 230.874 151.917 229.549 151.457C228.112 150.959 226.022 150.185 223.337 149.164C218.823 147.451 212.563 145.003 204.721 141.898C191.379 136.61 177.905 131.162 177.77 131.109L177.194 130.877L177.165 130.258C177.155 130.079 176.265 112.087 175.003 105.774C174.935 105.43 174.843 105.029 174.741 104.574C173.672 99.7748 171.457 89.7847 177.746 81.7395C183.222 74.7295 193.923 70.9802 209.545 70.5835H209.603L209.661 70.5883C221.392 71.7591 228.359 77.5354 230.371 87.748C233.047 101.308 231.813 110.703 231 116.915L230.879 117.844C229.617 127.65 228.76 147.863 232.51 150.16C233.438 150.731 233.313 151.346 233.153 151.66C232.974 152.052 232.708 152.212 232.287 152.212ZM179.071 129.551C196.57 136.624 221.504 146.556 229.689 149.464C226.061 141.312 228.939 117.873 228.973 117.607L229.094 116.673C229.892 110.582 231.097 101.381 228.485 88.1302C226.632 78.74 220.434 73.6362 209.54 72.5283C194.557 72.9153 184.373 76.4179 179.279 82.9392C173.551 90.2637 175.636 99.649 176.638 104.163C176.744 104.632 176.836 105.048 176.904 105.406C178.075 111.26 178.902 126.267 179.071 129.551Z" fill="black"/>
<path d="M204.533 77.1484C204.533 77.1484 203.609 81.7443 205.137 84.7583L204.533 77.1484Z" fill="#ADBCFF"/>
<path d="M204.533 77.1484C204.533 77.1484 203.609 81.7443 205.137 84.7583" stroke="black" stroke-width="3.2233" stroke-miterlimit="10" stroke-linecap="round" stroke-linejoin="round"/>
<path d="M188.422 118.826C187.232 121.608 184.552 128.458 184.552 128.458L207.687 143.054L209.97 130.147L199.443 129.847L203.216 120.118L188.422 118.826Z" fill="#FDFDFD"/>
<path d="M207.687 144.021C207.508 144.021 207.329 143.973 207.169 143.871L184.035 129.276C183.643 129.029 183.483 128.535 183.653 128.105C183.682 128.037 186.352 121.206 187.537 118.444C187.702 118.062 188.094 117.829 188.51 117.863L203.304 119.155C203.608 119.179 203.879 119.349 204.039 119.605C204.199 119.861 204.228 120.181 204.121 120.466L200.846 128.918L209.999 129.179C210.28 129.189 210.546 129.319 210.72 129.537C210.899 129.755 210.972 130.04 210.923 130.316L208.64 143.223C208.582 143.542 208.374 143.808 208.079 143.939C207.953 143.992 207.822 144.021 207.687 144.021ZM185.742 128.066L206.985 141.467L208.824 131.08L199.419 130.814C199.104 130.804 198.814 130.645 198.64 130.384C198.466 130.122 198.432 129.793 198.543 129.498L201.852 120.969L189.042 119.852C188.045 122.232 186.405 126.378 185.742 128.066Z" fill="black"/>
<path d="M204.141 129.977C204.141 129.977 210.696 132.923 205.147 143.383C199.598 153.842 222.413 190.537 222.413 190.537L234.009 153.213C234.014 153.218 224.058 127.994 204.141 129.977Z" fill="#395FFE" stroke="black" stroke-width="4" stroke-miterlimit="10" stroke-linecap="round" stroke-linejoin="round"/>
<path d="M212.075 144.878C212.075 144.878 228.963 149.541 224.3 170.334" stroke="black" stroke-width="4" stroke-miterlimit="10" stroke-linecap="round" stroke-linejoin="round"/>
<path d="M251.033 129.643C245.485 130.364 242.079 132.164 238.049 139.348C234.019 146.532 223.168 170.789 223.168 170.789L238.044 185.341L256.2 145.149C256.2 145.149 252.543 133.804 241.706 141.748C241.706 141.748 248.89 135.695 251.537 135.067C254.183 134.438 257.84 128.763 251.033 129.643Z" fill="white"/>
<path d="M238.044 186.309C237.792 186.309 237.551 186.212 237.367 186.033L222.49 171.481C222.2 171.2 222.118 170.765 222.282 170.392C222.728 169.4 233.197 146.015 237.202 138.874C241.484 131.245 245.32 129.406 250.908 128.681C254.792 128.178 255.668 129.73 255.847 130.703C256.229 132.798 253.83 135.512 251.759 136.005C250.975 136.194 249.65 136.982 248.208 137.969C249.21 137.902 250.167 138.022 251.087 138.318C255.421 139.721 257.052 144.641 257.115 144.849C257.187 145.076 257.173 145.323 257.076 145.545L238.92 185.738C238.789 186.023 238.528 186.231 238.218 186.289C238.16 186.304 238.102 186.309 238.044 186.309ZM224.324 170.571L237.73 183.682L255.15 145.115C254.739 144.104 253.302 141.065 250.482 140.161C248.189 139.421 245.426 140.219 242.277 142.526C241.856 142.836 241.266 142.754 240.947 142.343C240.623 141.931 240.685 141.341 241.082 141.003C241.837 140.369 248.523 134.786 251.314 134.123C252.606 133.814 254.101 131.903 253.946 131.056C253.873 130.659 252.983 130.369 251.159 130.606C245.978 131.279 242.819 132.827 238.895 139.827C235.282 146.252 226.041 166.749 224.324 170.571Z" fill="black"/>
<path d="M244.454 145.86C244.454 145.86 246.118 142.715 250.724 143.262L244.454 145.86Z" fill="white"/>
<path d="M244.454 145.86C244.454 145.86 246.118 142.715 250.724 143.262" stroke="black" stroke-width="4" stroke-miterlimit="10" stroke-linecap="round" stroke-linejoin="round"/>
<path d="M245.538 149.594C245.538 149.594 248.528 146.343 251.517 148.037L245.538 149.594Z" fill="white"/>
<path d="M245.538 149.594C245.538 149.594 248.528 146.343 251.517 148.037" stroke="black" stroke-width="4" stroke-miterlimit="10" stroke-linecap="round" stroke-linejoin="round"/>
<path d="M260.409 127.94L239.205 161.491C238.029 163.348 239.045 165.849 241.106 166.183L261.517 169.468C262.644 169.652 263.776 169.096 264.391 168.056L284.98 133.315C286.117 131.4 284.99 128.903 282.89 128.681L263.089 126.586C262.04 126.475 261.004 126.997 260.409 127.94Z" fill="#1A1A1A"/>
<path d="M238.044 185.341C238.044 185.341 230.584 199.622 227.081 202.568C225.311 204.063 224.788 204.518 224.706 204.605C224.764 204.566 224.962 204.412 224.962 204.412L225.882 207.363H174.722V133.818C174.722 134.263 175.148 133.446 176.077 132.27C178.045 129.764 182.288 125.618 189.516 128.453C200.145 132.623 208.451 142.855 216.288 159.996C219.588 167.209 221.121 170.653 221.799 172.221C221.915 172.492 222.002 172.709 222.074 172.879L223.947 169.308C223.947 169.308 238.32 170.32 238.044 185.341Z" fill="#395FFE" stroke="black" stroke-width="4" stroke-miterlimit="10" stroke-linecap="round" stroke-linejoin="round"/>
<path d="M192.859 169.555C192.859 169.555 209.216 208.611 225.113 203.889" stroke="black" stroke-width="4" stroke-miterlimit="10" stroke-linecap="round" stroke-linejoin="round"/>
<path d="M220.207 172.738C208.988 141.665 187.871 126.417 176.628 133.267C178.573 130.829 182.763 126.789 189.903 129.551C200.401 133.61 208.606 143.576 216.346 160.271C219.607 167.296 220.483 171.215 221.15 172.738H220.207Z" fill="white"/>
<path d="M203.381 80.4961C206.264 79.7076 204.508 108.696 214.639 110.486C220.695 111.41 221.392 114.158 221.092 115.449C220.792 116.741 218.63 120.911 212.263 118.231C210.367 118.231 206.99 124.389 199.046 124.389C191.103 124.389 181.272 120.814 181.969 106.615C182.666 92.4116 189.937 84.168 203.381 80.4961Z" fill="#FDFDFD" stroke="black" stroke-width="4" stroke-miterlimit="10" stroke-linejoin="round"/>
<path d="M189.913 92.61C189.913 92.61 200.837 98.3912 188.423 108.159" stroke="black" stroke-width="4" stroke-miterlimit="10" stroke-linecap="round" stroke-linejoin="round"/>
<path d="M186.933 111.405C186.933 111.405 186.734 116.441 192.095 114.453L186.933 111.405Z" fill="white"/>
<path d="M186.933 111.405C186.933 111.405 186.734 116.441 192.095 114.453" stroke="black" stroke-width="4" stroke-miterlimit="10" stroke-linecap="round" stroke-linejoin="round"/>
<path d="M200.837 98.4686C200.837 98.4686 205.404 98.1638 207.687 101.144" stroke="black" stroke-width="5" stroke-miterlimit="10" stroke-linecap="round" stroke-linejoin="round"/>
<path d="M203.996 107.311C204.596 105.992 204.408 104.617 203.576 104.239C202.745 103.86 201.584 104.622 200.984 105.94C200.384 107.258 200.572 108.633 201.404 109.012C202.236 109.39 203.396 108.629 203.996 107.311Z" fill="black"/>
<path d="M190.298 100.484C190.897 99.1656 190.71 97.7902 189.878 97.4118C189.046 97.0333 187.886 97.795 187.286 99.1131C186.686 100.431 186.874 101.807 187.706 102.185C188.537 102.563 189.698 101.802 190.298 100.484Z" fill="black"/>
<path d="M283.601 136.426C280.708 135.657 271.797 133.528 270.68 136.083C269.344 139.14 278.052 141.148 278.052 141.148C278.052 141.148 268.633 139.353 267.356 140.896C265.939 142.609 266.853 144.123 266.853 144.123L275.087 146.102C275.087 146.102 267.743 145.937 266.156 147.166C265.677 147.538 264.923 148.961 266.514 149.701C268.106 150.441 271.207 150.654 271.207 150.654L273.365 151.022L274.685 151.249" fill="white"/>
<path d="M283.601 136.426C280.708 135.657 271.797 133.528 270.68 136.083C269.344 139.14 278.052 141.148 278.052 141.148C278.052 141.148 268.633 139.353 267.356 140.896C265.939 142.609 266.853 144.123 266.853 144.123L275.087 146.102C275.087 146.102 267.743 145.937 266.156 147.166C265.677 147.538 264.923 148.961 266.514 149.701C268.106 150.441 271.207 150.654 271.207 150.654L273.365 151.022L274.685 151.249" stroke="black" stroke-width="4" stroke-miterlimit="10" stroke-linecap="round" stroke-linejoin="round"/>
<path d="M257.081 186.618C276.591 153.334 284.642 138.1 284.642 138.1L257.081 186.618Z" fill="white"/>
<path d="M257.081 186.618C276.591 153.334 284.642 138.1 284.642 138.1" stroke="black" stroke-width="4" stroke-miterlimit="10" stroke-linecap="round" stroke-linejoin="round"/>
<path d="M67.5549 140.325C67.5549 140.325 96.9397 188.447 99.586 191.272C102.232 194.097 106.673 199.579 114.191 199.148" stroke="#1A1A1A" stroke-width="4.0049" stroke-miterlimit="10" stroke-linecap="round" stroke-linejoin="round"/>
<path d="M179.028 135.168C179.028 135.168 174.611 121.38 161.234 120.872C147.858 120.364 132.338 123.78 132.338 123.78C132.338 123.78 113.03 129.474 112.276 140.857C111.516 152.241 114.675 186.652 114.675 186.652L112.159 207.396H173.856L179.028 135.168Z" fill="#ADBCFF"/>
<path d="M174.751 208.374H111.061L113.698 186.642C113.475 184.18 110.568 151.931 111.308 140.799C111.642 135.807 115.372 131.109 122.106 127.215C127.07 124.346 131.864 122.914 132.062 122.856L132.13 122.841C132.285 122.808 147.925 119.407 161.273 119.91C175.167 120.437 179.903 134.733 179.952 134.878L180.01 135.057L174.751 208.374ZM113.248 206.434H172.951L178.045 135.299C177.479 133.688 173.082 122.3 161.195 121.85C148.395 121.366 133.402 124.554 132.575 124.728C131.709 124.994 113.925 130.558 113.233 140.93C112.488 152.11 115.599 186.226 115.628 186.57L115.638 186.671L113.248 206.434Z" fill="black"/>
<path d="M140.045 111.773L144.568 122.421C144.568 122.421 139.063 125.376 140.045 130.504C141.027 135.633 147.422 132.87 147.422 132.87L165.617 121.927L159.391 105.948L140.045 111.773Z" fill="#FDFDFD" stroke="black" stroke-width="4.0049" stroke-miterlimit="10" stroke-linejoin="round"/>
<path d="M167.552 123.311C167.552 123.311 163.75 121.284 162.444 121.23C159.493 121.105 147.035 128.236 145.589 135.168C144.142 142.101 167.552 123.311 167.552 123.311Z" fill="#ADBCFF"/>
<path d="M131.579 162.942C131.579 162.942 140.577 145.642 142.357 140.872C144.138 136.102 150.659 123.354 165.255 121.008" stroke="black" stroke-width="4.0049" stroke-miterlimit="10" stroke-linecap="round" stroke-linejoin="round"/>
<path d="M154.544 177.421C154.544 177.421 161.805 166.188 164.239 157.19" stroke="black" stroke-width="4.0049" stroke-miterlimit="10" stroke-linecap="round" stroke-linejoin="round"/>
<path d="M95.6142 125.047C94.487 125.618 96.1173 129.6 98.2653 130.234C100.408 130.867 104.071 133.775 104.071 134.157C104.071 134.539 96.6253 133.523 96.8768 136.31C97.1284 139.096 102.934 160.852 102.934 160.852C102.934 160.852 115.681 190.58 118.076 192.985C120.476 195.389 130.064 211.581 146.972 188.935C154.04 178.563 154.543 177.421 154.543 177.421C154.543 177.421 137.761 176.546 131.578 162.942L128.55 167.683C128.55 167.683 114.544 137.955 113.282 136.058C112.019 134.157 104.322 120.621 95.6142 125.047Z" fill="#FDFDFD" stroke="black" stroke-width="4.0049" stroke-miterlimit="10" stroke-linejoin="round"/>
<path d="M98.5461 143.736C98.5461 143.736 102.755 143.963 104.26 145.923" stroke="black" stroke-width="4.0049" stroke-miterlimit="10" stroke-linecap="round" stroke-linejoin="round"/>
<path d="M97.6462 138.84C97.6462 138.84 104.937 137.848 107.041 140.867" stroke="black" stroke-width="4.0049" stroke-miterlimit="10" stroke-linecap="round" stroke-linejoin="round"/>
<path d="M66.2295 120.006C66.2295 120.006 62.3834 121.526 63.6654 124.917C64.9475 128.308 81.038 157.64 81.038 157.64C81.038 157.64 83.0215 161.263 87.2158 161.147C91.4151 161.031 105.87 161.732 105.87 161.732C105.87 161.732 108.551 159.628 107.501 157.175C106.451 154.723 90.4814 124.167 90.4814 124.167C90.4814 124.167 88.5995 120.94 85.5758 120.824C82.5522 120.708 66.2295 120.006 66.2295 120.006Z" fill="#1A1A1A"/>
<path d="M68.0339 137.389C68.0339 137.389 80.8686 135.594 82.7892 140.867C83.036 141.97 83.4617 143.625 74.9036 143.736C74.9036 143.736 83.0989 143.726 84.676 145.124C86.2531 146.522 85.5274 149.019 84.3131 149.14C83.0989 149.261 77.1484 149.87 77.1484 149.87C77.1484 149.87 84.1922 149.749 84.8598 151.21C85.5274 152.671 81.2169 153.644 80.3655 153.886C79.514 154.127 79.2141 154.374 79.2141 154.374" fill="white"/>
<path d="M68.0339 137.389C68.0339 137.389 80.8686 135.594 82.7892 140.867C83.036 141.97 83.4617 143.625 74.9036 143.736C74.9036 143.736 83.0989 143.726 84.676 145.124C86.2531 146.522 85.5274 149.019 84.3131 149.14C83.0989 149.261 77.1484 149.87 77.1484 149.87C77.1484 149.87 84.1922 149.749 84.8598 151.21C85.5274 152.671 81.2169 153.644 80.3655 153.886C79.514 154.127 79.2141 154.374 79.2141 154.374" stroke="#1A1A1A" stroke-width="4.0049" stroke-miterlimit="10" stroke-linecap="round" stroke-linejoin="round"/>
<path d="M125.899 105.062C125.899 105.062 116.185 94.0565 116.813 86.3402C117.442 78.6239 120.853 73.6894 128.676 68.7548C136.498 63.8202 146.469 56.7377 147.224 56.7377C147.979 56.7377 150.001 58.131 149.241 63.5687C149.241 63.5687 155.172 58.3826 155.424 61.9238C155.675 65.4651 154.664 67.2357 156.309 70.3997C157.949 73.5636 161.737 83.3021 161.863 86.2144C161.989 89.1268 135.995 106.582 135.995 106.582L125.899 105.062Z" fill="#395FFE" stroke="black" stroke-width="4.0049" stroke-miterlimit="10" stroke-linecap="round" stroke-linejoin="round"/>
<path d="M158.864 87.869C158.864 87.869 160.001 84.5115 162.952 84.5793C165.898 84.647 166.537 90.6217 165.613 92.3681C164.693 94.1146 163.15 95.9916 160.939 96.4657" fill="#FDFDFD"/>
<path d="M158.864 87.869C158.864 87.869 160.001 84.5115 162.952 84.5793C165.898 84.647 166.537 90.6217 165.613 92.3681C164.693 94.1146 163.15 95.9916 160.939 96.4657" stroke="black" stroke-width="4.0049" stroke-miterlimit="10" stroke-linejoin="round"/>
<path d="M124.336 103.152C124.336 103.152 122.9 106.644 124.336 108.565C125.773 110.481 129.943 112.208 134.114 109.571L130.49 102.784L124.336 103.152Z" fill="white" stroke="black" stroke-width="4.0049" stroke-miterlimit="10"/>
<path d="M126.025 92.4117C125.004 88.585 123.248 84.8212 126.784 83.9358C130.316 83.0505 146.856 84.6615 150.509 72.6783C150.509 72.6783 161.108 81.1541 161.234 102.91C161.36 124.67 138.521 114.041 136.881 112.397C135.236 110.757 127.374 97.4623 126.025 92.4117Z" fill="#FDFDFD" stroke="black" stroke-width="4.0049" stroke-miterlimit="10" stroke-linejoin="round"/>
<path d="M139.928 96.606C140.842 96.606 141.583 95.4321 141.583 93.984C141.583 92.5358 140.842 91.3619 139.928 91.3619C139.015 91.3619 138.274 92.5358 138.274 93.984C138.274 95.4321 139.015 96.606 139.928 96.606Z" fill="black"/>
<path d="M152.768 93.1422C153.682 93.1422 154.423 91.9682 154.423 90.5201C154.423 89.072 153.682 87.898 152.768 87.898C151.854 87.898 151.114 89.072 151.114 90.5201C151.114 91.9682 151.854 93.1422 152.768 93.1422Z" fill="black"/>
<path d="M131.075 94.5597C131.075 94.5597 130.446 85.3291 141.423 87.7335" stroke="black" stroke-width="4.0049" stroke-miterlimit="10" stroke-linecap="round" stroke-linejoin="round"/>
<path d="M154.04 82.9247C154.04 82.9247 143.315 84.8115 146.847 94.5597C150.504 98.6137 152.778 98.1058 152.652 99.8764C152.526 101.647 151.138 102.784 151.138 102.784" stroke="black" stroke-width="4.0049" stroke-miterlimit="10" stroke-linecap="round" stroke-linejoin="round"/>
<path d="M141.418 105.948C141.418 105.948 144.573 111.386 149.115 106.582" stroke="black" stroke-width="4.0049" stroke-miterlimit="10" stroke-linecap="round" stroke-linejoin="round"/>
<path d="M69.3063 109.15C69.9449 109.15 70.569 108.986 71.1108 108.672C72.2283 109.31 73.6071 109.31 74.7246 108.672C75.2713 108.981 75.8905 109.15 76.534 109.15C77.0565 109.15 77.4773 108.725 77.4773 108.207C77.4773 107.685 77.0516 107.264 76.534 107.264C76.0986 107.264 75.6825 107.104 75.3584 106.814C75.0004 106.494 74.4586 106.494 74.0957 106.814C73.4233 107.414 72.4122 107.414 71.7397 106.814C71.3817 106.494 70.8399 106.494 70.477 106.814C70.1529 107.104 69.732 107.264 69.3015 107.264C68.3291 107.264 67.5357 106.47 67.5357 105.498C67.5357 104.975 67.1099 104.555 66.5923 104.555C66.0698 104.555 65.6489 104.98 65.6489 105.498C65.6489 107.51 67.2889 109.15 69.3063 109.15Z" fill="black"/>
<path d="M96.8285 87.332C97.351 87.332 97.7719 86.9062 97.7719 86.3886C97.7719 84.9179 98.9717 83.7181 100.442 83.7181C101.913 83.7181 103.113 84.9179 103.113 86.3886C103.113 86.9111 103.539 87.332 104.056 87.332C104.579 87.332 105 86.9062 105 86.3886C105 83.8729 102.953 81.8265 100.438 81.8265C97.9219 81.8265 95.8755 83.8729 95.8755 86.3886C95.8852 86.9111 96.3061 87.332 96.8285 87.332Z" fill="black"/>
<path d="M102.334 106.582C102.334 107.844 100.442 107.844 100.442 106.582C100.442 105.319 102.334 105.319 102.334 106.582Z" fill="black"/>
<path d="M171.118 55.1654C171.118 56.4281 169.226 56.4281 169.226 55.1654C169.226 53.9028 171.118 53.9028 171.118 55.1654Z" fill="black"/>
<path d="M248.644 76.7808C248.644 78.0434 246.752 78.0434 246.752 76.7808C246.752 75.5181 248.644 75.5229 248.644 76.7808Z" fill="black"/>
<path d="M80.7671 108.207C80.7671 109.47 78.8755 109.47 78.8755 108.207C78.8755 106.944 80.7671 106.944 80.7671 108.207Z" fill="black"/>
<path d="M260.491 112.721C260.491 113.983 258.6 113.983 258.6 112.721C258.6 111.458 260.491 111.458 260.491 112.721Z" fill="black"/>
<path d="M266.161 98.546C266.161 99.8087 264.27 99.8087 264.27 98.546C264.27 97.2833 266.161 97.2882 266.161 98.546Z" fill="black"/>
<path d="M91.4538 95.2418C91.4538 96.5045 89.5623 96.5045 89.5623 95.2418C89.5623 93.9791 91.4538 93.9791 91.4538 95.2418Z" fill="black"/>
<path d="M245.75 112.711C245.992 112.179 246.621 111.927 247.168 112.174C247.589 112.363 247.792 112.561 247.831 113.558C247.86 114.337 248.769 114.743 249.369 114.254C249.834 113.877 250.138 113.717 250.395 113.717C250.525 113.717 250.671 113.756 250.845 113.833C251.387 114.075 251.628 114.714 251.382 115.251C250.84 116.451 249.229 116.751 246.974 117.51C246.829 117.157 246.679 116.818 246.529 116.489C245.741 114.714 245.315 113.669 245.75 112.711ZM245.547 119.039C245.731 119.528 246.278 119.774 246.766 119.59C249.403 118.594 252.073 118.318 253.104 116.03C253.776 114.54 253.114 112.784 251.619 112.111C250.912 111.792 250.196 111.724 249.456 112C249.219 111.386 248.779 110.824 247.947 110.452C246.442 109.775 244.696 110.461 244.028 111.932C243.23 113.703 243.994 115.43 244.802 117.254C245.049 117.825 245.31 118.41 245.547 119.039Z" fill="black"/>
<path d="M90.2878 106.02C90.0895 105.928 89.9976 105.691 90.0895 105.493C90.162 105.333 90.1959 105.261 90.7377 105.237C91.5166 105.208 91.923 104.298 91.4344 103.698C91.0909 103.277 91.1248 103.205 91.1973 103.04C91.2844 102.842 91.5215 102.745 91.7246 102.837C92.339 103.113 92.5567 104.037 92.968 105.314C91.7246 105.856 90.9022 106.296 90.2878 106.02ZM92.4987 101.11C91.3425 100.588 89.9879 101.105 89.4702 102.257C89.2332 102.784 89.209 103.248 89.3057 103.655C88.9381 103.853 88.6043 104.177 88.3624 104.705C87.8447 105.856 88.3575 107.215 89.5089 107.733C91.178 108.488 92.7067 107.394 94.487 106.722C94.9756 106.538 95.2224 105.991 95.0385 105.503C94.8837 105.101 94.1774 101.87 92.4987 101.11Z" fill="black"/>
<path d="M250.022 85.0921L249.035 84.1052L250.022 83.1182C250.39 82.7506 250.39 82.1507 250.022 81.783C249.655 81.4153 249.055 81.4153 248.687 81.783L247.033 83.4375C246.665 83.8052 246.665 84.4051 247.033 84.7728L248.019 85.7597L247.033 86.7466C246.665 87.1143 246.665 87.7142 247.033 88.0818L248.687 89.7364C249.055 90.104 249.655 90.104 250.022 89.7364C250.39 89.3687 250.39 88.7688 250.022 88.4011L249.035 87.4142L250.022 86.4273C250.39 86.0596 250.39 85.4597 250.022 85.0921Z" fill="black"/>
<path d="M169.047 60.816L170.465 61.1014L169.826 61.74C169.309 62.2577 169.555 63.1478 170.266 63.3268C172.918 63.9799 172.811 63.9848 173.014 63.9848C173.44 63.9848 173.822 63.6993 173.929 63.2688C174.054 62.7608 173.745 62.248 173.242 62.1222L172.342 61.8997L173.053 61.1885C173.585 60.6564 173.309 59.742 172.569 59.5921L169.42 58.9631C168.907 58.8615 168.409 59.1905 168.307 59.7033C168.201 60.2161 168.535 60.7144 169.047 60.816Z" fill="black"/>
<path d="M175.844 51.3871C176.367 51.3871 176.788 51.8129 176.788 52.3305C176.788 52.8481 176.362 53.2739 175.844 53.2739C175.327 53.2739 174.901 52.8481 174.901 52.3305C174.901 51.8129 175.327 51.3871 175.844 51.3871ZM175.844 55.1654C177.407 55.1654 178.679 53.8931 178.679 52.3305C178.679 50.7679 177.407 49.4955 175.844 49.4955C174.282 49.4955 173.009 50.7679 173.009 52.3305C173.009 53.8931 174.282 55.1654 175.844 55.1654Z" fill="black"/>
<path d="M263.326 107.994C262.286 107.994 261.435 107.148 261.435 106.103C261.435 105.058 262.281 104.211 263.326 104.211C264.366 104.211 265.218 105.058 265.218 106.103C265.218 107.148 264.366 107.994 263.326 107.994ZM263.326 102.329C261.241 102.329 259.548 104.022 259.548 106.107C259.548 108.193 261.241 109.886 263.326 109.886C265.411 109.886 267.104 108.193 267.104 106.107C267.104 104.022 265.411 102.329 263.326 102.329Z" fill="black"/>
</svg>
