<svg xmlns="http://www.w3.org/2000/svg" width="20" height="20" fill="none" viewBox="0 0 20 20">
    <path fill="#9B9898" d="M18.794 11.283l.127-.084c.246-.17.304-.508.134-.753-.173-.247-.512-.303-.753-.134-8.456 5.91-14.61.29-14.87.049-.217-.204-.561-.194-.764.023-.204.218-.195.558.021.763.012.011.205.188.556.448l-1.083 1.787c-.155.254-.074.587.181.743.088.052.187.079.282.079.182 0 .36-.093.463-.26L4.147 12.2c.593.362 1.355.756 2.262 1.09l-.522 1.745c-.086.287.075.587.36.672l.157.023c.23 0 .446-.151.516-.386l.517-1.72c.837.228 1.774.383 2.785.42v1.728c0 .299.242.54.54.54.3 0 .541-.241.541-.54v-1.738c.882-.049 1.817-.2 2.793-.479l.666 1.755c.082.216.288.348.505.348l.191-.034c.28-.106.421-.418.315-.696l-.648-1.71c.889-.33 1.808-.765 2.756-1.341l.876 1.169c.107.14.27.217.432.217.114 0 .227-.035.324-.109.24-.18.288-.518.11-.757l-.83-1.113z"/>
</svg>
