<svg width="24" height="24" viewBox="0 0 24 24" fill="none" xmlns="http://www.w3.org/2000/svg">
<path d="M19.7778 4H4.22222C2.99492 4 2 4.74619 2 5.66667V17.3333C2 18.2538 2.99492 19 4.22222 19H19.7778C21.0051 19 22 18.2538 22 17.3333V5.66667C22 4.74619 21.0051 4 19.7778 4Z" stroke="#193B68" stroke-linecap="round" stroke-linejoin="round"/>
<g clip-path="url(#clip0)">
<path d="M12 6.91663V16.0833" stroke="#193B68" stroke-linecap="round" stroke-linejoin="round"/>
<path d="M14.0833 8.58337H10.9583C10.5716 8.58337 10.2006 8.73702 9.92714 9.01051C9.65365 9.284 9.5 9.65493 9.5 10.0417C9.5 10.4285 9.65365 10.7994 9.92714 11.0729C10.2006 11.3464 10.5716 11.5 10.9583 11.5H13.0417C13.4284 11.5 13.7994 11.6537 14.0729 11.9272C14.3464 12.2007 14.5 12.5716 14.5 12.9584C14.5 13.3451 14.3464 13.7161 14.0729 13.9896C13.7994 14.2631 13.4284 14.4167 13.0417 14.4167H9.5" stroke="#193B68" stroke-linecap="round" stroke-linejoin="round"/>
</g>
<defs>
<clipPath id="clip0">
<rect width="10" height="10" fill="white" transform="translate(7 6.5)"/>
</clipPath>
</defs>
</svg>
