<svg width="24" height="24" viewBox="0 0 24 24" fill="none" xmlns="http://www.w3.org/2000/svg">
<path d="M12 22C17.5228 22 22 17.5228 22 12C22 6.47715 17.5228 2 12 2C6.47715 2 2 6.47715 2 12C2 17.5228 6.47715 22 12 22Z" fill="#193B68" stroke="#193B68" stroke-linecap="round" stroke-linejoin="round"/>
<path fill-rule="evenodd" clip-rule="evenodd" d="M12.5 8C12.5 7.72386 12.2761 7.5 12 7.5C11.7239 7.5 11.5 7.72386 11.5 8V14.7929L8.35355 11.6464C8.15829 11.4512 7.84171 11.4512 7.64645 11.6464C7.45118 11.8417 7.45118 12.1583 7.64645 12.3536L11.6464 16.3536C11.6944 16.4015 11.7496 16.4377 11.8086 16.4621C11.8667 16.4861 11.9303 16.4996 11.997 16.5C11.998 16.5 11.999 16.5 12 16.5C12.001 16.5 12.002 16.5 12.003 16.5C12.13 16.4992 12.2567 16.4504 12.3536 16.3536L16.3536 12.3536C16.5488 12.1583 16.5488 11.8417 16.3536 11.6464C16.1583 11.4512 15.8417 11.4512 15.6464 11.6464L12.5 14.7929V8Z" fill="#D2E6FF"/>
</svg>
