<svg width="32" height="32" viewBox="0 0 32 32" fill="none" xmlns="http://www.w3.org/2000/svg">
<g clip-path="url(#clip0)">
<path d="M19.9999 5.33331H23.9999C24.3681 5.33331 24.6666 5.03481 24.6666 4.66663V0.666625C24.6666 0.2985 24.3681 0 23.9999 0H19.9999C15.9517 0.0044375 12.671 3.28506 12.6666 7.33331V12H7.99994C7.63175 12 7.33325 12.2985 7.33325 12.6667V16.6667C7.33325 17.0349 7.63175 17.3334 7.99994 17.3334H12.6666V31.3334C12.6666 31.7016 12.9651 32.0001 13.3333 32.0001H17.3333C17.7015 32.0001 18 31.7016 18 31.3334V17.3334H22.6667C22.9535 17.3332 23.2081 17.1495 23.2987 16.8774L24.632 12.8774C24.7484 12.5281 24.5595 12.1506 24.2102 12.0342C24.1424 12.0116 24.0714 12.0001 24 12H18V7.33331C17.9999 6.22875 18.8954 5.33331 19.9999 5.33331Z" fill="#193B68"/>
</g>
<defs>
<clipPath id="clip0">
<rect width="32" height="32" fill="white"/>
</clipPath>
</defs>
</svg>
