<svg width="20" height="20" viewBox="0 0 20 20" fill="none" xmlns="http://www.w3.org/2000/svg">
<path d="M18.9048 15.1667H1.09523C1.02577 15.1667 0.959155 15.1391 0.910038 15.09C0.860922 15.0408 0.833328 14.9742 0.833328 14.9048V12.2333C0.833316 12.173 0.854165 12.1144 0.892346 12.0677C0.930527 12.0209 0.983695 11.9887 1.04285 11.9767C1.5757 11.8685 2.05476 11.5794 2.39886 11.1584C2.74296 10.7374 2.93093 10.2104 2.93093 9.66667C2.93093 9.12295 2.74296 8.59594 2.39886 8.17495C2.05476 7.75396 1.5757 7.46487 1.04285 7.35667C0.983695 7.3446 0.930527 7.31245 0.892346 7.26568C0.854165 7.21891 0.833316 7.16038 0.833328 7.1V4.42858C0.833328 4.35912 0.860922 4.2925 0.910038 4.24338C0.959155 4.19427 1.02577 4.16667 1.09523 4.16667H18.9048C18.9742 4.16667 19.0408 4.19427 19.09 4.24338C19.1391 4.2925 19.1667 4.35912 19.1667 4.42858V7.1C19.1667 7.16038 19.1458 7.21891 19.1076 7.26568C19.0695 7.31245 19.0163 7.3446 18.9571 7.35667C18.4243 7.46487 17.9452 7.75396 17.6011 8.17495C17.257 8.59594 17.0691 9.12295 17.0691 9.66667C17.0691 10.2104 17.257 10.7374 17.6011 11.1584C17.9452 11.5794 18.4243 11.8685 18.9571 11.9767C19.0163 11.9887 19.0695 12.0209 19.1076 12.0677C19.1458 12.1144 19.1667 12.173 19.1667 12.2333V14.9048C19.1667 14.9742 19.1391 15.0408 19.09 15.09C19.0408 15.1391 18.9742 15.1667 18.9048 15.1667ZM1.35714 14.6429H18.6429V12.4389C18.0391 12.2682 17.5076 11.9051 17.1291 11.4047C16.7506 10.9043 16.5458 10.2941 16.5458 9.66667C16.5458 9.03926 16.7506 8.429 17.1291 7.92863C17.5076 7.42825 18.0391 7.06512 18.6429 6.89441V4.69048H1.35714V6.89441C1.96088 7.06512 2.49239 7.42825 2.8709 7.92863C3.2494 8.429 3.45422 9.03926 3.45422 9.66667C3.45422 10.2941 3.2494 10.9043 2.8709 11.4047C2.49239 11.9051 1.96088 12.2682 1.35714 12.4389V14.6429Z" fill="#EB5757"/>
<path d="M13.9286 5.64277C13.8591 5.64277 13.7925 5.61517 13.7434 5.56606C13.6943 5.51694 13.6667 5.45032 13.6667 5.38086V4.42858C13.6667 4.35912 13.6943 4.2925 13.7434 4.24338C13.7925 4.19427 13.8591 4.16667 13.9286 4.16667C13.998 4.16667 14.0646 4.19427 14.1138 4.24338C14.1629 4.2925 14.1905 4.35912 14.1905 4.42858V5.38086C14.1905 5.45032 14.1629 5.51694 14.1138 5.56606C14.0646 5.61517 13.998 5.64277 13.9286 5.64277Z" fill="#EB5757"/>
<path d="M13.9286 8.02372C13.8591 8.02372 13.7925 7.99612 13.7434 7.94701C13.6943 7.89789 13.6667 7.83127 13.6667 7.76181V6.80953C13.6667 6.74007 13.6943 6.67345 13.7434 6.62433C13.7925 6.57522 13.8591 6.54762 13.9286 6.54762C13.998 6.54762 14.0646 6.57522 14.1138 6.62433C14.1629 6.67345 14.1905 6.74007 14.1905 6.80953V7.76181C14.1905 7.83127 14.1629 7.89789 14.1138 7.94701C14.0646 7.99612 13.998 8.02372 13.9286 8.02372Z" fill="#EB5757"/>
<path d="M13.9286 10.4047C13.8591 10.4047 13.7925 10.3771 13.7434 10.328C13.6943 10.2789 13.6667 10.2122 13.6667 10.1428V9.1905C13.6667 9.12103 13.6943 9.05442 13.7434 9.0053C13.7925 8.95618 13.8591 8.92859 13.9286 8.92859C13.998 8.92859 14.0646 8.95618 14.1138 9.0053C14.1629 9.05442 14.1905 9.12103 14.1905 9.1905V10.143C14.1904 10.2125 14.1628 10.279 14.1137 10.3281C14.0646 10.3771 13.998 10.4047 13.9286 10.4047Z" fill="#EB5757"/>
<path d="M13.9286 12.7858C13.8591 12.7858 13.7925 12.7582 13.7434 12.7091C13.6943 12.66 13.6667 12.5933 13.6667 12.5239V11.5716C13.6667 11.5021 13.6943 11.4355 13.7434 11.3864C13.7925 11.3373 13.8591 11.3097 13.9286 11.3097C13.998 11.3097 14.0646 11.3373 14.1138 11.3864C14.1629 11.4355 14.1905 11.5021 14.1905 11.5716V12.5239C14.1905 12.5933 14.1629 12.66 14.1138 12.7091C14.0646 12.7582 13.998 12.7858 13.9286 12.7858Z" fill="#EB5757"/>
<path d="M13.9286 15.1666C13.8591 15.1666 13.7925 15.139 13.7434 15.0899C13.6943 15.0408 13.6667 14.9742 13.6667 14.9047V13.9524C13.6667 13.883 13.6943 13.8163 13.7434 13.7672C13.7925 13.7181 13.8591 13.6905 13.9286 13.6905C13.998 13.6905 14.0646 13.7181 14.1138 13.7672C14.1629 13.8163 14.1905 13.883 14.1905 13.9524V14.9047C14.1905 14.9742 14.1629 15.0408 14.1138 15.0899C14.0646 15.139 13.998 15.1666 13.9286 15.1666Z" fill="#EB5757"/>
<path d="M5.79087 12.4277C5.73908 12.4277 5.68845 12.4123 5.64539 12.3836C5.60233 12.3548 5.56877 12.3139 5.54896 12.266C5.52914 12.2182 5.52395 12.1655 5.53405 12.1147C5.54415 12.0639 5.56909 12.0173 5.6057 11.9807L10.4593 7.12441C10.4835 7.09939 10.5124 7.07944 10.5443 7.06571C10.5763 7.05199 10.6106 7.04476 10.6454 7.04446C10.6802 7.04416 10.7147 7.05078 10.7469 7.06395C10.7791 7.07712 10.8083 7.09657 10.8329 7.12116C10.8575 7.14575 10.8769 7.17499 10.8901 7.20718C10.9033 7.23937 10.9099 7.27385 10.9096 7.30863C10.9093 7.34341 10.9021 7.37777 10.8883 7.40973C10.8746 7.44168 10.8547 7.47058 10.8296 7.49474L5.97604 12.3512C5.92689 12.4003 5.86029 12.4278 5.79087 12.4277Z" fill="#EB5757"/>
<path d="M9.83787 12.5527C9.5986 12.5527 9.36471 12.4817 9.16577 12.3488C8.96683 12.2159 8.81178 12.0269 8.72021 11.8059C8.62865 11.5848 8.6047 11.3416 8.65137 11.1069C8.69805 10.8722 8.81327 10.6567 8.98245 10.4875C9.15164 10.3183 9.36719 10.2031 9.60186 10.1564C9.83653 10.1097 10.0798 10.1337 10.3008 10.2253C10.5219 10.3168 10.7108 10.4719 10.8437 10.6708C10.9767 10.8698 11.0476 11.1037 11.0476 11.3429C11.0472 11.6636 10.9196 11.9711 10.6928 12.1979C10.466 12.4247 10.1586 12.5523 9.83787 12.5527ZM9.83787 10.6567C9.70221 10.6567 9.56961 10.697 9.45681 10.7723C9.34402 10.8477 9.2561 10.9548 9.20418 11.0801C9.15225 11.2054 9.13865 11.3433 9.1651 11.4764C9.19155 11.6094 9.25685 11.7317 9.35275 11.8276C9.44865 11.9235 9.57085 11.9889 9.70389 12.0154C9.83693 12.0419 9.97484 12.0283 10.1002 11.9765C10.2255 11.9246 10.3327 11.8367 10.4081 11.7239C10.4835 11.6112 10.5237 11.4786 10.5238 11.3429C10.5237 11.161 10.4514 10.9866 10.3228 10.858C10.1942 10.7293 10.0198 10.6569 9.83787 10.6567Z" fill="#EB5757"/>
<path d="M6.49537 9.18408C6.25612 9.18408 6.02224 9.11314 5.8233 8.98022C5.62437 8.8473 5.46931 8.65838 5.37774 8.43735C5.28617 8.21631 5.2622 7.97309 5.30886 7.73843C5.35551 7.50377 5.4707 7.28822 5.63986 7.11902C5.80902 6.94982 6.02455 6.83459 6.2592 6.78788C6.49385 6.74117 6.73708 6.76509 6.95813 6.85661C7.17919 6.94814 7.36814 7.10315 7.5011 7.30206C7.63406 7.50096 7.70505 7.73483 7.70511 7.97408C7.70476 8.29484 7.5772 8.60237 7.35041 8.8292C7.12363 9.05604 6.81613 9.18366 6.49537 9.18408ZM6.49537 7.28815C6.3597 7.28815 6.22709 7.32838 6.11429 7.40375C6.00149 7.47912 5.91357 7.58625 5.86165 7.71159C5.80974 7.83692 5.79615 7.97484 5.82262 8.1079C5.84909 8.24095 5.91441 8.36318 6.01034 8.4591C6.10627 8.55503 6.22849 8.62036 6.36155 8.64683C6.49461 8.67329 6.63252 8.65971 6.75786 8.6078C6.8832 8.55588 6.99033 8.46796 7.0657 8.35516C7.14107 8.24236 7.1813 8.10974 7.1813 7.97408C7.18109 7.79222 7.10875 7.61788 6.98016 7.48928C6.85157 7.36069 6.67722 7.28836 6.49537 7.28815Z" fill="#EB5757"/>
</svg>
