<svg width="24" height="24" viewBox="0 0 24 24" fill="none" xmlns="http://www.w3.org/2000/svg">
<path d="M19.9167 2H14.6308C13.6291 2 12.6875 2.39 11.9791 3.09832L2.71082 12.3667C2.2525 12.825 2 13.4342 2 14.085C2 14.7325 2.2525 15.3417 2.71082 15.8L8.2 21.2892C8.65832 21.7475 9.2675 22 9.91832 22C10.5658 22 11.175 21.7475 11.6333 21.2892L20.9016 12.0209C21.61 11.3125 22 10.3708 22 9.36918V4.08332C22 2.935 21.065 2 19.9167 2ZM21.1667 9.36918C21.1667 10.1484 20.8634 10.8809 20.3134 11.4309L11.0442 20.7C10.445 21.2992 9.39418 21.3033 8.79 20.7L3.3 15.21C2.99918 14.91 2.83332 14.51 2.83332 14.0817C2.83332 13.6567 2.99914 13.2567 3.3 12.9559L12.5683 3.6875C13.12 3.13668 13.8516 2.83332 14.6308 2.83332H19.9166C20.6058 2.83332 21.1666 3.39414 21.1666 4.08332V9.36918H21.1667Z" fill="#193B68"/>
<path d="M17.4167 4.5C16.2684 4.5 15.3334 5.435 15.3334 6.58332C15.3334 7.73164 16.2684 8.66664 17.4167 8.66664C18.565 8.66664 19.5 7.73168 19.5 6.58332C19.5 5.435 18.565 4.5 17.4167 4.5ZM17.4167 7.83332C16.7275 7.83332 16.1667 7.2725 16.1667 6.58332C16.1667 5.89414 16.7275 5.33332 17.4167 5.33332C18.1059 5.33332 18.6667 5.89414 18.6667 6.58332C18.6667 7.2725 18.1058 7.83332 17.4167 7.83332Z" fill="#193B68"/>
</svg>
