<svg width="20" height="20" viewBox="0 0 20 20" fill="none" xmlns="http://www.w3.org/2000/svg">
<path d="M16.5972 1.66667H12.1924C11.3576 1.66667 10.5729 1.99167 9.98262 2.58194L2.25902 10.3056C1.87709 10.6875 1.66667 11.1952 1.66667 11.7375C1.66667 12.2771 1.87709 12.7847 2.25902 13.1667L6.83334 17.741C7.21527 18.1229 7.72292 18.3333 8.26527 18.3333C8.80486 18.3333 9.31251 18.1229 9.69444 17.741L17.418 10.0174C18.0083 9.42709 18.3333 8.64236 18.3333 7.80766V3.40277C18.3333 2.44584 17.5542 1.66667 16.5972 1.66667ZM17.6389 7.80766C17.6389 8.45697 17.3861 9.06739 16.9278 9.52572L9.20349 17.25C8.70417 17.7493 7.82849 17.7528 7.32501 17.25L2.75001 12.675C2.49932 12.425 2.36111 12.0917 2.36111 11.7347C2.36111 11.3806 2.49929 11.0472 2.75001 10.7966L10.4736 3.07292C10.9333 2.6139 11.543 2.36111 12.1924 2.36111H16.5972C17.1715 2.36111 17.6389 2.82846 17.6389 3.40277V7.80766H17.6389Z" fill="#EB5757"/>
<path d="M14.5139 3.75C13.5569 3.75 12.7778 4.52917 12.7778 5.4861C12.7778 6.44303 13.5569 7.2222 14.5139 7.2222C15.4708 7.2222 16.25 6.44307 16.25 5.4861C16.25 4.52917 15.4708 3.75 14.5139 3.75ZM14.5139 6.52777C13.9396 6.52777 13.4722 6.06042 13.4722 5.4861C13.4722 4.91178 13.9396 4.44443 14.5139 4.44443C15.0882 4.44443 15.5555 4.91178 15.5555 5.4861C15.5555 6.06042 15.0882 6.52777 14.5139 6.52777Z" fill="#EB5757"/>
</svg>
