<svg width="24" height="23" viewBox="0 0 24 23" fill="none" xmlns="http://www.w3.org/2000/svg">
<g clip-path="url(#clip0)">
<path fill-rule="evenodd" clip-rule="evenodd" d="M7.01848 13.6221C7.2147 14.81 7.25624 16.3035 8.90716 16.3035H18.4426C20.0053 16.3035 20.068 14.9972 20.3415 13.8927L22.344 5.83044H5.72804L7.01848 13.6221Z" fill="#52C3FC"/>
<path fill-rule="evenodd" clip-rule="evenodd" d="M14.0037 9.23366C12.6701 11.5588 11.8306 13.9831 11.4644 16.3021H18.4426C20.0053 16.3021 20.068 14.9959 20.3415 13.8914L22.344 5.8291H16.4108C15.5017 6.88351 14.6956 8.02363 14.0037 9.23366Z" fill="#52C3FC"/>
<path fill-rule="evenodd" clip-rule="evenodd" d="M16.7294 19.304C16.3963 19.3039 16.0706 19.4033 15.7936 19.5896C15.5166 19.7758 15.3007 20.0406 15.1732 20.3504C15.0457 20.6602 15.0123 21.0012 15.0772 21.3301C15.1422 21.659 15.3026 21.9612 15.5381 22.1983C15.7736 22.4355 16.0737 22.597 16.4004 22.6625C16.7271 22.7279 17.0657 22.6943 17.3735 22.566C17.6812 22.4377 17.9443 22.2204 18.1294 21.9415C18.3144 21.6627 18.4132 21.3349 18.4132 20.9995C18.413 20.55 18.2355 20.1189 17.9198 19.801C17.6041 19.4831 17.1759 19.3043 16.7294 19.304Z" fill="white"/>
<path fill-rule="evenodd" clip-rule="evenodd" d="M10.2775 19.304C9.94439 19.304 9.61878 19.4034 9.34182 19.5897C9.06487 19.776 8.84901 20.0408 8.72154 20.3506C8.59407 20.6605 8.56072 21.0014 8.6257 21.3303C8.69068 21.6592 8.85108 21.9613 9.08661 22.1984C9.32215 22.4356 9.62223 22.5971 9.94893 22.6625C10.2756 22.7279 10.6142 22.6943 10.922 22.566C11.2297 22.4377 11.4927 22.2203 11.6778 21.9415C11.8629 21.6627 11.9616 21.3349 11.9616 20.9995C11.9615 20.5499 11.784 20.1187 11.4682 19.8008C11.1524 19.4828 10.7241 19.3041 10.2775 19.304Z" fill="white"/>
<path fill-rule="evenodd" clip-rule="evenodd" d="M23.2547 4.28474H5.65997L5.18636 0.745685C5.11798 0.233166 4.83483 0.0131004 4.33054 0.0131004H0.862848C0.750863 0.0109042 0.639567 0.0312102 0.535472 0.072836C0.431377 0.114462 0.336573 0.176572 0.256605 0.255527C0.176638 0.334481 0.113111 0.428696 0.069745 0.532663C0.0263789 0.636631 0.00404358 0.748262 0.00404358 0.861025C0.00404358 0.973787 0.0263789 1.08541 0.069745 1.18938C0.113111 1.29335 0.176638 1.38757 0.256605 1.46652C0.336573 1.54548 0.431377 1.60758 0.535472 1.64921C0.639567 1.69084 0.750863 1.71115 0.862848 1.70895H3.60895L5.57688 13.7642C5.90477 15.8391 6.37582 17.8483 9.0548 17.8483H18.3183C21.0305 17.8483 21.3287 15.8996 21.8154 13.939L23.8814 5.61767C24.0403 4.97549 24.0796 4.28474 23.2547 4.28474ZM21.5738 8.12461H10.1107C9.88753 8.1252 9.67368 8.21471 9.51589 8.37357C9.3581 8.53243 9.26919 8.74771 9.2686 8.97237C9.26927 9.19698 9.35822 9.41218 9.516 9.57097C9.67378 9.72976 9.88758 9.81922 10.1107 9.81981H21.1526L20.6732 11.756H12.1726C11.9495 11.7567 11.7358 11.8462 11.5781 12.0051C11.4204 12.164 11.3316 12.3792 11.3311 12.6038C11.3316 12.8283 11.4204 13.0435 11.5781 13.2023C11.7358 13.3611 11.9495 13.4506 12.1726 13.4512H20.2536L20.1645 13.8112C19.8983 14.8839 19.8375 16.1531 18.3196 16.1531H9.05353C7.45023 16.1531 7.40964 14.7021 7.21885 13.5471L5.96581 5.97801H22.1065L21.5738 8.12461Z" fill="white"/>
</g>
<defs>
<clipPath id="clip0">
<rect width="24" height="22.7143" fill="white"/>
</clipPath>
</defs>
</svg>
