<svg width="24" height="24" viewBox="0 0 24 24" fill="none" xmlns="http://www.w3.org/2000/svg">
<path d="M22.6857 18.2H1.31429C1.23093 18.2 1.15099 18.1669 1.09205 18.1079C1.03311 18.049 1 17.9691 1 17.8857V14.68C0.999985 14.6075 1.025 14.5373 1.07082 14.4812C1.11664 14.4251 1.18044 14.3865 1.25143 14.372C1.89085 14.2422 2.46572 13.8953 2.87864 13.3901C3.29155 12.8849 3.51712 12.2525 3.51712 11.6C3.51712 10.9475 3.29155 10.3151 2.87864 9.80993C2.46572 9.30474 1.89085 8.95784 1.25143 8.828C1.18044 8.81351 1.11664 8.77494 1.07082 8.71881C1.025 8.66268 0.999985 8.59245 1 8.52V5.31429C1 5.23093 1.03311 5.15099 1.09205 5.09205C1.15099 5.03311 1.23093 5 1.31429 5H22.6857C22.7691 5 22.849 5.03311 22.9079 5.09205C22.9669 5.15099 23 5.23093 23 5.31429V8.52C23 8.59245 22.975 8.66268 22.9292 8.71881C22.8834 8.77494 22.8196 8.81351 22.7486 8.828C22.1091 8.95784 21.5343 9.30474 21.1214 9.80993C20.7084 10.3151 20.4829 10.9475 20.4829 11.6C20.4829 12.2525 20.7084 12.8849 21.1214 13.3901C21.5343 13.8953 22.1091 14.2422 22.7486 14.372C22.8196 14.3865 22.8834 14.4251 22.9292 14.4812C22.975 14.5373 23 14.6075 23 14.68V17.8857C23 17.9691 22.9669 18.049 22.9079 18.1079C22.849 18.1669 22.7691 18.2 22.6857 18.2ZM1.62857 17.5714H22.3714V14.9267C21.6469 14.7219 21.0091 14.2861 20.5549 13.6857C20.1007 13.0852 19.8549 12.3529 19.8549 11.6C19.8549 10.8471 20.1007 10.1148 20.5549 9.51435C21.0091 8.9139 21.6469 8.47814 22.3714 8.27329V5.62857H1.62857V8.27329C2.35306 8.47814 2.99087 8.9139 3.44508 9.51435C3.89929 10.1148 4.14507 10.8471 4.14507 11.6C4.14507 12.3529 3.89929 13.0852 3.44508 13.6857C2.99087 14.2861 2.35306 14.7219 1.62857 14.9267V17.5714Z" fill="#193B68"/>
<path d="M16.7143 6.77131C16.631 6.77131 16.551 6.7382 16.4921 6.67926C16.4331 6.62032 16.4 6.54038 16.4 6.45703V5.31429C16.4 5.23093 16.4331 5.15099 16.4921 5.09205C16.551 5.03311 16.631 5 16.7143 5C16.7977 5 16.8776 5.03311 16.9366 5.09205C16.9955 5.15099 17.0286 5.23093 17.0286 5.31429V6.45703C17.0286 6.54038 16.9955 6.62032 16.9366 6.67926C16.8776 6.7382 16.7977 6.77131 16.7143 6.77131Z" fill="#193B68"/>
<path d="M16.7143 9.62849C16.631 9.62849 16.551 9.59538 16.4921 9.53644C16.4331 9.4775 16.4 9.39756 16.4 9.31421V8.17146C16.4 8.08811 16.4331 8.00817 16.4921 7.94923C16.551 7.89029 16.631 7.85718 16.7143 7.85718C16.7977 7.85718 16.8776 7.89029 16.9366 7.94923C16.9955 8.00817 17.0286 8.08811 17.0286 8.17146V9.31421C17.0286 9.39756 16.9955 9.4775 16.9366 9.53644C16.8776 9.59538 16.7977 9.62849 16.7143 9.62849Z" fill="#193B68"/>
<path d="M16.7143 12.4857C16.631 12.4857 16.551 12.4526 16.4921 12.3936C16.4331 12.3347 16.4 12.2547 16.4 12.1714V11.0286C16.4 10.9453 16.4331 10.8653 16.4921 10.8064C16.551 10.7475 16.631 10.7144 16.7143 10.7144C16.7977 10.7144 16.8776 10.7475 16.9366 10.8064C16.9955 10.8653 17.0286 10.9453 17.0286 11.0286V12.1717C17.0285 12.255 16.9954 12.3349 16.9364 12.3937C16.8775 12.4526 16.7976 12.4857 16.7143 12.4857Z" fill="#193B68"/>
<path d="M16.7143 15.3429C16.631 15.3429 16.551 15.3097 16.4921 15.2508C16.4331 15.1919 16.4 15.1119 16.4 15.0286V13.8858C16.4 13.8025 16.4331 13.7225 16.4921 13.6636C16.551 13.6046 16.631 13.5715 16.7143 13.5715C16.7977 13.5715 16.8776 13.6046 16.9366 13.6636C16.9955 13.7225 17.0286 13.8025 17.0286 13.8858V15.0286C17.0286 15.1119 16.9955 15.1919 16.9366 15.2508C16.8776 15.3097 16.7977 15.3429 16.7143 15.3429Z" fill="#193B68"/>
<path d="M16.7143 18.1999C16.631 18.1999 16.551 18.1668 16.4921 18.1079C16.4331 18.0489 16.4 17.969 16.4 17.8856V16.7429C16.4 16.6595 16.4331 16.5796 16.4921 16.5206C16.551 16.4617 16.631 16.4286 16.7143 16.4286C16.7977 16.4286 16.8776 16.4617 16.9366 16.5206C16.9955 16.5796 17.0286 16.6595 17.0286 16.7429V17.8856C17.0286 17.969 16.9955 18.0489 16.9366 18.1079C16.8776 18.1668 16.7977 18.1999 16.7143 18.1999Z" fill="#193B68"/>
<path d="M6.94898 14.9133C6.88683 14.9133 6.82608 14.8948 6.77441 14.8603C6.72274 14.8258 6.68247 14.7767 6.65869 14.7193C6.6349 14.6619 6.62868 14.5987 6.6408 14.5377C6.65292 14.4768 6.68284 14.4208 6.72678 14.3768L12.5511 8.54932C12.5801 8.5193 12.6148 8.49536 12.6531 8.47889C12.6915 8.46241 12.7327 8.45374 12.7744 8.45338C12.8162 8.45302 12.8576 8.46097 12.8962 8.47677C12.9348 8.49258 12.9699 8.51591 12.9994 8.54542C13.0289 8.57493 13.0523 8.61002 13.0681 8.64865C13.0839 8.68727 13.0918 8.72866 13.0914 8.77039C13.0911 8.81212 13.0824 8.85336 13.0659 8.8917C13.0495 8.93005 13.0255 8.96473 12.9955 8.99372L7.17118 14.8215C7.11221 14.8804 7.03229 14.9134 6.94898 14.9133Z" fill="#193B68"/>
<path d="M11.8054 15.0632C11.5183 15.0632 11.2377 14.978 10.9989 14.8185C10.7602 14.659 10.5741 14.4323 10.4643 14.167C10.3544 13.9018 10.3256 13.6099 10.3817 13.3283C10.4377 13.0467 10.5759 12.788 10.7789 12.585C10.982 12.382 11.2406 12.2437 11.5222 12.1877C11.8038 12.1317 12.0957 12.1604 12.361 12.2703C12.6262 12.3802 12.853 12.5662 13.0125 12.805C13.172 13.0437 13.2571 13.3244 13.2571 13.6115C13.2566 13.9963 13.1035 14.3653 12.8314 14.6374C12.5593 14.9096 12.1903 15.0627 11.8054 15.0632ZM11.8054 12.7881C11.6427 12.7881 11.4835 12.8363 11.3482 12.9268C11.2128 13.0172 11.1073 13.1457 11.045 13.2961C10.9827 13.4465 10.9664 13.612 10.9981 13.7716C11.0299 13.9313 11.1082 14.078 11.2233 14.1931C11.3384 14.3082 11.485 14.3866 11.6447 14.4184C11.8043 14.4502 11.9698 14.434 12.1202 14.3717C12.2706 14.3095 12.3992 14.204 12.4897 14.0687C12.5802 13.9334 12.6285 13.7743 12.6286 13.6115C12.6284 13.3932 12.5416 13.1839 12.3873 13.0295C12.233 12.8751 12.0237 12.7883 11.8054 12.7881Z" fill="#193B68"/>
<path d="M7.79446 11.0209C7.50736 11.0209 7.2267 10.9358 6.98798 10.7763C6.74926 10.6168 6.56319 10.3901 6.45331 10.1248C6.34342 9.85961 6.31466 9.56774 6.37064 9.28615C6.42663 9.00455 6.56486 8.74589 6.76785 8.54285C6.97084 8.33982 7.22948 8.20154 7.51106 8.14549C7.79264 8.08944 8.08451 8.11814 8.34978 8.22797C8.61504 8.33779 8.84179 8.52381 9.00134 8.7625C9.16089 9.00119 9.24608 9.28182 9.24615 9.56893C9.24573 9.95384 9.09266 10.3229 8.82052 10.5951C8.54837 10.8673 8.17937 11.0204 7.79446 11.0209ZM7.79446 8.74581C7.63166 8.74581 7.47252 8.79409 7.33716 8.88453C7.2018 8.97498 7.0963 9.10353 7.034 9.25393C6.9717 9.40434 6.9554 9.56984 6.98716 9.72951C7.01892 9.88918 7.09732 10.0358 7.21243 10.151C7.32754 10.2661 7.47421 10.3445 7.63388 10.3762C7.79355 10.408 7.95905 10.3917 8.10945 10.3294C8.25986 10.2671 8.38841 10.1616 8.47885 10.0262C8.5693 9.89086 8.61757 9.73172 8.61757 9.56893C8.61732 9.3507 8.53052 9.14148 8.37621 8.98717C8.2219 8.83286 8.01269 8.74606 7.79446 8.74581Z" fill="#193B68"/>
</svg>
