<svg width="32" height="32" viewBox="0 0 32 32" fill="none" xmlns="http://www.w3.org/2000/svg">
<g clip-path="url(#clip0)">
<path d="M31.3407 8.31841C30.9718 6.94756 29.891 5.867 28.5204 5.49786C26.0162 4.81256 15.9997 4.81256 15.9997 4.81256C15.9997 4.81256 5.98337 4.81256 3.47923 5.47174C2.135 5.84063 1.02783 6.94781 0.658933 8.31841C0 10.8223 0 16.0152 0 16.0152C0 16.0152 0 21.2341 0.658933 23.7119C1.02807 25.0825 2.10863 26.1633 3.47948 26.5324C6.00974 27.2177 15.9999 27.2177 15.9999 27.2177C15.9999 27.2177 26.0162 27.2177 28.5204 26.5586C29.8912 26.1897 30.9718 25.1089 31.3409 23.7383C31.9999 21.2341 31.9999 16.0415 31.9999 16.0415C31.9999 16.0415 32.0262 10.8223 31.3407 8.31841Z" fill="#193B68"/>
<path d="M12.8105 20.8125L21.1399 16.0151L12.8105 11.2178V20.8125Z" fill="white"/>
</g>
<defs>
<clipPath id="clip0">
<rect width="32" height="32" fill="white"/>
</clipPath>
</defs>
</svg>
