<svg width="29" height="10" viewBox="0 0 29 10" fill="none" xmlns="http://www.w3.org/2000/svg">
<g clip-path="url(#clip0)">
<path d="M8.52954 3.88901C8.41561 3.76297 8.27092 3.69959 8.09498 3.69959C7.83636 3.69959 7.64761 3.83413 7.52889 4.10286C7.27532 3.78009 6.92873 3.6189 6.48938 3.6189C5.9619 3.6189 5.51812 3.8395 5.15872 4.28034C4.79949 4.72127 4.61987 5.25918 4.61987 5.8937C4.61987 6.52821 4.79949 7.06593 5.15872 7.50705C5.51812 7.94808 5.9619 8.1684 6.48938 8.1684C6.92873 8.1684 7.27532 8.00721 7.52889 7.68426C7.64761 7.95335 7.83636 8.08762 8.09498 8.08762C8.27092 8.08762 8.41561 8.0246 8.52954 7.89811C8.64322 7.77207 8.70002 7.61735 8.70002 7.43432V4.35289C8.70002 4.17013 8.64322 4.0155 8.52954 3.88901ZM7.269 6.65776C7.12149 6.86365 6.91831 6.96646 6.65995 6.96646C6.40116 6.96646 6.19831 6.86365 6.05098 6.65776C5.90374 6.45159 5.82994 6.19703 5.82994 5.8936C5.82994 5.59036 5.90374 5.33571 6.05098 5.12963C6.19831 4.92374 6.40116 4.82084 6.65995 4.82084C6.91831 4.82084 7.12149 4.92374 7.269 5.12963C7.41641 5.33571 7.49012 5.59036 7.49012 5.8936C7.49012 6.19693 7.41641 6.45159 7.269 6.65776Z" fill="#0FA8E0"/>
<path d="M10.0701 7.89813C9.95626 8.02462 9.81132 8.08755 9.63581 8.08755C9.45978 8.08755 9.31493 8.02462 9.20125 7.89813C9.08731 7.77191 9.03052 7.6171 9.03052 7.43425V1.91987C9.03052 1.73711 9.08731 1.5823 9.20125 1.45599C9.31493 1.32959 9.45978 1.26657 9.63581 1.26657C9.81132 1.26657 9.95626 1.32959 10.0701 1.45599C10.1839 1.5823 10.2407 1.73711 10.2407 1.91987V7.43434C10.2407 7.6171 10.1839 7.77191 10.0701 7.89813Z" fill="#0FA8E0"/>
<path d="M14.079 4.28034C13.6912 3.8395 13.1973 3.6189 12.5972 3.6189C11.9973 3.6189 11.5076 3.83672 11.1275 4.27229C10.7472 4.70785 10.5571 5.24826 10.5571 5.8936C10.5571 6.53885 10.7472 7.07926 11.1275 7.51492C11.5076 7.95048 11.9973 8.1684 12.5972 8.1684C13.1973 8.1684 13.6912 7.94798 14.079 7.50705C14.4513 7.07667 14.6375 6.53895 14.6375 5.8937C14.6375 5.24826 14.4514 4.71063 14.079 4.28034ZM13.2063 6.65776C13.0588 6.86365 12.8558 6.96646 12.5972 6.96646C12.3385 6.96646 12.1357 6.86365 11.9884 6.65776C11.8409 6.45159 11.7672 6.19703 11.7672 5.8936C11.7672 5.59036 11.8409 5.33571 11.9884 5.12963C12.1357 4.92374 12.3385 4.82084 12.5972 4.82084C12.8558 4.82084 13.0588 4.92374 13.2063 5.12963C13.3538 5.33571 13.4272 5.59036 13.4272 5.8936C13.4272 6.19693 13.3538 6.45159 13.2063 6.65776Z" fill="#0FA8E0"/>
<path d="M3.95006 3.7715C4.37745 3.1739 4.5914 2.77128 4.5914 2.56409C4.5914 2.08476 4.31297 1.84509 3.75602 1.84509H0.818556C0.587782 1.84509 0.409278 1.90422 0.282617 2.0223C0.156127 2.14065 0.0927538 2.29407 0.0927538 2.48303C0.0927538 2.67227 0.156127 2.82588 0.282617 2.94404C0.409278 3.06221 0.587782 3.12125 0.818556 3.12125H2.83599L0.253151 6.73689C0.0843837 6.9735 0 7.18319 0 7.36641C0 7.89201 0.320795 8.1549 0.962128 8.1549H3.99217C4.47627 8.1549 4.71814 7.93476 4.71814 7.49448C4.71814 7.05438 4.47627 6.83424 3.99217 6.83424H1.76403L3.95006 3.7715Z" fill="#0FA8E0"/>
<path d="M18.5187 3.10904H17.708V4.93467H18.5187C18.7623 4.93467 18.9598 4.84852 19.1108 4.67631C19.2618 4.5041 19.3373 4.286 19.3373 4.02181C19.3373 3.7579 19.2617 3.53961 19.1108 3.3674C18.9598 3.19519 18.7622 3.10904 18.5187 3.10904Z" fill="#32B34A"/>
<path d="M22.5633 4.82602C22.3059 4.82602 22.1042 4.92827 21.9576 5.13314C21.8112 5.33811 21.7378 5.5912 21.7378 5.89286C21.7378 6.19462 21.8112 6.44789 21.9576 6.65295C22.1042 6.85754 22.3059 6.95989 22.5633 6.95989C22.8203 6.95989 23.0223 6.85754 23.169 6.65295C23.3157 6.44789 23.3889 6.19462 23.3889 5.89286C23.3889 5.5912 23.3157 5.33811 23.169 5.13314C23.0223 4.92818 22.8203 4.82602 22.5633 4.82602Z" fill="#32B34A"/>
<path d="M28.29 0.5H16.5372C16.145 0.5 15.8271 0.844417 15.8271 1.26925V8.73075C15.8271 9.15558 16.145 9.5 16.5372 9.5H25.8152C25.7173 9.39951 25.6682 9.28189 25.6682 9.14707C25.6682 9.03705 25.691 8.92156 25.7366 8.8008L26.1742 7.74636L24.9642 4.47283C24.9286 4.37946 24.911 4.27776 24.911 4.16774C24.911 4.02486 24.9667 3.90382 25.0784 3.8049C25.19 3.70598 25.3067 3.65657 25.4285 3.65657C25.6973 3.65657 25.8801 3.79667 25.9765 4.07705L26.7298 6.3116L27.5366 4.07705C27.6381 3.79667 27.8206 3.65657 28.0846 3.65657C28.2063 3.65657 28.323 3.70598 28.4347 3.8049C28.5461 3.90382 28.6022 4.02486 28.6022 4.16774C28.6022 4.27776 28.5842 4.37946 28.5488 4.47283L26.7566 9.18825C26.7075 9.32002 26.6484 9.42375 26.5797 9.5H28.2901C28.6822 9.5 29.0001 9.15558 29.0001 8.73075V1.26925C28.9999 0.844417 28.6821 0.5 28.29 0.5ZM19.9889 5.52023C19.6178 5.88769 19.1516 6.07138 18.59 6.07138H17.7078V7.48356C17.7078 7.69611 17.6522 7.8611 17.5409 7.97862C17.4296 8.09642 17.2864 8.15518 17.1119 8.15518C16.9369 8.15518 16.7938 8.09642 16.6826 7.97862C16.5712 7.8611 16.5157 7.69611 16.5157 7.48356V2.64414C16.5157 2.19636 16.7223 1.97242 17.1356 1.97242H18.5425C19.1306 1.97242 19.6166 2.16342 20.001 2.54503C20.385 2.92693 20.5771 3.42209 20.5771 4.03051C20.5769 4.64485 20.3808 5.14121 19.9889 5.52023ZM24.5922 7.42517C24.5922 7.60709 24.5357 7.76089 24.4227 7.88637C24.3093 8.01212 24.1653 8.07486 23.9905 8.07486C23.7332 8.07486 23.5454 7.94143 23.4274 7.67363C23.1751 7.99482 22.8305 8.15509 22.3935 8.15509C21.8689 8.15509 21.4276 7.93606 21.0702 7.49735C20.7128 7.05882 20.5342 6.52378 20.5342 5.89269C20.5342 5.26178 20.7129 4.72674 21.0702 4.28831C21.4277 3.84988 21.869 3.63048 22.3935 3.63048C22.8305 3.63048 23.1751 3.79075 23.4274 4.11175C23.5454 3.84451 23.7332 3.7107 23.9905 3.7107C24.1653 3.7107 24.3093 3.77372 24.4227 3.89911C24.5357 4.02505 24.5922 4.17875 24.5922 4.36049V7.42517Z" fill="#32B34A"/>
</g>
<defs>
<clipPath id="clip0">
<rect width="29" height="9" fill="white" transform="translate(0 0.5)"/>
</clipPath>
</defs>
</svg>
