<svg width="12" height="12" viewBox="0 0 12 12" fill="none" xmlns="http://www.w3.org/2000/svg">
<path d="M10.6418 4.13792L7.66641 3.7055L6.33633 1.00901C6.3 0.935185 6.24023 0.875419 6.16641 0.839091C5.98125 0.747685 5.75625 0.823857 5.66367 1.00901L4.33359 3.7055L1.3582 4.13792C1.27617 4.14964 1.20117 4.18831 1.14375 4.2469C1.07433 4.31826 1.03608 4.41425 1.03739 4.51379C1.03871 4.61333 1.0795 4.70828 1.15078 4.77776L3.30351 6.87659L2.79492 9.84026C2.78299 9.9092 2.79062 9.98011 2.81694 10.0449C2.84326 10.1098 2.88722 10.1659 2.94383 10.207C3.00044 10.2481 3.06744 10.2726 3.13723 10.2776C3.20701 10.2825 3.2768 10.2679 3.33867 10.2352L6 8.83597L8.66133 10.2352C8.73398 10.2739 8.81836 10.2867 8.89922 10.2727C9.10312 10.2375 9.24023 10.0442 9.20508 9.84026L8.69648 6.87659L10.8492 4.77776C10.9078 4.72034 10.9465 4.64534 10.9582 4.56331C10.9898 4.35823 10.8469 4.16839 10.6418 4.13792Z" fill="#193B68"/>
</svg>
