<svg width="72" height="72" viewBox="0 0 72 72" fill="none" xmlns="http://www.w3.org/2000/svg">
<path fill-rule="evenodd" clip-rule="evenodd" d="M0 4C0 1.79086 1.79086 0 4 0H72V72H4C1.79086 72 0 70.2091 0 68V64.95C1.14112 64.7184 2 63.7095 2 62.5C2 61.2905 1.14112 60.2816 0 60.05V57.95C1.14112 57.7184 2 56.7095 2 55.5C2 54.2905 1.14112 53.2816 0 53.05V50.95C1.14112 50.7184 2 49.7095 2 48.5C2 47.2905 1.14112 46.2816 0 46.05V43.95C1.14112 43.7184 2 42.7095 2 41.5C2 40.2905 1.14112 39.2816 0 39.05V36.95C1.14112 36.7184 2 35.7095 2 34.5C2 33.2905 1.14112 32.2816 0 32.05V29.95C1.14112 29.7184 2 28.7095 2 27.5C2 26.2905 1.14112 25.2816 0 25.05V22.95C1.14112 22.7184 2 21.7095 2 20.5C2 19.2905 1.14112 18.2816 0 18.05V15.95C1.14112 15.7184 2 14.7095 2 13.5C2 12.2905 1.14112 11.2816 0 11.05V8.94999C1.14112 8.71836 2 7.70948 2 6.5C2 5.29052 1.14112 4.28164 0 4.05001V4Z" fill="#52C3FC"/>
<path d="M18.8784 51.6821C18.6091 51.6817 18.3463 51.5989 18.1255 51.4448C17.5153 51.019 17.0988 50.3685 16.9676 49.6361C16.8363 48.9036 17.0008 48.149 17.4251 47.5377L19.1119 45.1275C18.5748 45.1241 18.0476 44.9826 17.581 44.7166C17.1145 44.4505 16.7242 44.0689 16.4478 43.6084C16.1714 43.1479 16.0182 42.624 16.0029 42.0871C15.9875 41.5502 16.1106 41.0184 16.3603 40.5429C16.6099 40.0673 16.9778 39.664 17.4284 39.3718C17.879 39.0796 18.3973 38.9082 18.9333 38.8742C19.4693 38.8402 20.0051 38.9447 20.489 39.1777C20.9729 39.4107 21.3888 39.7643 21.6965 40.2045C21.7465 40.2763 21.794 40.3507 21.8389 40.4264C21.8825 40.3507 21.9287 40.2776 21.98 40.2045C22.2961 39.752 22.7261 39.3912 23.2265 39.1584C23.7269 38.9256 24.2799 38.8291 24.8296 38.8788C25.3792 38.9284 25.906 39.1224 26.3566 39.4411C26.8071 39.7598 27.1655 40.1919 27.3954 40.6937C27.6253 41.1954 27.7186 41.749 27.6657 42.2983C27.6129 42.8477 27.4159 43.3733 27.0946 43.8221C26.7733 44.2708 26.3391 44.6266 25.8361 44.8536C25.333 45.0806 24.7789 45.1707 24.2299 45.1147V47.6801C24.2303 47.9595 24.1416 48.2318 23.9765 48.4573C23.8114 48.6828 23.5787 48.8497 23.3122 48.9337C23.0457 49.0178 22.7593 49.0145 22.4948 48.9244C22.2302 48.8344 22.0013 48.6622 21.8415 48.433L19.9584 51.1267C19.7579 51.4113 19.4533 51.6054 19.1106 51.6668C19.0338 51.6785 18.9561 51.6837 18.8784 51.6821ZM24.5416 41.6347C24.4682 41.6344 24.3964 41.656 24.3353 41.6965C24.2741 41.7371 24.2264 41.7949 24.1982 41.8626C24.1699 41.9303 24.1624 42.0049 24.1765 42.0769C24.1907 42.1489 24.2259 42.2151 24.2777 42.2671C24.3295 42.319 24.3955 42.3545 24.4675 42.3689C24.5394 42.3833 24.614 42.376 24.6818 42.348C24.7497 42.32 24.8076 42.2725 24.8484 42.2115C24.8892 42.1505 24.911 42.0788 24.911 42.0054C24.911 41.9073 24.8721 41.8132 24.8029 41.7437C24.7336 41.6742 24.6397 41.635 24.5416 41.6347ZM19.1349 41.6347C19.0616 41.6344 18.9898 41.656 18.9286 41.6965C18.8675 41.7371 18.8198 41.7949 18.7915 41.8626C18.7633 41.9303 18.7558 42.0049 18.7699 42.0769C18.7841 42.1489 18.8193 42.2151 18.8711 42.2671C18.9229 42.319 18.9889 42.3545 19.0609 42.3689C19.1328 42.3833 19.2074 42.376 19.2752 42.348C19.343 42.32 19.401 42.2725 19.4418 42.2115C19.4826 42.1505 19.5044 42.0788 19.5044 42.0054C19.5044 41.9073 19.4655 41.8132 19.3962 41.7437C19.327 41.6742 19.233 41.635 19.1349 41.6347Z" fill="white"/>
<path d="M23.7324 60.3266C22.9353 60.3266 22.1709 60.0099 21.6073 59.4463C21.0437 58.8827 20.727 58.1183 20.727 57.3212V39.3722C20.0789 39.2098 19.5032 38.8362 19.091 38.3104C18.6787 37.7845 18.4533 37.1364 18.4502 36.4682L18.4297 28.7719C18.4292 28.3772 18.5065 27.9863 18.6571 27.6214C18.8078 27.2566 19.0289 26.925 19.3078 26.6457C19.5866 26.3663 19.9178 26.1447 20.2824 25.9934C20.647 25.8421 21.0378 25.7642 21.4325 25.764H23.6439C23.5288 25.2508 23.472 24.7263 23.4746 24.2004C23.4746 22.3648 24.2275 19.6929 25.8655 18.1498C27.291 16.7861 29.1828 16.0172 31.1554 16C32.9753 16.0176 34.7488 16.5762 36.2503 17.6047C36.9918 18.1031 37.6747 18.6836 38.286 19.335C38.8288 18.6753 39.4618 18.0954 40.1665 17.6124C41.7467 16.5567 43.5015 16.0026 45.2588 16.0026C47.1273 15.9968 48.9338 16.6727 50.3396 17.9035C51.993 19.3453 52.7511 21.971 52.7511 23.7963C52.7529 24.4636 52.656 25.1275 52.4638 25.7665H54.9676C55.7629 25.7665 56.5258 26.0818 57.0891 26.6432C57.6525 27.2046 57.9703 27.9664 57.973 28.7617L58.0012 36.4477C58.0034 37.1199 57.7802 37.7734 57.3672 38.3038C56.9542 38.8342 56.3754 39.2109 55.7231 39.3735V57.3212C55.7231 57.7159 55.6454 58.1067 55.4944 58.4713C55.3433 58.8359 55.122 59.1672 54.8429 59.4463C54.5638 59.7254 54.2325 59.9468 53.8679 60.0978C53.5032 60.2488 53.1124 60.3266 52.7178 60.3266H23.7324Z" fill="#86869E"/>
<path d="M21.7324 58.3266C20.9353 58.3266 20.1709 58.0099 19.6073 57.4463C19.0437 56.8827 18.727 56.1183 18.727 55.3212V37.3722C18.0789 37.2098 17.5032 36.8362 17.091 36.3104C16.6787 35.7845 16.4533 35.1364 16.4502 34.4682L16.4297 26.7719C16.4292 26.3772 16.5065 25.9863 16.6571 25.6214C16.8078 25.2566 17.0289 24.925 17.3078 24.6457C17.5866 24.3663 17.9178 24.1447 18.2824 23.9934C18.647 23.8421 19.0378 23.7642 19.4325 23.764H21.6439C21.5288 23.2508 21.472 22.7263 21.4746 22.2004C21.4746 20.3648 22.2275 17.6929 23.8655 16.1498C25.291 14.7861 27.1828 14.0172 29.1554 14C30.9753 14.0176 32.7488 14.5762 34.2503 15.6047C34.9918 16.1031 35.6747 16.6836 36.286 17.335C36.8288 16.6753 37.4618 16.0954 38.1665 15.6124C39.7467 14.5567 41.5015 14.0026 43.2588 14.0026C45.1273 13.9968 46.9338 14.6727 48.3396 15.9035C49.993 17.3453 50.7511 19.971 50.7511 21.7963C50.7529 22.4636 50.656 23.1275 50.4638 23.7665H52.9676C53.7629 23.7665 54.5258 24.0818 55.0891 24.6432C55.6525 25.2046 55.9703 25.9664 55.973 26.7617L56.0012 34.4477C56.0034 35.1199 55.7802 35.7734 55.3672 36.3038C54.9542 36.8342 54.3754 37.2109 53.7231 37.3735V55.3212C53.7231 55.7159 53.6454 56.1067 53.4944 56.4713C53.3433 56.8359 53.122 57.1672 52.8429 57.4463C52.5638 57.7254 52.2325 57.9468 51.8679 58.0978C51.5032 58.2488 51.1124 58.3266 50.7178 58.3266H21.7324Z" fill="white"/>
<path d="M52.9934 33.9769L52.9703 27.2439C52.9697 27.1178 52.9191 26.9971 52.8297 26.9082C52.7403 26.8193 52.6193 26.7693 52.4932 26.7693H45.5204C45.4205 26.7688 45.3234 26.7365 45.243 26.6773C45.1626 26.618 45.1031 26.5347 45.073 26.4395C45.0429 26.3443 45.0438 26.2419 45.0755 26.1472C45.1073 26.0525 45.1683 25.9703 45.2497 25.9125L45.2613 25.9035C46.8877 24.7388 47.7523 23.2586 47.7459 21.7988C47.7459 20.6008 47.1802 18.882 46.3541 18.1624C45.4967 17.4147 44.3966 17.0044 43.2589 17.0079C42.036 17.0268 40.8464 17.4095 39.8418 18.1072C38.3436 19.1129 37.1699 21.2832 36.3375 22.943C36.2913 23.029 36.2515 23.1098 36.2092 23.188C35.9026 22.5467 35.5422 21.264 35.1368 20.6855C34.4523 19.6742 33.5849 18.7998 32.5791 18.1072C31.5799 17.4402 30.4203 17.0079 29.1697 17.0079C27.9587 17.0241 26.7993 17.5006 25.927 18.3407C25.0791 19.1385 24.4801 20.9381 24.4801 22.2157C24.4827 23.0127 24.7127 23.7923 25.1432 24.463C25.5041 25.0199 25.959 25.5099 26.4875 25.9112C26.5672 25.9713 26.6261 26.0549 26.6558 26.1502C26.6855 26.2455 26.6845 26.3477 26.6531 26.4425C26.6217 26.5372 26.5613 26.6197 26.4805 26.6783C26.3997 26.737 26.3026 26.7688 26.2028 26.7693H19.9175C19.8541 26.768 19.7911 26.7793 19.7321 26.8027C19.6732 26.8261 19.6195 26.8611 19.5743 26.9056C19.5291 26.95 19.4933 27.0031 19.469 27.0617C19.4446 27.1203 19.4323 27.1831 19.4326 27.2465L19.4506 33.9807C19.4509 34.1067 19.5012 34.2274 19.5904 34.3164C19.6796 34.4054 19.8005 34.4553 19.9265 34.4553H21.2528C21.3154 34.4553 21.3774 34.4677 21.4352 34.4917C21.493 34.5157 21.5455 34.5508 21.5897 34.5952C21.634 34.6395 21.669 34.6921 21.6928 34.75C21.7167 34.8079 21.7288 34.8699 21.7287 34.9325V54.8453C21.729 54.9716 21.7794 55.0927 21.8689 55.1819C21.9583 55.2711 22.0795 55.3212 22.2058 55.3212H50.242C50.3682 55.3212 50.4893 55.271 50.5785 55.1818C50.6678 55.0925 50.7179 54.9715 50.7179 54.8453V34.9325C50.7177 34.8699 50.7299 34.8079 50.7538 34.75C50.7776 34.6921 50.8126 34.6395 50.8568 34.5952C50.901 34.5508 50.9536 34.5157 51.0114 34.4917C51.0692 34.4677 51.1312 34.4553 51.1938 34.4553H52.5175C52.5803 34.4553 52.6423 34.4429 52.7003 34.4189C52.7582 34.3948 52.8107 34.3595 52.855 34.315C52.8992 34.2706 52.9342 34.2178 52.9579 34.1598C52.9817 34.1018 52.9938 34.0396 52.9934 33.9769ZM39.2159 22.6993C39.7892 21.8809 40.4601 20.5354 41.1592 20.0685C41.7733 19.6297 42.5044 19.384 43.2589 19.363H43.2654C43.8277 19.3664 44.3706 19.5696 44.7969 19.9364C45.1817 20.2814 45.3895 20.9074 45.3895 21.355C45.3767 21.8809 45.1099 23.0867 43.8772 23.9846C42.8177 24.7542 41.0347 25.5546 38.3616 26.1472C38.279 26.1649 38.1933 26.1605 38.113 26.1344C38.0328 26.1082 37.9608 26.0613 37.9046 25.9984C37.8483 25.9355 37.8097 25.8588 37.7926 25.7761C37.7755 25.6934 37.7807 25.6077 37.8074 25.5277C38.1346 24.5205 38.6092 23.5673 39.2159 22.6993ZM27.1468 23.206C26.9211 22.8468 26.8416 22.2132 26.8416 21.9066C26.8416 21.3935 27.0981 20.4815 27.5535 20.0556C27.9843 19.6343 28.556 19.3875 29.1581 19.363H29.1722C29.8777 19.3694 30.5704 19.6028 31.2695 20.0685C32.3162 20.756 33.3013 22.6262 33.9798 23.9987C34.2191 24.4643 34.4223 24.9476 34.5878 25.4443C34.6119 25.5204 34.6165 25.6013 34.6011 25.6797C34.5857 25.758 34.5508 25.8312 34.4997 25.8925C34.4486 25.9538 34.3829 26.0013 34.3086 26.0306C34.2344 26.0598 34.1539 26.07 34.0747 26.06C31.3182 25.7073 29.4955 25.0595 28.4039 24.372C27.7702 23.9653 27.3726 23.5651 27.1468 23.206Z" fill="#0262CD"/>
<path d="M49.8328 54.4387H49.4287V54.2001H49.5942V53.4112H49.8328V54.4387ZM48.2345 54.4387H47.0416V54.2001H48.2345V54.4387ZM45.8474 54.4387H44.6545V54.2001H45.8564L45.8474 54.4387ZM43.4603 54.4387H42.2648V54.2001H43.4577L43.4603 54.4387ZM41.0731 54.4387H39.8802V54.2001H41.0731V54.4387ZM38.6873 54.4387H37.4931V54.2001H38.6873V54.4387ZM36.3002 54.4387H35.106V54.2001H36.3002V54.4387ZM33.913 54.4387H32.7214V54.2001H33.9156L33.913 54.4387ZM31.5259 54.4387H30.3356V54.2001H31.5298L31.5259 54.4387ZM29.1388 54.4387H27.9446V54.2001H29.1388V54.4387ZM26.7517 54.4387H25.5575V54.2001H26.7517V54.4387ZM24.3646 54.4387H23.1704V54.2001H24.3646V54.4387ZM22.851 54.3194H22.6124V53.1265H22.851V54.3194ZM49.8328 52.217H49.5942V51.0241H49.8328V52.217ZM22.851 51.9323H22.6124V50.7393H22.851V51.9323ZM49.8328 49.8299H49.5942V48.637H49.8328V49.8299ZM22.851 49.5451H22.6124V48.3522H22.851V49.5451ZM49.8328 47.4428H49.5942V46.2499H49.8328V47.4428ZM22.851 47.158H22.6124V45.9651H22.851V47.158ZM49.8328 45.0557H49.5942V43.8627H49.8328V45.0557ZM22.851 44.7709H22.6124V43.5754H22.851V44.7709ZM49.8328 42.6685H49.5942V41.4756H49.8328V42.6685ZM22.851 42.3838H22.6124V41.1909H22.851V42.3838ZM49.8328 40.2814H49.5942V39.0859H49.8328V40.2814ZM22.8535 39.9967H22.6149V38.8037H22.8535V39.9967ZM49.8328 37.8943H49.5942V36.7014H49.8328V37.8943ZM22.851 37.6095H22.6124V36.4166H22.851V37.6095ZM49.8328 35.5072H49.5942V34.9325C49.5938 34.7089 49.6405 34.4878 49.7314 34.2835L49.9495 34.381C49.8722 34.5546 49.8324 34.7425 49.8328 34.9325V35.5072ZM22.851 35.2224H22.6124V34.9325C22.6131 34.6539 22.5275 34.3819 22.3674 34.1539L22.5624 34.0167C22.7507 34.2849 22.8515 34.6048 22.851 34.9325V35.2224ZM50.7306 33.6537L50.6498 33.4292C50.8229 33.3663 51.0057 33.3342 51.1899 33.3343H51.8735V33.5703H51.1899C51.0331 33.5708 50.8776 33.599 50.7306 33.6537ZM21.4592 33.5895C21.391 33.5782 21.3219 33.5726 21.2527 33.5729H20.3304V33.2894H20.569V33.3355H21.2527C21.3343 33.3355 21.4158 33.342 21.4964 33.3548L21.4592 33.5895ZM51.8594 32.3735V31.1806H52.098V32.3748L51.8594 32.3735ZM20.3304 32.0952V30.9022H20.569V32.0965L20.3304 32.0952ZM51.8569 29.9877V28.7935H52.0955V29.9877H51.8569ZM20.3304 29.708V28.5151H20.569V29.7093L20.3304 29.708ZM51.803 27.8904H50.6024V27.6519H51.7953L51.803 27.8904ZM49.4159 27.8904H48.223V27.6519H49.4159V27.8904ZM47.0287 27.8904H45.8358V27.6519H47.0287V27.8904ZM26.2053 27.8904H25.6691V27.6519H26.2053C26.4077 27.6526 26.6078 27.6088 26.7914 27.5236L26.8928 27.7391C26.676 27.8404 26.4394 27.8921 26.2001 27.8904H26.2053ZM24.4749 27.8904H23.2807V27.6519H24.4736L24.4749 27.8904ZM22.0878 27.8904H20.8948V27.6519H22.0878V27.8904ZM44.6262 27.6147C44.3373 27.4163 44.1218 27.1282 44.0131 26.795C43.9876 26.7162 43.9678 26.6356 43.9541 26.5539L44.1888 26.5154C44.2005 26.5845 44.2172 26.6527 44.2389 26.7193C44.3298 27.0032 44.5131 27.2484 44.7596 27.4158L44.6262 27.6147ZM27.7201 26.7963L27.4931 26.7219C27.5503 26.5474 27.5717 26.3632 27.5561 26.1803C27.5404 25.9974 27.488 25.8195 27.402 25.6573L27.6137 25.5457C27.7143 25.7364 27.7755 25.9453 27.7938 26.1602C27.8121 26.375 27.787 26.5913 27.7201 26.7963ZM44.4454 25.4802L44.2542 25.3353C44.3458 25.2151 44.4542 25.1088 44.5762 25.0197L44.6147 24.9915C44.8096 24.8526 44.9971 24.7036 45.1765 24.5451L45.3343 24.7247C45.1484 24.8878 44.9545 25.0415 44.7532 25.1852L44.7186 25.2122C44.6144 25.2871 44.5223 25.3775 44.4454 25.4802ZM26.5965 24.8389C26.3285 24.586 26.0924 24.3012 25.8936 23.991C25.8717 23.9564 25.8512 23.9217 25.8307 23.8871L26.0372 23.7665C26.0552 23.7986 26.0757 23.8307 26.0949 23.8627C26.2836 24.1571 26.5076 24.4272 26.7619 24.667L26.5965 24.8389ZM36.2168 24.3053H36.1616L36.1732 24.0667H36.2091C36.3742 24.0682 36.5364 24.0234 36.6773 23.9372C36.8181 23.851 36.9319 23.727 37.0057 23.5793L37.0211 23.5472L37.2353 23.6549L37.2186 23.6857C37.1262 23.8735 36.9826 24.0313 36.8045 24.1411C36.6264 24.2509 36.4209 24.3083 36.2117 24.3066L36.2168 24.3053ZM46.1578 23.8268L45.959 23.6934C46.1882 23.3814 46.3665 23.0351 46.4874 22.6673L46.7145 22.7391C46.5857 23.1294 46.3961 23.4969 46.1527 23.8281L46.1578 23.8268ZM35.1496 23.5652C35.0303 23.2984 34.9136 22.9841 34.7904 22.6519L34.7147 22.4453L34.9379 22.3633L35.0149 22.5698C35.1432 22.8981 35.2509 23.2111 35.3676 23.4677L35.1496 23.5652ZM25.401 22.7352C25.3744 22.5758 25.3611 22.4145 25.3612 22.2529V22.2247C25.3633 21.9849 25.3843 21.7455 25.4241 21.509L25.6601 21.5475C25.6217 21.7721 25.6016 21.9994 25.5998 22.2273V22.2529C25.6001 22.4016 25.6126 22.5501 25.637 22.6968L25.401 22.7352ZM37.7753 22.5967L37.5649 22.4851C37.7702 22.1003 37.9626 21.7553 38.1511 21.4384L38.3564 21.5667C38.1691 21.8745 37.9792 22.2132 37.7753 22.5967ZM46.6144 21.5333C46.5793 21.1455 46.5001 20.7629 46.3784 20.393L46.6067 20.3199C46.7334 20.7074 46.8156 21.108 46.8517 21.5141L46.6144 21.5333ZM34.2491 21.3692C34.2389 21.3538 34.2299 21.3384 34.2196 21.3243C34.0065 21.0175 33.777 20.7225 33.5321 20.4405L33.7117 20.284C33.9619 20.5705 34.1966 20.8702 34.4146 21.1819C34.4274 21.1986 34.439 21.2178 34.4518 21.2383L34.2491 21.3692ZM38.9951 20.5675L38.8015 20.4289C39.0359 20.0989 39.2931 19.7856 39.5711 19.4913L39.743 19.6567C39.4744 19.9426 39.2262 20.2469 39.0003 20.5675H38.9951ZM25.9603 20.4135L25.7371 20.3302C25.8744 19.9439 26.0634 19.578 26.2989 19.2424L26.4913 19.3848C26.2698 19.7021 26.0928 20.0482 25.9654 20.4135H25.9603ZM32.697 19.6067C32.462 19.401 32.2139 19.2108 31.9544 19.0372C31.8877 18.9936 31.8261 18.95 31.7542 18.9089L31.8825 18.7063C31.9518 18.7486 32.0211 18.7935 32.089 18.8345C32.3582 19.0137 32.6153 19.2104 32.8587 19.4233L32.697 19.6067ZM45.8923 19.3386C45.8134 19.2135 45.718 19.0996 45.6088 19C45.4349 18.847 45.2463 18.7116 45.0457 18.5959L45.1637 18.3894C45.3787 18.5123 45.5807 18.6567 45.7666 18.8204C45.8914 18.934 46.001 19.0633 46.0924 19.2052L45.8923 19.3386ZM40.6332 18.923L40.5049 18.7204C40.8494 18.5047 41.2152 18.325 41.5965 18.1842L41.6786 18.4087C41.3163 18.5439 40.9689 18.7163 40.6421 18.923H40.6332ZM27.3558 18.646L27.2276 18.4407C27.5788 18.2273 27.9621 18.0718 28.3628 17.9802L28.4166 18.2124C28.0453 18.3003 27.6902 18.4466 27.3648 18.646H27.3558ZM30.7024 18.3997C30.3371 18.2672 29.9566 18.181 29.5698 18.1431L29.5916 17.9058C29.9981 17.9449 30.398 18.0349 30.782 18.1739L30.7024 18.3997ZM43.9644 18.1957C43.584 18.1234 43.195 18.1074 42.8099 18.1483L42.7855 17.911C43.1937 17.8679 43.606 17.8847 44.0093 17.961L43.9644 18.1957Z" fill="white"/>
<path d="M22.8406 44.8068L23.7205 43.5498C24.0977 43.7682 24.5409 43.8438 24.9692 43.7628C25.3976 43.6818 25.7825 43.4495 26.0539 43.1084C26.3252 42.7672 26.4649 42.3399 26.4475 41.9043C26.4301 41.4687 26.2568 41.0539 25.959 40.7355C25.6613 40.4171 25.2591 40.2163 24.8257 40.1697C24.3922 40.1231 23.9565 40.2338 23.5979 40.4817C23.2393 40.7295 22.9817 41.098 22.8722 41.5199C22.7626 41.9419 22.8083 42.3891 23.0009 42.7801L21.9234 44.3194L20.8447 42.7801C21.0378 42.3886 21.0837 41.9406 20.9741 41.518C20.8645 41.0954 20.6066 40.7263 20.2475 40.478C19.8884 40.2296 19.452 40.1187 19.0179 40.1653C18.5838 40.2119 18.1809 40.413 17.8827 40.7319C17.5845 41.0508 17.4109 41.4663 17.3935 41.9026C17.3761 42.3388 17.5162 42.7668 17.788 43.1084C18.0599 43.4501 18.4455 43.6826 18.8745 43.7636C19.3035 43.8446 19.7474 43.7687 20.1251 43.5498L21.0063 44.8068L18.5845 48.2701C18.361 48.597 18.276 48.9991 18.3482 49.3885C18.4203 49.7779 18.6436 50.1229 18.9694 50.3481L21.9286 46.1229L23.0073 47.6621V45.039L22.8406 44.8068ZM19.2195 42.9225C19.033 42.9225 18.8507 42.8672 18.6957 42.7636C18.5407 42.66 18.4198 42.5128 18.3485 42.3405C18.2771 42.1682 18.2584 41.9787 18.2948 41.7958C18.3312 41.6129 18.421 41.4449 18.5528 41.3131C18.6847 41.1812 18.8527 41.0914 19.0356 41.0551C19.2184 41.0187 19.408 41.0373 19.5803 41.1087C19.7526 41.1801 19.8998 41.3009 20.0034 41.4559C20.107 41.611 20.1623 41.7933 20.1623 41.9797C20.1623 42.1035 20.1379 42.2261 20.0905 42.3405C20.0431 42.4549 19.9737 42.5588 19.8861 42.6464C19.7986 42.7339 19.6947 42.8034 19.5803 42.8508C19.4659 42.8981 19.3433 42.9225 19.2195 42.9225ZM24.6261 42.9225C24.4396 42.9225 24.2574 42.8672 24.1023 42.7636C23.9473 42.66 23.8264 42.5128 23.7551 42.3405C23.6837 42.1682 23.665 41.9787 23.7014 41.7958C23.7378 41.6129 23.8276 41.4449 23.9594 41.3131C24.0913 41.1812 24.2593 41.0914 24.4422 41.0551C24.6251 41.0187 24.8146 41.0373 24.9869 41.1087C25.1592 41.1801 25.3064 41.3009 25.41 41.4559C25.5136 41.611 25.5689 41.7933 25.5689 41.9797C25.5689 42.1035 25.5445 42.2261 25.4971 42.3405C25.4497 42.4549 25.3803 42.5588 25.2928 42.6464C25.2052 42.7339 25.1013 42.8034 24.9869 42.8508C24.8725 42.8981 24.7499 42.9225 24.6261 42.9225Z" fill="#FCBD25"/>
<path d="M33.424 44.874C33.2933 45.1167 33.1113 45.238 32.878 45.238C32.738 45.238 32.612 45.1867 32.5 45.084C32.3973 44.9813 32.346 44.8507 32.346 44.692C32.346 44.5613 32.3833 44.4353 32.458 44.314L37.694 35.256C37.834 35.0133 38.0207 34.892 38.254 34.892C38.394 34.892 38.5153 34.9433 38.618 35.046C38.73 35.1487 38.786 35.2793 38.786 35.438C38.786 35.5687 38.7487 35.6947 38.674 35.816L33.424 44.874ZM32.122 41.038C31.366 41.038 30.7733 40.7813 30.344 40.268C29.9147 39.7547 29.7 39.0033 29.7 38.014C29.7 37.0247 29.9147 36.278 30.344 35.774C30.7733 35.2607 31.366 35.004 32.122 35.004C32.8873 35.004 33.4847 35.2607 33.914 35.774C34.3433 36.278 34.558 37.0247 34.558 38.014C34.558 39.0127 34.3433 39.7687 33.914 40.282C33.4847 40.786 32.8873 41.038 32.122 41.038ZM32.122 40.086C32.5327 40.086 32.836 39.9227 33.032 39.596C33.228 39.26 33.326 38.7327 33.326 38.014C33.326 37.3047 33.228 36.7867 33.032 36.46C32.836 36.1333 32.5327 35.97 32.122 35.97C31.7113 35.97 31.408 36.1333 31.212 36.46C31.0253 36.7773 30.932 37.2953 30.932 38.014C30.932 38.7327 31.0253 39.26 31.212 39.596C31.408 39.9227 31.7113 40.086 32.122 40.086ZM38.996 45.098C38.2307 45.098 37.6333 44.846 37.204 44.342C36.7747 43.8287 36.56 43.0727 36.56 42.074C36.56 41.0847 36.7747 40.338 37.204 39.834C37.6333 39.3207 38.2307 39.064 38.996 39.064C39.752 39.064 40.3447 39.3207 40.774 39.834C41.2127 40.338 41.432 41.0847 41.432 42.074C41.432 43.0633 41.2173 43.8147 40.788 44.328C40.3587 44.8413 39.7613 45.098 38.996 45.098ZM38.996 44.146C39.4067 44.146 39.7053 43.9827 39.892 43.656C40.088 43.32 40.186 42.7927 40.186 42.074C40.186 41.3647 40.088 40.8467 39.892 40.52C39.696 40.184 39.3973 40.016 38.996 40.016C38.5853 40.016 38.282 40.1793 38.086 40.506C37.89 40.8327 37.792 41.3553 37.792 42.074C37.792 42.7927 37.89 43.32 38.086 43.656C38.282 43.9827 38.5853 44.146 38.996 44.146Z" fill="white"/>
</svg>
